<svg width="116" height="107" viewBox="0 0 116 107" fill="none" xmlns="http://www.w3.org/2000/svg">
<g filter="url(#filter0_d_264_290)">
<rect x="18" y="16" width="80" height="71" rx="20" fill="url(#paint0_linear_264_290)"/>
<rect x="18.5" y="16.5" width="79" height="70" rx="19.5" stroke="url(#paint1_linear_264_290)"/>
</g>
<rect x="25" y="22" width="66" height="58" rx="15" fill="url(#paint2_linear_264_290)" stroke="url(#paint3_linear_264_290)" stroke-width="2"/>
<g filter="url(#filter1_d_264_290)">
<path d="M51.3103 33C58.7433 33 64.9442 38.0418 66.3298 44.7209C66.5219 45.6383 66.6207 46.5853 66.6234 47.553C66.6234 52.7776 63.7315 57.3592 59.3853 59.9258C57.0421 61.3124 54.2764 62.1148 51.3131 62.1148C50.69 62.1148 39.6221 61.9859 39.0621 61.9793L39.0401 61.9791L40.2693 60.5896C41.0294 59.7311 40.9937 58.3711 40.1925 57.5569C37.5941 54.9519 36 51.4324 36 47.5559C36 39.5168 42.8567 33 51.3103 33ZM43.4231 44.9731C41.9923 44.9731 40.8388 46.1295 40.8388 47.5574C40.8388 48.9882 41.9923 50.1417 43.4231 50.1417C44.8509 50.1417 46.0074 48.9882 46.0074 47.5574C46.0074 46.1295 44.8509 44.9731 43.4231 44.9731ZM51.3117 44.9731C49.8838 44.9731 48.7274 46.1295 48.7274 47.5574C48.7274 48.9882 49.8838 50.1417 51.3117 50.1417C52.7396 50.1417 53.896 48.9882 53.896 47.5574C53.896 46.1295 52.7396 44.9731 51.3117 44.9731ZM59.2003 44.9731C57.7725 44.9731 56.616 46.1295 56.616 47.5574C56.616 48.9882 57.7725 50.1417 59.2003 50.1417C59.2328 50.1417 59.2623 50.1417 59.2948 50.1388C60.6858 50.0949 61.7893 48.9521 61.7847 47.5603C61.7847 47.4423 61.7758 47.3302 61.7611 47.2152C61.5958 45.9496 60.5132 44.9731 59.2003 44.9731Z" fill="url(#paint4_linear_264_290)"/>
<path d="M76.9897 63.9586L77.8293 64.9056H71.0001C70.9177 64.9056 70.8354 64.9115 70.7531 64.9203C70.3306 64.9705 69.9025 65 69.4663 65C65.8143 65 62.5986 63.2152 60.7383 60.5129C65.0844 57.9462 67.9764 53.3647 67.9764 48.14C67.9764 47.1694 67.8749 46.2224 67.6828 45.305C68.2618 45.2076 68.8599 45.1604 69.4663 45.1604C75.2282 45.1604 79.8982 49.6003 79.8982 55.0787C79.8982 57.7191 78.8116 60.1175 77.0419 61.8935C76.4986 62.4452 76.4767 63.3715 76.9897 63.9586Z" fill="url(#paint5_linear_264_290)"/>
</g>
<path d="M57.9998 96L50.9377 87H65.062L57.9998 96Z" fill="#1B2226"/>
<defs>
<filter id="filter0_d_264_290" x="0" y="0" width="116" height="107" filterUnits="userSpaceOnUse" color-interpolation-filters="sRGB">
<feFlood flood-opacity="0" result="BackgroundImageFix"/>
<feColorMatrix in="SourceAlpha" type="matrix" values="0 0 0 0 0 0 0 0 0 0 0 0 0 0 0 0 0 0 127 0" result="hardAlpha"/>
<feMorphology radius="7" operator="dilate" in="SourceAlpha" result="effect1_dropShadow_264_290"/>
<feOffset dy="2"/>
<feGaussianBlur stdDeviation="5.5"/>
<feComposite in2="hardAlpha" operator="out"/>
<feColorMatrix type="matrix" values="0 0 0 0 0.811765 0 0 0 0 0.964706 0 0 0 0 1 0 0 0 0.05 0"/>
<feBlend mode="normal" in2="BackgroundImageFix" result="effect1_dropShadow_264_290"/>
<feBlend mode="normal" in="SourceGraphic" in2="effect1_dropShadow_264_290" result="shape"/>
</filter>
<filter id="filter1_d_264_290" x="31" y="33" width="53.8979" height="42" filterUnits="userSpaceOnUse" color-interpolation-filters="sRGB">
<feFlood flood-opacity="0" result="BackgroundImageFix"/>
<feColorMatrix in="SourceAlpha" type="matrix" values="0 0 0 0 0 0 0 0 0 0 0 0 0 0 0 0 0 0 127 0" result="hardAlpha"/>
<feOffset dy="5"/>
<feGaussianBlur stdDeviation="2.5"/>
<feComposite in2="hardAlpha" operator="out"/>
<feColorMatrix type="matrix" values="0 0 0 0 0.0705882 0 0 0 0 0.152941 0 0 0 0 0.196078 0 0 0 0.3 0"/>
<feBlend mode="normal" in2="BackgroundImageFix" result="effect1_dropShadow_264_290"/>
<feBlend mode="normal" in="SourceGraphic" in2="effect1_dropShadow_264_290" result="shape"/>
</filter>
<linearGradient id="paint0_linear_264_290" x1="79.8605" y1="81.2209" x2="49.9174" y2="16.7714" gradientUnits="userSpaceOnUse">
<stop stop-color="#1B2226"/>
<stop offset="1" stop-color="#192E35"/>
</linearGradient>
<linearGradient id="paint1_linear_264_290" x1="58" y1="16" x2="58" y2="49.8488" gradientUnits="userSpaceOnUse">
<stop stop-color="#CFF6FF" stop-opacity="0.5"/>
<stop offset="1" stop-color="white" stop-opacity="0"/>
</linearGradient>
<linearGradient id="paint2_linear_264_290" x1="77.3721" y1="74.1104" x2="54.0397" y2="3.29597" gradientUnits="userSpaceOnUse">
<stop stop-color="#B677F9"/>
<stop offset="1" stop-color="#1CC9FF"/>
</linearGradient>
<linearGradient id="paint3_linear_264_290" x1="58" y1="21" x2="58" y2="49.6047" gradientUnits="userSpaceOnUse">
<stop stop-color="#CFF6FF"/>
<stop offset="1" stop-color="white" stop-opacity="0"/>
</linearGradient>
<linearGradient id="paint4_linear_264_290" x1="51.3118" y1="40.4628" x2="51.3117" y2="62.1148" gradientUnits="userSpaceOnUse">
<stop stop-color="white"/>
<stop offset="1" stop-color="#D3C8FF"/>
</linearGradient>
<linearGradient id="paint5_linear_264_290" x1="70.4254" y1="44.8413" x2="70.3182" y2="65" gradientUnits="userSpaceOnUse">
<stop stop-color="white"/>
<stop offset="1" stop-color="#D3C8FF"/>
</linearGradient>
</defs>
</svg>
