<svg width="600" height="600" viewBox="0 0 600 600" fill="none" xmlns="http://www.w3.org/2000/svg">
<path d="M426.193 254.106C421.205 146.563 352.525 122.644 309.905 124.35C309.389 124.37 308.999 124.777 309.01 125.294C310.824 207.913 314.328 373.848 313.996 383.821C313.664 393.768 305.893 396.851 301.975 397.163C301.924 397.167 301.877 397.166 301.826 397.162C289.422 396.045 263.182 393.243 256.854 390.912C250.515 388.576 248.652 382.709 248.513 380.068L250.174 126.24C250.178 125.69 249.691 125.252 249.142 125.286C147.106 131.659 139.216 219.532 133.813 248.215C128.39 276.994 126.722 418.44 135.064 464.767C142.572 512.286 171.094 579.02 288.97 578.186C401.5 577.39 424.459 485.438 426.662 461.817C427.161 456.467 432.566 391.494 426.193 254.106Z" stroke="#606C80" stroke-width="2.28899"/>
<path d="M302.189 123.27C303.857 123.244 305.231 124.572 305.263 126.24L310.092 384.399C310.173 388.781 306.352 392.219 302.003 391.675L260.322 386.464C255.864 385.907 252.527 382.104 252.556 377.611L254.159 127.798C254.173 125.7 255.86 123.996 257.959 123.963L302.189 123.27Z" stroke="#606C80" stroke-width="2.28899" stroke-linejoin="round"/>
<rect x="279.686" y="132.906" width="1.66837" height="15.8495" rx="0.834184" stroke="#8BE6B0" stroke-width="1.66837"/>
<rect x="279.686" y="156.263" width="1.66837" height="7.50765" rx="0.834184" stroke="#8BE6B0" stroke-width="1.66837"/>
<rect x="290.177" y="144.584" width="1.66837" height="11.6786" rx="0.834184" stroke="#8BE6B0" stroke-width="1.66837"/>
<rect x="268.402" y="155.428" width="1.66837" height="7.50765" rx="0.834184" stroke="#8BE6B0" stroke-width="1.66837"/>
<rect x="268.402" y="139.579" width="1.66837" height="7.50765" rx="0.834184" stroke="#8BE6B0" stroke-width="1.66837"/>
<rect x="264.144" y="174.144" width="32.711" height="67.711" rx="10.8555" stroke="#606C80" stroke-width="2.28899"/>
<g filter="url(#filter0_d_266_398)">
<rect x="270.2" y="178.2" width="20.6" height="58.6" rx="10.3" stroke="#8BE6B0" stroke-width="2.4" shape-rendering="crispEdges"/>
</g>
<path d="M268.005 277H292.995C295.207 277 297 278.793 297 281.005V316.406C297 318.794 294.925 320.651 292.552 320.387L267.562 317.604C265.534 317.378 264 315.663 264 313.623V281.005C264 278.793 265.793 277 268.005 277Z" stroke="#8BE6B0" stroke-width="2"/>
<path d="M264 330.723C264 328.299 266.137 326.431 268.539 326.754L293.528 330.112C295.516 330.38 297 332.076 297 334.082V367.277C297 369.701 294.863 371.569 292.461 371.246L267.472 367.888C265.484 367.62 264 365.924 264 363.918V330.723Z" stroke="#8BE6B0" stroke-width="2"/>
<path d="M28 156L188 156" stroke="#606C80" stroke-width="2" stroke-dasharray="2 2"/>
<path d="M371 156L531 156" stroke="#606C80" stroke-width="2" stroke-dasharray="2 2"/>
<path d="M280 70L280 120" stroke="#606C80" stroke-width="2" stroke-dasharray="2 2"/>
<path d="M35.714 112.128C36.498 112.31 37.24 112.576 37.954 112.912L37.632 113.71C36.904 113.332 36.148 113.038 35.364 112.814L35.714 112.128ZM35.7 114.186C36.47 114.382 37.212 114.69 37.912 115.096L37.59 115.894C36.862 115.446 36.12 115.11 35.35 114.872L35.7 114.186ZM31.234 112.114C32.046 112.296 32.816 112.562 33.558 112.912L33.236 113.71C32.48 113.318 31.682 113.024 30.87 112.8L31.234 112.114ZM31.206 114.172C31.99 114.368 32.732 114.676 33.46 115.068L33.138 115.866C32.41 115.432 31.64 115.096 30.842 114.858L31.206 114.172ZM30.38 108.922V110.084H38.892V108.922H35.406V108.096H38.892V106.92H35.322V106.066H39.858V110.952H29.414V106.262C31.066 106.178 32.494 105.968 33.67 105.618L34.146 106.402C33.222 106.654 31.976 106.864 30.38 107.032V108.096H33.908V108.922H30.38ZM40.166 118.316C39.872 118.316 39.606 118.19 39.354 117.938C39.046 117.602 38.808 117.14 38.668 116.566C38.472 115.81 38.374 114.158 38.374 111.61H39.34C39.34 114.186 39.424 115.81 39.62 116.482C39.774 117.014 39.942 117.294 40.11 117.322C40.334 117.294 40.53 116.594 40.684 115.222L41.468 115.782C41.23 117.462 40.796 118.316 40.166 118.316ZM29.358 118.344L29.134 117.532C29.33 117.448 29.442 117.28 29.442 117.056V111.624H30.436V117.238C31.192 117.098 31.906 116.902 32.564 116.678L32.732 117.574C31.752 117.868 30.618 118.12 29.358 118.344ZM33.88 118.358L33.656 117.532C33.894 117.448 34.02 117.308 34.02 117.084V111.624H35.014V117.252C35.98 117.07 36.862 116.846 37.674 116.566L37.856 117.448C36.694 117.798 35.364 118.106 33.88 118.358ZM44.674 105.604H45.668V108.25H47.292V109.216H45.668V110.294C46.354 110.994 47.04 111.778 47.726 112.632L47.152 113.486C46.578 112.604 46.088 111.904 45.668 111.372V118.386H44.674V111.414C44.226 112.73 43.652 113.934 42.952 115.026L42.518 113.934C43.526 112.562 44.24 110.98 44.674 109.216H42.966V108.25H44.674V105.604ZM48.804 111.932L49.728 112.142C49.28 114.102 48.622 115.782 47.782 117.21L46.914 116.65C47.782 115.236 48.412 113.668 48.804 111.932ZM53.872 111.862C54.46 113.444 54.964 115.138 55.384 116.93L54.474 117.336C54.012 115.39 53.508 113.668 52.962 112.156L53.872 111.862ZM50.736 118.246H49.308L49.112 117.308C49.56 117.336 49.98 117.364 50.386 117.364C50.764 117.364 50.96 117.154 50.96 116.748V110.77H47.544V109.804H55.398V110.77H51.968V117C51.968 117.826 51.548 118.246 50.736 118.246ZM48.286 106.402H54.67V107.354H48.286V106.402ZM57.008 107.592H61.25C61.404 106.92 61.53 106.22 61.642 105.506L62.65 105.632C62.538 106.318 62.426 106.976 62.286 107.592H69.23V108.572H62.048C61.74 109.734 61.362 110.798 60.942 111.778H68.11V112.744H64.694V117.014H69.244V117.994H59.038V117.014H63.672V112.744H60.48C59.584 114.452 58.478 115.824 57.162 116.874L56.644 115.95C58.688 114.214 60.144 111.75 61.012 108.572H57.008V107.592ZM71.358 110.588C71.33 110.658 71.288 110.728 71.26 110.798L70.476 110.294C71.134 108.838 71.61 107.228 71.918 105.464L72.87 105.66C72.758 106.178 72.66 106.668 72.548 107.144H74.676V108.11H72.282C72.086 108.782 71.862 109.398 71.624 109.986H74.634V110.882H73.402V112.604H74.844V113.528H73.402V116.748C73.864 116.496 74.34 116.188 74.816 115.796L74.984 116.664C74.27 117.196 73.444 117.644 72.52 117.994L72.114 117.154C72.366 117.056 72.492 116.916 72.492 116.72V113.528H70.924V112.604H72.492V110.882H71.358V110.588ZM82.6 111.442H80.654V112.52H82.754V113.318H80.654V114.424H83.104V115.264H80.654V116.636H79.744V115.264H77.868V114.424H79.744V113.318H78.218V112.52H79.744V111.442H78.358V110.63H79.744V109.496H77.882V108.684H79.744V107.494H78.358V106.682H79.744V105.646H80.654V106.682H82.6V108.684H83.258V109.496H82.6V111.442ZM80.654 107.494V108.684H81.746V107.494H80.654ZM80.654 109.496V110.63H81.746V109.496H80.654ZM81.242 117.252C82.166 117.252 82.908 117.224 83.454 117.196L83.272 118.162H81.746C79.674 118.134 78.26 117.882 77.532 117.406C77.196 117.196 76.902 116.944 76.65 116.65C76.342 117.294 75.964 117.84 75.53 118.316L74.844 117.644C75.32 117.14 75.726 116.538 76.034 115.838C75.544 115.054 75.152 114.074 74.872 112.898L75.628 112.618C75.81 113.444 76.076 114.172 76.412 114.816C76.692 113.864 76.86 112.772 76.916 111.54H75.25V110.84C75.81 109.888 76.328 108.852 76.776 107.746H75.152V106.878H77.686V107.704C77.21 108.88 76.748 109.874 76.286 110.714H77.728V111.26C77.7 113.01 77.462 114.508 77.028 115.74C77.392 116.188 77.812 116.51 78.26 116.72C78.89 117.028 79.884 117.196 81.242 117.252Z" fill="white"/>
<path d="M29.008 131.004H30.142V140.006H35.924V141H29.008V131.004ZM40.0805 133.566C41.2425 133.566 42.1245 133.958 42.7125 134.742C43.2445 135.442 43.5245 136.436 43.5525 137.696H37.8405C37.8965 138.508 38.1065 139.138 38.4985 139.586C38.8905 140.034 39.4365 140.258 40.1225 140.258C40.7105 140.258 41.2005 140.104 41.5645 139.81C41.8725 139.558 42.1105 139.18 42.2925 138.676H43.4125C43.2445 139.376 42.9225 139.936 42.4325 140.384C41.8305 140.916 41.0605 141.196 40.1225 141.196C39.0865 141.196 38.2465 140.846 37.6305 140.174C36.9865 139.474 36.6785 138.55 36.6785 137.374C36.6785 136.31 36.9725 135.414 37.5885 134.7C38.2045 133.944 39.0305 133.566 40.0805 133.566ZM40.1085 134.504C39.4645 134.504 38.9465 134.714 38.5545 135.134C38.1625 135.554 37.9385 136.114 37.8685 136.828H42.3905C42.2505 135.274 41.4805 134.504 40.1085 134.504ZM47.7621 131.004H49.1481V131.97H47.9021C47.5941 131.97 47.3561 132.04 47.2161 132.208C47.0761 132.362 47.0061 132.614 47.0061 132.964V133.762H49.0501V134.7H47.0061V141H45.8861V134.7H44.0661V133.762H45.8861V132.936C45.8861 132.32 46.0401 131.858 46.3481 131.522C46.6701 131.172 47.1461 131.004 47.7621 131.004ZM52.0188 131.424V133.762H53.8108V134.7H52.0188V139.306C52.0188 139.572 52.0608 139.768 52.1728 139.88C52.2708 139.992 52.4528 140.062 52.7048 140.062H53.6288V141H52.5368C51.9488 141 51.5148 140.846 51.2628 140.538C51.0248 140.258 50.9128 139.852 50.9128 139.306V134.7H49.4568V133.762H50.9128V131.886L52.0188 131.424ZM62.8894 133.566C63.9954 133.566 64.7514 134.014 65.1574 134.938C65.4374 134.462 65.7734 134.112 66.1654 133.902C66.5154 133.678 66.9354 133.566 67.4394 133.566C68.1954 133.566 68.7974 133.804 69.2734 134.28C69.7214 134.77 69.9594 135.428 69.9594 136.254V141H68.8394V136.436C68.8394 135.792 68.6994 135.316 68.4334 135.008C68.1534 134.672 67.7054 134.518 67.0894 134.518C66.6134 134.518 66.2074 134.686 65.8994 135.05C65.5634 135.414 65.4094 135.876 65.4094 136.464V141H64.2894V136.436C64.2894 135.148 63.7294 134.518 62.6234 134.518C62.1054 134.518 61.6854 134.714 61.3494 135.134C61.0134 135.526 60.8454 136.016 60.8454 136.59V141H59.7254V133.762H60.8454V134.728C61.3914 133.944 62.0774 133.566 62.8894 133.566ZM74.936 133.566C76.014 133.566 76.882 133.93 77.526 134.686C78.142 135.4 78.45 136.296 78.45 137.388C78.45 138.466 78.142 139.362 77.54 140.062C76.882 140.818 76.014 141.196 74.936 141.196C73.844 141.196 72.99 140.818 72.346 140.062C71.73 139.362 71.422 138.466 71.422 137.388C71.422 136.296 71.73 135.4 72.346 134.686C72.99 133.93 73.844 133.566 74.936 133.566ZM74.936 134.504C74.166 134.504 73.564 134.798 73.144 135.386C72.752 135.918 72.57 136.576 72.57 137.388C72.57 138.186 72.752 138.844 73.144 139.376C73.564 139.964 74.166 140.258 74.936 140.258C75.692 140.258 76.294 139.964 76.742 139.376C77.12 138.844 77.316 138.172 77.316 137.388C77.316 136.576 77.12 135.918 76.742 135.386C76.294 134.798 75.692 134.504 74.936 134.504ZM79.9051 133.762H81.0251V138.186C81.0251 138.872 81.1651 139.39 81.4591 139.726C81.7531 140.062 82.2291 140.244 82.8871 140.244C83.3631 140.244 83.7971 140.048 84.1751 139.684C84.5671 139.292 84.8051 138.788 84.8891 138.172V133.762H86.0091V141H84.8891V139.88C84.3011 140.748 83.5171 141.196 82.5371 141.196C80.7731 141.196 79.9051 140.202 79.9051 138.242V133.762ZM90.3011 133.566C92.0931 133.566 93.0731 134.308 93.2691 135.82H92.1771C92.0791 135.372 91.8971 135.036 91.6171 134.84C91.3091 134.616 90.8611 134.504 90.2871 134.504C89.7831 134.504 89.3911 134.588 89.1111 134.784C88.8031 134.966 88.6491 135.218 88.6491 135.54C88.6491 135.848 88.8451 136.114 89.2651 136.324C89.5311 136.45 90.0351 136.604 90.7631 136.8C91.6311 137.01 92.2471 137.234 92.6251 137.472C93.1991 137.836 93.4931 138.326 93.4931 138.956C93.4931 140.44 92.4711 141.196 90.4271 141.196C88.5231 141.196 87.4871 140.356 87.3191 138.69H88.4111C88.4951 139.264 88.7051 139.67 89.0131 139.922C89.3211 140.146 89.7831 140.258 90.3991 140.258C91.6871 140.258 92.3451 139.838 92.3451 139.026C92.3451 138.62 92.1071 138.312 91.6591 138.088C91.4211 137.976 90.9031 137.822 90.1191 137.626C89.2651 137.416 88.6631 137.206 88.3271 136.982C87.7671 136.646 87.5011 136.184 87.5011 135.568C87.5011 134.952 87.7671 134.476 88.3131 134.112C88.8171 133.748 89.4891 133.566 90.3011 133.566ZM97.7895 133.566C98.9515 133.566 99.8335 133.958 100.421 134.742C100.953 135.442 101.233 136.436 101.261 137.696H95.5495C95.6055 138.508 95.8155 139.138 96.2075 139.586C96.5995 140.034 97.1455 140.258 97.8315 140.258C98.4195 140.258 98.9095 140.104 99.2735 139.81C99.5815 139.558 99.8195 139.18 100.001 138.676H101.121C100.953 139.376 100.631 139.936 100.141 140.384C99.5395 140.916 98.7695 141.196 97.8315 141.196C96.7955 141.196 95.9555 140.846 95.3395 140.174C94.6955 139.474 94.3875 138.55 94.3875 137.374C94.3875 136.31 94.6815 135.414 95.2975 134.7C95.9135 133.944 96.7395 133.566 97.7895 133.566ZM97.8175 134.504C97.1735 134.504 96.6555 134.714 96.2635 135.134C95.8715 135.554 95.6475 136.114 95.5775 136.828H100.099C99.9595 135.274 99.1895 134.504 97.8175 134.504ZM107.235 130.808H108.355V135.092C108.915 134.07 109.713 133.566 110.749 133.566C111.771 133.566 112.583 133.944 113.171 134.728C113.703 135.428 113.983 136.296 113.983 137.36C113.983 138.452 113.703 139.348 113.171 140.048C112.569 140.804 111.743 141.196 110.693 141.196C109.573 141.196 108.775 140.734 108.285 139.81V141H107.235V130.808ZM110.511 134.49C109.853 134.49 109.321 134.742 108.929 135.274C108.509 135.792 108.313 136.478 108.313 137.318V137.458C108.313 138.27 108.495 138.928 108.859 139.432C109.251 139.992 109.825 140.272 110.553 140.272C111.337 140.272 111.925 139.978 112.317 139.418C112.653 138.914 112.835 138.228 112.835 137.36C112.835 136.492 112.653 135.82 112.289 135.33C111.883 134.77 111.295 134.49 110.511 134.49ZM115.438 133.762H116.558V138.186C116.558 138.872 116.698 139.39 116.992 139.726C117.286 140.062 117.762 140.244 118.42 140.244C118.896 140.244 119.33 140.048 119.708 139.684C120.1 139.292 120.338 138.788 120.422 138.172V133.762H121.542V141H120.422V139.88C119.834 140.748 119.05 141.196 118.07 141.196C116.306 141.196 115.438 140.202 115.438 138.242V133.762ZM125.204 131.424V133.762H126.996V134.7H125.204V139.306C125.204 139.572 125.246 139.768 125.358 139.88C125.456 139.992 125.638 140.062 125.89 140.062H126.814V141H125.722C125.134 141 124.7 140.846 124.448 140.538C124.21 140.258 124.098 139.852 124.098 139.306V134.7H122.642V133.762H124.098V131.886L125.204 131.424ZM130.181 131.424V133.762H131.973V134.7H130.181V139.306C130.181 139.572 130.223 139.768 130.335 139.88C130.433 139.992 130.615 140.062 130.867 140.062H131.791V141H130.699C130.111 141 129.677 140.846 129.425 140.538C129.187 140.258 129.075 139.852 129.075 139.306V134.7H127.619V133.762H129.075V131.886L130.181 131.424ZM136.459 133.566C137.537 133.566 138.405 133.93 139.049 134.686C139.665 135.4 139.973 136.296 139.973 137.388C139.973 138.466 139.665 139.362 139.063 140.062C138.405 140.818 137.537 141.196 136.459 141.196C135.367 141.196 134.513 140.818 133.869 140.062C133.253 139.362 132.945 138.466 132.945 137.388C132.945 136.296 133.253 135.4 133.869 134.686C134.513 133.93 135.367 133.566 136.459 133.566ZM136.459 134.504C135.689 134.504 135.087 134.798 134.667 135.386C134.275 135.918 134.093 136.576 134.093 137.388C134.093 138.186 134.275 138.844 134.667 139.376C135.087 139.964 135.689 140.258 136.459 140.258C137.215 140.258 137.817 139.964 138.265 139.376C138.643 138.844 138.839 138.172 138.839 137.388C138.839 136.576 138.643 135.918 138.265 135.386C137.817 134.798 137.215 134.504 136.459 134.504ZM144.817 133.566C146.609 133.566 147.519 134.56 147.519 136.548V141H146.399V136.632C146.399 135.218 145.755 134.518 144.495 134.518C143.991 134.518 143.557 134.7 143.193 135.064C142.801 135.456 142.591 135.974 142.549 136.632V141H141.429V133.762H142.549V134.826C142.801 134.42 143.123 134.112 143.515 133.902C143.907 133.678 144.341 133.566 144.817 133.566Z" fill="white"/>
<path d="M299 223L582 223" stroke="#606C80" stroke-width="2" stroke-dasharray="2 2"/>
<path d="M299 351L550 351" stroke="#606C80" stroke-width="2" stroke-dasharray="2 2"/>
<path d="M482.714 112.128C483.498 112.31 484.24 112.576 484.954 112.912L484.632 113.71C483.904 113.332 483.148 113.038 482.364 112.814L482.714 112.128ZM482.7 114.186C483.47 114.382 484.212 114.69 484.912 115.096L484.59 115.894C483.862 115.446 483.12 115.11 482.35 114.872L482.7 114.186ZM478.234 112.114C479.046 112.296 479.816 112.562 480.558 112.912L480.236 113.71C479.48 113.318 478.682 113.024 477.87 112.8L478.234 112.114ZM478.206 114.172C478.99 114.368 479.732 114.676 480.46 115.068L480.138 115.866C479.41 115.432 478.64 115.096 477.842 114.858L478.206 114.172ZM477.38 108.922V110.084H485.892V108.922H482.406V108.096H485.892V106.92H482.322V106.066H486.858V110.952H476.414V106.262C478.066 106.178 479.494 105.968 480.67 105.618L481.146 106.402C480.222 106.654 478.976 106.864 477.38 107.032V108.096H480.908V108.922H477.38ZM487.166 118.316C486.872 118.316 486.606 118.19 486.354 117.938C486.046 117.602 485.808 117.14 485.668 116.566C485.472 115.81 485.374 114.158 485.374 111.61H486.34C486.34 114.186 486.424 115.81 486.62 116.482C486.774 117.014 486.942 117.294 487.11 117.322C487.334 117.294 487.53 116.594 487.684 115.222L488.468 115.782C488.23 117.462 487.796 118.316 487.166 118.316ZM476.358 118.344L476.134 117.532C476.33 117.448 476.442 117.28 476.442 117.056V111.624H477.436V117.238C478.192 117.098 478.906 116.902 479.564 116.678L479.732 117.574C478.752 117.868 477.618 118.12 476.358 118.344ZM480.88 118.358L480.656 117.532C480.894 117.448 481.02 117.308 481.02 117.084V111.624H482.014V117.252C482.98 117.07 483.862 116.846 484.674 116.566L484.856 117.448C483.694 117.798 482.364 118.106 480.88 118.358ZM491.674 105.604H492.668V108.25H494.292V109.216H492.668V110.294C493.354 110.994 494.04 111.778 494.726 112.632L494.152 113.486C493.578 112.604 493.088 111.904 492.668 111.372V118.386H491.674V111.414C491.226 112.73 490.652 113.934 489.952 115.026L489.518 113.934C490.526 112.562 491.24 110.98 491.674 109.216H489.966V108.25H491.674V105.604ZM495.804 111.932L496.728 112.142C496.28 114.102 495.622 115.782 494.782 117.21L493.914 116.65C494.782 115.236 495.412 113.668 495.804 111.932ZM500.872 111.862C501.46 113.444 501.964 115.138 502.384 116.93L501.474 117.336C501.012 115.39 500.508 113.668 499.962 112.156L500.872 111.862ZM497.736 118.246H496.308L496.112 117.308C496.56 117.336 496.98 117.364 497.386 117.364C497.764 117.364 497.96 117.154 497.96 116.748V110.77H494.544V109.804H502.398V110.77H498.968V117C498.968 117.826 498.548 118.246 497.736 118.246ZM495.286 106.402H501.67V107.354H495.286V106.402ZM514.928 111.666V118.414H513.934V117.644H508.152V118.414H507.144V112.73C506.262 113.836 505.226 114.76 504.05 115.502L503.518 114.55C505.73 113.122 507.326 111.12 508.306 108.558H503.98V107.592H508.642C508.852 106.92 509.02 106.22 509.16 105.492L510.182 105.618C510.042 106.304 509.888 106.962 509.706 107.592H516.23V108.558H509.398C508.978 109.706 508.488 110.742 507.9 111.666H514.928ZM508.152 116.678H513.934V112.632H508.152V116.678ZM518.358 110.588C518.33 110.658 518.288 110.728 518.26 110.798L517.476 110.294C518.134 108.838 518.61 107.228 518.918 105.464L519.87 105.66C519.758 106.178 519.66 106.668 519.548 107.144H521.676V108.11H519.282C519.086 108.782 518.862 109.398 518.624 109.986H521.634V110.882H520.402V112.604H521.844V113.528H520.402V116.748C520.864 116.496 521.34 116.188 521.816 115.796L521.984 116.664C521.27 117.196 520.444 117.644 519.52 117.994L519.114 117.154C519.366 117.056 519.492 116.916 519.492 116.72V113.528H517.924V112.604H519.492V110.882H518.358V110.588ZM529.6 111.442H527.654V112.52H529.754V113.318H527.654V114.424H530.104V115.264H527.654V116.636H526.744V115.264H524.868V114.424H526.744V113.318H525.218V112.52H526.744V111.442H525.358V110.63H526.744V109.496H524.882V108.684H526.744V107.494H525.358V106.682H526.744V105.646H527.654V106.682H529.6V108.684H530.258V109.496H529.6V111.442ZM527.654 107.494V108.684H528.746V107.494H527.654ZM527.654 109.496V110.63H528.746V109.496H527.654ZM528.242 117.252C529.166 117.252 529.908 117.224 530.454 117.196L530.272 118.162H528.746C526.674 118.134 525.26 117.882 524.532 117.406C524.196 117.196 523.902 116.944 523.65 116.65C523.342 117.294 522.964 117.84 522.53 118.316L521.844 117.644C522.32 117.14 522.726 116.538 523.034 115.838C522.544 115.054 522.152 114.074 521.872 112.898L522.628 112.618C522.81 113.444 523.076 114.172 523.412 114.816C523.692 113.864 523.86 112.772 523.916 111.54H522.25V110.84C522.81 109.888 523.328 108.852 523.776 107.746H522.152V106.878H524.686V107.704C524.21 108.88 523.748 109.874 523.286 110.714H524.728V111.26C524.7 113.01 524.462 114.508 524.028 115.74C524.392 116.188 524.812 116.51 525.26 116.72C525.89 117.028 526.884 117.196 528.242 117.252Z" fill="white"/>
<path d="M193.49 29.004H201.68V29.998H198.152V39H197.018V29.998H193.49V29.004ZM201.99 29.004H203.376L206.554 33.876L209.732 29.004H211.118L207.128 34.94V39H205.98V34.94L201.99 29.004ZM212.197 29.004H216.285C218.581 29.004 219.729 29.984 219.729 31.944C219.729 33.918 218.567 34.912 216.271 34.912H213.345V39H212.197V29.004ZM213.345 29.998V33.918H216.215C217.027 33.918 217.615 33.75 218.007 33.428C218.385 33.106 218.581 32.616 218.581 31.944C218.581 31.272 218.385 30.782 217.993 30.488C217.601 30.152 217.013 29.998 216.215 29.998H213.345ZM221.18 29.004H228.264V29.998H222.328V33.344H227.928V34.338H222.328V38.006H228.502V39H221.18V29.004ZM229.786 34.898H236.856V35.85H229.786V34.898ZM242.883 28.808C243.989 28.808 244.927 29.102 245.683 29.69C246.439 30.278 246.887 31.076 247.027 32.07H245.921C245.781 31.342 245.417 30.782 244.857 30.39C244.311 30.012 243.653 29.83 242.869 29.83C241.707 29.83 240.811 30.236 240.181 31.048C239.593 31.804 239.299 32.798 239.299 34.044C239.299 35.29 239.579 36.284 240.167 37.012C240.783 37.782 241.665 38.174 242.841 38.174C243.639 38.174 244.311 37.964 244.871 37.544C245.459 37.096 245.865 36.438 246.061 35.57H247.167C246.943 36.732 246.425 37.642 245.599 38.286C244.829 38.888 243.905 39.196 242.841 39.196C241.287 39.196 240.097 38.678 239.271 37.656C238.515 36.732 238.151 35.528 238.151 34.044C238.151 32.56 238.529 31.342 239.299 30.39C240.139 29.326 241.343 28.808 242.883 28.808ZM254.734 27.506C254.972 28.01 255.196 28.584 255.42 29.228H260.516V30.166H254.048C253.11 31.664 252.284 32.728 251.584 33.358C253.642 33.246 255.686 33.064 257.73 32.84C257.366 32.35 256.988 31.86 256.582 31.356L257.366 30.866C258.57 32.294 259.494 33.526 260.138 34.59L259.298 35.178C259.004 34.674 258.682 34.17 258.318 33.652C255.84 33.918 253.152 34.128 250.254 34.282L250.016 33.372C250.114 33.344 250.184 33.316 250.24 33.288C250.94 32.896 251.864 31.86 252.998 30.166H248.98V29.228H254.412C254.188 28.668 253.936 28.15 253.656 27.674L254.734 27.506ZM252.326 34.8H253.306C253.208 36.424 252.886 37.6 252.326 38.342C251.71 39.126 250.702 39.812 249.288 40.386L248.658 39.588C249.946 39.112 250.856 38.552 251.402 37.908C251.934 37.264 252.242 36.228 252.326 34.8ZM259.158 40.176H256.974C256.008 40.176 255.532 39.7 255.532 38.748V34.618H256.526V38.58C256.526 39 256.764 39.224 257.254 39.224H258.892C259.158 39.224 259.382 39.154 259.564 39.014C259.788 38.818 259.942 38.132 260.012 36.956L260.936 37.236C260.81 38.65 260.6 39.504 260.32 39.798C260.04 40.036 259.662 40.162 259.158 40.176ZM264.562 33.442V35.542H268.006V33.442H264.562ZM268.006 36.48H264.562V37.67H263.554V29.508H268.006V27.59H269.028V29.508H273.564V36.48H269.028V38.202C269.028 38.888 269.336 39.238 269.952 39.238H273.144C273.494 39.238 273.746 39.154 273.914 39C274.054 38.832 274.152 38.286 274.208 37.334L275.16 37.656C275.076 38.846 274.922 39.574 274.67 39.826C274.418 40.064 273.97 40.19 273.312 40.19H269.714C268.566 40.19 268.006 39.574 268.006 38.356V36.48ZM269.028 35.542H272.57V33.442H269.028V35.542ZM272.57 32.518V30.46H269.028V32.518H272.57ZM268.006 30.46H264.562V32.518H268.006V30.46ZM287.83 29.228V40.176H286.808V39.28H278.688V40.176H277.68V29.228H287.83ZM278.688 38.3H286.808V30.208H278.688V38.3ZM295.236 27.52H296.23L291.274 40.4H290.266L295.236 27.52ZM303.734 27.506C303.972 28.01 304.196 28.584 304.42 29.228H309.516V30.166H303.048C302.11 31.664 301.284 32.728 300.584 33.358C302.642 33.246 304.686 33.064 306.73 32.84C306.366 32.35 305.988 31.86 305.582 31.356L306.366 30.866C307.57 32.294 308.494 33.526 309.138 34.59L308.298 35.178C308.004 34.674 307.682 34.17 307.318 33.652C304.84 33.918 302.152 34.128 299.254 34.282L299.016 33.372C299.114 33.344 299.184 33.316 299.24 33.288C299.94 32.896 300.864 31.86 301.998 30.166H297.98V29.228H303.412C303.188 28.668 302.936 28.15 302.656 27.674L303.734 27.506ZM301.326 34.8H302.306C302.208 36.424 301.886 37.6 301.326 38.342C300.71 39.126 299.702 39.812 298.288 40.386L297.658 39.588C298.946 39.112 299.856 38.552 300.402 37.908C300.934 37.264 301.242 36.228 301.326 34.8ZM308.158 40.176H305.974C305.008 40.176 304.532 39.7 304.532 38.748V34.618H305.526V38.58C305.526 39 305.764 39.224 306.254 39.224H307.892C308.158 39.224 308.382 39.154 308.564 39.014C308.788 38.818 308.942 38.132 309.012 36.956L309.936 37.236C309.81 38.65 309.6 39.504 309.32 39.798C309.04 40.036 308.662 40.162 308.158 40.176ZM313.562 33.442V35.542H317.006V33.442H313.562ZM317.006 36.48H313.562V37.67H312.554V29.508H317.006V27.59H318.028V29.508H322.564V36.48H318.028V38.202C318.028 38.888 318.336 39.238 318.952 39.238H322.144C322.494 39.238 322.746 39.154 322.914 39C323.054 38.832 323.152 38.286 323.208 37.334L324.16 37.656C324.076 38.846 323.922 39.574 323.67 39.826C323.418 40.064 322.97 40.19 322.312 40.19H318.714C317.566 40.19 317.006 39.574 317.006 38.356V36.48ZM318.028 35.542H321.57V33.442H318.028V35.542ZM321.57 32.518V30.46H318.028V32.518H321.57ZM317.006 30.46H313.562V32.518H317.006V30.46ZM331.86 30.46V31.328C331.86 31.664 332.042 31.832 332.406 31.832H335.948C336.256 31.832 336.48 31.762 336.62 31.622C336.788 31.44 336.914 30.908 336.97 30.012L337.894 30.306C337.796 31.482 337.6 32.182 337.32 32.434C337.068 32.658 336.662 32.77 336.13 32.77H332.112C331.3 32.77 330.894 32.35 330.894 31.538V27.646H331.86V29.564C333.554 29.228 335.206 28.724 336.83 28.052L337.39 28.85C335.458 29.578 333.61 30.11 331.86 30.46ZM327.282 40.274H325.798L325.588 39.308C326.064 39.35 326.512 39.378 326.932 39.378C327.296 39.378 327.478 39.168 327.478 38.776V35.43C326.862 35.64 326.232 35.836 325.602 36.004L325.364 34.996C326.078 34.842 326.778 34.646 327.478 34.422V31.216H325.588V30.25H327.478V27.618H328.444V30.25H329.998V31.216H328.444V34.086C329.032 33.848 329.592 33.596 330.152 33.33V34.352C329.592 34.604 329.018 34.856 328.444 35.08V39.028C328.444 39.854 328.052 40.274 327.282 40.274ZM337.39 33.848V40.4H336.382V39.686H332V40.4H331.006V33.848H337.39ZM332 38.79H336.382V37.194H332V38.79ZM332 36.298H336.382V34.73H332V36.298ZM345.006 40.232H343.2L342.99 39.252C343.578 39.28 344.124 39.308 344.656 39.308C345.076 39.308 345.286 39.098 345.286 38.706V32.882H339.784V31.888H351.712V32.882H346.308V38.958C346.308 39.798 345.874 40.232 345.006 40.232ZM341.94 34.422L342.934 34.632C342.346 36.564 341.534 38.23 340.47 39.63L339.588 39.084C340.666 37.684 341.45 36.13 341.94 34.422ZM349.332 34.282C350.284 35.794 351.124 37.39 351.824 39.098L350.9 39.518C350.144 37.656 349.318 36.018 348.422 34.59L349.332 34.282ZM341.072 28.332H350.466V29.312H341.072V28.332ZM353.98 30.054L354.862 30.124C354.806 31.51 354.61 32.84 354.246 34.1L353.392 33.848C353.742 32.644 353.938 31.384 353.98 30.054ZM358.404 29.536L358.978 30.278C358.39 31.09 357.62 31.874 356.668 32.63V32.882C356.654 33.666 356.598 34.394 356.514 35.08C357.284 35.892 358.068 36.83 358.852 37.88L358.264 38.762C357.508 37.6 356.864 36.704 356.346 36.088C355.968 37.894 355.268 39.308 354.232 40.344L353.476 39.686C354.932 38.272 355.66 36.004 355.688 32.882V27.702H356.668V31.566C357.354 30.922 357.928 30.25 358.404 29.536ZM358.95 28.43H366.104V29.396H363.556V39.042C363.556 39.868 363.136 40.288 362.31 40.288H360.378L360.154 39.322C360.784 39.364 361.386 39.392 361.96 39.392C362.352 39.392 362.562 39.182 362.562 38.79V29.396H358.95V28.43Z" fill="white"/>
<path d="M403.752 131.004H408.064C409.058 131.004 409.842 131.228 410.416 131.69C411.004 132.166 411.312 132.866 411.312 133.79C411.312 134.35 411.158 134.84 410.85 135.274C410.514 135.722 410.066 136.002 409.492 136.142V136.17C410.444 136.38 410.976 136.982 411.088 137.99L411.242 139.53C411.298 140.146 411.48 140.636 411.774 141H410.528C410.304 140.664 410.164 140.23 410.122 139.67L409.996 138.34C409.94 137.752 409.73 137.318 409.366 137.066C409.03 136.814 408.554 136.702 407.924 136.702H404.9V141H403.752V131.004ZM404.9 131.998V135.708H407.924C408.652 135.708 409.226 135.526 409.618 135.19C409.968 134.868 410.15 134.42 410.15 133.832C410.15 133.216 409.968 132.754 409.632 132.46C409.268 132.152 408.694 131.998 407.924 131.998H404.9ZM413.997 131.032C414.235 131.032 414.431 131.102 414.599 131.27C414.767 131.41 414.851 131.606 414.851 131.858C414.851 132.096 414.767 132.292 414.599 132.46C414.431 132.614 414.235 132.698 413.997 132.698C413.759 132.698 413.563 132.614 413.395 132.46C413.227 132.292 413.157 132.096 413.157 131.858C413.157 131.606 413.227 131.41 413.395 131.27C413.563 131.102 413.759 131.032 413.997 131.032ZM413.437 133.762H414.557V141H413.437V133.762ZM419.637 133.566C420.729 133.566 421.541 134.042 422.073 135.008V133.762H423.193V140.496C423.193 142.806 422.087 143.968 419.889 143.968C418.909 143.968 418.153 143.772 417.649 143.38C417.131 142.988 416.809 142.4 416.683 141.616H417.803C417.887 142.106 418.097 142.47 418.419 142.694C418.741 142.932 419.231 143.058 419.889 143.058C421.345 143.058 422.073 142.246 422.073 140.65V139.376C421.541 140.342 420.729 140.832 419.637 140.832C418.629 140.832 417.831 140.482 417.243 139.796C416.655 139.124 416.375 138.27 416.375 137.22C416.375 136.156 416.655 135.302 417.243 134.63C417.831 133.916 418.629 133.566 419.637 133.566ZM419.805 134.49C419.077 134.49 418.517 134.742 418.111 135.274C417.719 135.75 417.523 136.408 417.523 137.22C417.523 137.976 417.691 138.606 418.041 139.082C418.433 139.614 419.007 139.894 419.791 139.894C420.519 139.894 421.079 139.642 421.499 139.138C421.891 138.648 422.087 138.004 422.087 137.22C422.087 136.408 421.891 135.75 421.499 135.274C421.079 134.742 420.519 134.49 419.805 134.49ZM424.927 130.808H426.047V134.952C426.299 134.49 426.635 134.14 427.055 133.902C427.447 133.678 427.881 133.566 428.371 133.566C429.211 133.566 429.869 133.804 430.317 134.308C430.765 134.798 430.989 135.512 430.989 136.436V141H429.869V136.604C429.869 135.932 429.701 135.414 429.393 135.05C429.057 134.686 428.595 134.504 427.993 134.504C427.433 134.504 426.971 134.728 426.607 135.176C426.229 135.624 426.047 136.198 426.047 136.87V141H424.927V130.808ZM434.638 131.424V133.762H436.43V134.7H434.638V139.306C434.638 139.572 434.68 139.768 434.792 139.88C434.89 139.992 435.072 140.062 435.324 140.062H436.248V141H435.156C434.568 141 434.134 140.846 433.882 140.538C433.644 140.258 433.532 139.852 433.532 139.306V134.7H432.076V133.762H433.532V131.886L434.638 131.424ZM445.509 133.566C446.615 133.566 447.371 134.014 447.777 134.938C448.057 134.462 448.393 134.112 448.785 133.902C449.135 133.678 449.555 133.566 450.059 133.566C450.815 133.566 451.417 133.804 451.893 134.28C452.341 134.77 452.579 135.428 452.579 136.254V141H451.459V136.436C451.459 135.792 451.319 135.316 451.053 135.008C450.773 134.672 450.325 134.518 449.709 134.518C449.233 134.518 448.827 134.686 448.519 135.05C448.183 135.414 448.029 135.876 448.029 136.464V141H446.909V136.436C446.909 135.148 446.349 134.518 445.243 134.518C444.725 134.518 444.305 134.714 443.969 135.134C443.633 135.526 443.465 136.016 443.465 136.59V141H442.345V133.762H443.465V134.728C444.011 133.944 444.697 133.566 445.509 133.566ZM457.555 133.566C458.633 133.566 459.501 133.93 460.145 134.686C460.761 135.4 461.069 136.296 461.069 137.388C461.069 138.466 460.761 139.362 460.159 140.062C459.501 140.818 458.633 141.196 457.555 141.196C456.463 141.196 455.609 140.818 454.965 140.062C454.349 139.362 454.041 138.466 454.041 137.388C454.041 136.296 454.349 135.4 454.965 134.686C455.609 133.93 456.463 133.566 457.555 133.566ZM457.555 134.504C456.785 134.504 456.183 134.798 455.763 135.386C455.371 135.918 455.189 136.576 455.189 137.388C455.189 138.186 455.371 138.844 455.763 139.376C456.183 139.964 456.785 140.258 457.555 140.258C458.311 140.258 458.913 139.964 459.361 139.376C459.739 138.844 459.935 138.172 459.935 137.388C459.935 136.576 459.739 135.918 459.361 135.386C458.913 134.798 458.311 134.504 457.555 134.504ZM462.524 133.762H463.644V138.186C463.644 138.872 463.784 139.39 464.078 139.726C464.372 140.062 464.848 140.244 465.506 140.244C465.982 140.244 466.416 140.048 466.794 139.684C467.186 139.292 467.424 138.788 467.508 138.172V133.762H468.628V141H467.508V139.88C466.92 140.748 466.136 141.196 465.156 141.196C463.392 141.196 462.524 140.202 462.524 138.242V133.762ZM472.92 133.566C474.712 133.566 475.692 134.308 475.888 135.82H474.796C474.698 135.372 474.516 135.036 474.236 134.84C473.928 134.616 473.48 134.504 472.906 134.504C472.402 134.504 472.01 134.588 471.73 134.784C471.422 134.966 471.268 135.218 471.268 135.54C471.268 135.848 471.464 136.114 471.884 136.324C472.15 136.45 472.654 136.604 473.382 136.8C474.25 137.01 474.866 137.234 475.244 137.472C475.818 137.836 476.112 138.326 476.112 138.956C476.112 140.44 475.09 141.196 473.046 141.196C471.142 141.196 470.106 140.356 469.938 138.69H471.03C471.114 139.264 471.324 139.67 471.632 139.922C471.94 140.146 472.402 140.258 473.018 140.258C474.306 140.258 474.964 139.838 474.964 139.026C474.964 138.62 474.726 138.312 474.278 138.088C474.04 137.976 473.522 137.822 472.738 137.626C471.884 137.416 471.282 137.206 470.946 136.982C470.386 136.646 470.12 136.184 470.12 135.568C470.12 134.952 470.386 134.476 470.932 134.112C471.436 133.748 472.108 133.566 472.92 133.566ZM480.409 133.566C481.571 133.566 482.453 133.958 483.041 134.742C483.573 135.442 483.853 136.436 483.881 137.696H478.169C478.225 138.508 478.435 139.138 478.827 139.586C479.219 140.034 479.765 140.258 480.451 140.258C481.039 140.258 481.529 140.104 481.893 139.81C482.201 139.558 482.439 139.18 482.621 138.676H483.741C483.573 139.376 483.251 139.936 482.761 140.384C482.159 140.916 481.389 141.196 480.451 141.196C479.415 141.196 478.575 140.846 477.959 140.174C477.315 139.474 477.007 138.55 477.007 137.374C477.007 136.31 477.301 135.414 477.917 134.7C478.533 133.944 479.359 133.566 480.409 133.566ZM480.437 134.504C479.793 134.504 479.275 134.714 478.883 135.134C478.491 135.554 478.267 136.114 478.197 136.828H482.719C482.579 135.274 481.809 134.504 480.437 134.504ZM489.854 130.808H490.974V135.092C491.534 134.07 492.332 133.566 493.368 133.566C494.39 133.566 495.202 133.944 495.79 134.728C496.322 135.428 496.602 136.296 496.602 137.36C496.602 138.452 496.322 139.348 495.79 140.048C495.188 140.804 494.362 141.196 493.312 141.196C492.192 141.196 491.394 140.734 490.904 139.81V141H489.854V130.808ZM493.13 134.49C492.472 134.49 491.94 134.742 491.548 135.274C491.128 135.792 490.932 136.478 490.932 137.318V137.458C490.932 138.27 491.114 138.928 491.478 139.432C491.87 139.992 492.444 140.272 493.172 140.272C493.956 140.272 494.544 139.978 494.936 139.418C495.272 138.914 495.454 138.228 495.454 137.36C495.454 136.492 495.272 135.82 494.908 135.33C494.502 134.77 493.914 134.49 493.13 134.49ZM498.057 133.762H499.177V138.186C499.177 138.872 499.317 139.39 499.611 139.726C499.905 140.062 500.381 140.244 501.039 140.244C501.515 140.244 501.949 140.048 502.327 139.684C502.719 139.292 502.957 138.788 503.041 138.172V133.762H504.161V141H503.041V139.88C502.453 140.748 501.669 141.196 500.689 141.196C498.925 141.196 498.057 140.202 498.057 138.242V133.762ZM507.823 131.424V133.762H509.615V134.7H507.823V139.306C507.823 139.572 507.865 139.768 507.977 139.88C508.075 139.992 508.257 140.062 508.509 140.062H509.433V141H508.341C507.753 141 507.319 140.846 507.067 140.538C506.829 140.258 506.717 139.852 506.717 139.306V134.7H505.261V133.762H506.717V131.886L507.823 131.424ZM512.8 131.424V133.762H514.592V134.7H512.8V139.306C512.8 139.572 512.842 139.768 512.954 139.88C513.052 139.992 513.234 140.062 513.486 140.062H514.41V141H513.318C512.73 141 512.296 140.846 512.044 140.538C511.806 140.258 511.694 139.852 511.694 139.306V134.7H510.238V133.762H511.694V131.886L512.8 131.424ZM519.079 133.566C520.157 133.566 521.025 133.93 521.669 134.686C522.285 135.4 522.593 136.296 522.593 137.388C522.593 138.466 522.285 139.362 521.683 140.062C521.025 140.818 520.157 141.196 519.079 141.196C517.987 141.196 517.133 140.818 516.489 140.062C515.873 139.362 515.565 138.466 515.565 137.388C515.565 136.296 515.873 135.4 516.489 134.686C517.133 133.93 517.987 133.566 519.079 133.566ZM519.079 134.504C518.309 134.504 517.707 134.798 517.287 135.386C516.895 135.918 516.713 136.576 516.713 137.388C516.713 138.186 516.895 138.844 517.287 139.376C517.707 139.964 518.309 140.258 519.079 140.258C519.835 140.258 520.437 139.964 520.885 139.376C521.263 138.844 521.459 138.172 521.459 137.388C521.459 136.576 521.263 135.918 520.885 135.386C520.437 134.798 519.835 134.504 519.079 134.504ZM527.436 133.566C529.228 133.566 530.138 134.56 530.138 136.548V141H529.018V136.632C529.018 135.218 528.374 134.518 527.114 134.518C526.61 134.518 526.176 134.7 525.812 135.064C525.42 135.456 525.21 135.974 525.168 136.632V141H524.048V133.762H525.168V134.826C525.42 134.42 525.742 134.112 526.134 133.902C526.526 133.678 526.96 133.566 527.436 133.566Z" fill="white"/>
<path d="M130.299 53.004H138.489V53.998H134.961V63H133.827V53.998H130.299V53.004ZM138.799 55.762H140.017L142.229 61.474L144.371 55.762H145.603L141.641 65.772H140.423L141.669 62.832L138.799 55.762ZM150 55.566C151.036 55.566 151.862 55.944 152.464 56.728C153.01 57.428 153.29 58.31 153.29 59.402C153.29 60.466 153.01 61.348 152.478 62.048C151.89 62.804 151.092 63.196 150.056 63.196C149.02 63.196 148.222 62.692 147.662 61.684V65.772H146.542V55.762H147.592V56.952C148.11 56.028 148.908 55.566 150 55.566ZM149.86 56.49C149.132 56.49 148.558 56.77 148.166 57.344C147.802 57.848 147.62 58.52 147.62 59.332V59.472C147.62 60.312 147.816 60.984 148.236 61.502C148.628 62.006 149.146 62.272 149.818 62.272C150.602 62.272 151.19 61.992 151.596 61.46C151.96 60.956 152.142 60.27 152.142 59.402C152.142 58.548 151.96 57.862 151.624 57.358C151.218 56.77 150.63 56.49 149.86 56.49ZM157.727 55.566C158.889 55.566 159.771 55.958 160.359 56.742C160.891 57.442 161.171 58.436 161.199 59.696H155.487C155.543 60.508 155.753 61.138 156.145 61.586C156.537 62.034 157.083 62.258 157.769 62.258C158.357 62.258 158.847 62.104 159.211 61.81C159.519 61.558 159.757 61.18 159.939 60.676H161.059C160.891 61.376 160.569 61.936 160.079 62.384C159.477 62.916 158.707 63.196 157.769 63.196C156.733 63.196 155.893 62.846 155.277 62.174C154.633 61.474 154.325 60.55 154.325 59.374C154.325 58.31 154.619 57.414 155.235 56.7C155.851 55.944 156.677 55.566 157.727 55.566ZM157.755 56.504C157.111 56.504 156.593 56.714 156.201 57.134C155.809 57.554 155.585 58.114 155.515 58.828H160.037C159.897 57.274 159.127 56.504 157.755 56.504ZM162.343 58.898H169.413V59.85H162.343V58.898ZM175.439 52.808C176.545 52.808 177.483 53.102 178.239 53.69C178.995 54.278 179.443 55.076 179.583 56.07H178.477C178.337 55.342 177.973 54.782 177.413 54.39C176.867 54.012 176.209 53.83 175.425 53.83C174.263 53.83 173.367 54.236 172.737 55.048C172.149 55.804 171.855 56.798 171.855 58.044C171.855 59.29 172.135 60.284 172.723 61.012C173.339 61.782 174.221 62.174 175.397 62.174C176.195 62.174 176.867 61.964 177.427 61.544C178.015 61.096 178.421 60.438 178.617 59.57H179.723C179.499 60.732 178.981 61.642 178.155 62.286C177.385 62.888 176.461 63.196 175.397 63.196C173.843 63.196 172.653 62.678 171.827 61.656C171.071 60.732 170.707 59.528 170.707 58.044C170.707 56.56 171.085 55.342 171.855 54.39C172.695 53.326 173.899 52.808 175.439 52.808ZM188.957 55.566C189.853 55.566 190.567 55.776 191.113 56.196C191.673 56.63 192.009 57.288 192.135 58.17H191.029C190.931 57.61 190.707 57.19 190.357 56.91C189.993 56.63 189.531 56.504 188.957 56.504C188.257 56.504 187.697 56.77 187.291 57.302C186.899 57.82 186.703 58.52 186.703 59.402C186.703 60.284 186.885 60.984 187.277 61.488C187.655 61.992 188.215 62.258 188.943 62.258C190.175 62.258 190.889 61.628 191.057 60.382H192.177C192.009 61.306 191.659 62.02 191.099 62.496C190.553 62.958 189.839 63.196 188.943 63.196C187.851 63.196 187.011 62.832 186.409 62.104C185.835 61.418 185.555 60.522 185.555 59.416C185.555 58.31 185.835 57.414 186.409 56.714C187.025 55.944 187.879 55.566 188.957 55.566ZM193.491 52.808H194.611V56.952C194.863 56.49 195.199 56.14 195.619 55.902C196.011 55.678 196.445 55.566 196.935 55.566C197.775 55.566 198.433 55.804 198.881 56.308C199.329 56.798 199.553 57.512 199.553 58.436V63H198.433V58.604C198.433 57.932 198.265 57.414 197.957 57.05C197.621 56.686 197.159 56.504 196.557 56.504C195.997 56.504 195.535 56.728 195.171 57.176C194.793 57.624 194.611 58.198 194.611 58.87V63H193.491V52.808ZM204.42 55.566C205.456 55.566 206.212 55.832 206.716 56.378C207.136 56.854 207.36 57.512 207.36 58.352V63H206.31V61.782C206.03 62.174 205.652 62.496 205.204 62.748C204.672 63.042 204.07 63.196 203.398 63.196C202.67 63.196 202.096 63.014 201.662 62.65C201.214 62.272 200.99 61.782 200.99 61.194C200.99 60.368 201.312 59.752 201.984 59.332C202.572 58.94 203.412 58.73 204.504 58.716L206.24 58.688V58.31C206.24 57.092 205.61 56.49 204.35 56.49C203.818 56.49 203.384 56.588 203.048 56.812C202.67 57.036 202.432 57.386 202.32 57.848L201.214 57.764C201.368 57.008 201.746 56.434 202.334 56.07C202.866 55.734 203.552 55.566 204.42 55.566ZM206.24 59.528L204.574 59.556C202.95 59.584 202.138 60.116 202.138 61.166C202.138 61.502 202.264 61.768 202.544 61.992C202.824 62.202 203.188 62.314 203.636 62.314C204.322 62.314 204.924 62.09 205.456 61.642C205.974 61.208 206.24 60.704 206.24 60.144V59.528ZM212.269 55.566C212.661 55.566 212.997 55.622 213.263 55.734V56.854C212.899 56.742 212.535 56.7 212.185 56.7C211.625 56.7 211.149 56.938 210.771 57.442C210.379 57.918 210.197 58.492 210.197 59.164V63H209.091V55.762H210.197V57.022C210.393 56.602 210.645 56.266 210.953 56.028C211.331 55.72 211.765 55.566 212.269 55.566ZM217.186 55.566C218.278 55.566 219.09 56.042 219.622 57.008V55.762H220.742V62.496C220.742 64.806 219.636 65.968 217.438 65.968C216.458 65.968 215.702 65.772 215.198 65.38C214.68 64.988 214.358 64.4 214.232 63.616H215.352C215.436 64.106 215.646 64.47 215.968 64.694C216.29 64.932 216.78 65.058 217.438 65.058C218.894 65.058 219.622 64.246 219.622 62.65V61.376C219.09 62.342 218.278 62.832 217.186 62.832C216.178 62.832 215.38 62.482 214.792 61.796C214.204 61.124 213.924 60.27 213.924 59.22C213.924 58.156 214.204 57.302 214.792 56.63C215.38 55.916 216.178 55.566 217.186 55.566ZM217.354 56.49C216.626 56.49 216.066 56.742 215.66 57.274C215.268 57.75 215.072 58.408 215.072 59.22C215.072 59.976 215.24 60.606 215.59 61.082C215.982 61.614 216.556 61.894 217.34 61.894C218.068 61.894 218.628 61.642 219.048 61.138C219.44 60.648 219.636 60.004 219.636 59.22C219.636 58.408 219.44 57.75 219.048 57.274C218.628 56.742 218.068 56.49 217.354 56.49ZM223.399 53.032C223.637 53.032 223.833 53.102 224.001 53.27C224.169 53.41 224.253 53.606 224.253 53.858C224.253 54.096 224.169 54.292 224.001 54.46C223.833 54.614 223.637 54.698 223.399 54.698C223.161 54.698 222.965 54.614 222.797 54.46C222.629 54.292 222.559 54.096 222.559 53.858C222.559 53.606 222.629 53.41 222.797 53.27C222.965 53.102 223.161 53.032 223.399 53.032ZM222.839 55.762H223.959V63H222.839V55.762ZM229.445 55.566C231.237 55.566 232.147 56.56 232.147 58.548V63H231.027V58.632C231.027 57.218 230.383 56.518 229.123 56.518C228.619 56.518 228.185 56.7 227.821 57.064C227.429 57.456 227.219 57.974 227.177 58.632V63H226.057V55.762H227.177V56.826C227.429 56.42 227.751 56.112 228.143 55.902C228.535 55.678 228.969 55.566 229.445 55.566ZM236.86 55.566C237.952 55.566 238.764 56.042 239.296 57.008V55.762H240.416V62.496C240.416 64.806 239.31 65.968 237.112 65.968C236.132 65.968 235.376 65.772 234.872 65.38C234.354 64.988 234.032 64.4 233.906 63.616H235.026C235.11 64.106 235.32 64.47 235.642 64.694C235.964 64.932 236.454 65.058 237.112 65.058C238.568 65.058 239.296 64.246 239.296 62.65V61.376C238.764 62.342 237.952 62.832 236.86 62.832C235.852 62.832 235.054 62.482 234.466 61.796C233.878 61.124 233.598 60.27 233.598 59.22C233.598 58.156 233.878 57.302 234.466 56.63C235.054 55.916 235.852 55.566 236.86 55.566ZM237.028 56.49C236.3 56.49 235.74 56.742 235.334 57.274C234.942 57.75 234.746 58.408 234.746 59.22C234.746 59.976 234.914 60.606 235.264 61.082C235.656 61.614 236.23 61.894 237.014 61.894C237.742 61.894 238.302 61.642 238.722 61.138C239.114 60.648 239.31 60.004 239.31 59.22C239.31 58.408 239.114 57.75 238.722 57.274C238.302 56.742 237.742 56.49 237.028 56.49ZM250.269 55.566C251.305 55.566 252.131 55.944 252.733 56.728C253.279 57.428 253.559 58.31 253.559 59.402C253.559 60.466 253.279 61.348 252.747 62.048C252.159 62.804 251.361 63.196 250.325 63.196C249.289 63.196 248.491 62.692 247.931 61.684V65.772H246.811V55.762H247.861V56.952C248.379 56.028 249.177 55.566 250.269 55.566ZM250.129 56.49C249.401 56.49 248.827 56.77 248.435 57.344C248.071 57.848 247.889 58.52 247.889 59.332V59.472C247.889 60.312 248.085 60.984 248.505 61.502C248.897 62.006 249.415 62.272 250.087 62.272C250.871 62.272 251.459 61.992 251.865 61.46C252.229 60.956 252.411 60.27 252.411 59.402C252.411 58.548 252.229 57.862 251.893 57.358C251.487 56.77 250.899 56.49 250.129 56.49ZM258.248 55.566C259.326 55.566 260.194 55.93 260.838 56.686C261.454 57.4 261.762 58.296 261.762 59.388C261.762 60.466 261.454 61.362 260.852 62.062C260.194 62.818 259.326 63.196 258.248 63.196C257.156 63.196 256.302 62.818 255.658 62.062C255.042 61.362 254.734 60.466 254.734 59.388C254.734 58.296 255.042 57.4 255.658 56.686C256.302 55.93 257.156 55.566 258.248 55.566ZM258.248 56.504C257.478 56.504 256.876 56.798 256.456 57.386C256.064 57.918 255.882 58.576 255.882 59.388C255.882 60.186 256.064 60.844 256.456 61.376C256.876 61.964 257.478 62.258 258.248 62.258C259.004 62.258 259.606 61.964 260.054 61.376C260.432 60.844 260.628 60.172 260.628 59.388C260.628 58.576 260.432 57.918 260.054 57.386C259.606 56.798 259.004 56.504 258.248 56.504ZM266.396 55.566C266.788 55.566 267.124 55.622 267.39 55.734V56.854C267.026 56.742 266.662 56.7 266.312 56.7C265.752 56.7 265.276 56.938 264.898 57.442C264.506 57.918 264.324 58.492 264.324 59.164V63H263.218V55.762H264.324V57.022C264.52 56.602 264.772 56.266 265.08 56.028C265.458 55.72 265.892 55.566 266.396 55.566ZM270.263 53.424V55.762H272.055V56.7H270.263V61.306C270.263 61.572 270.305 61.768 270.417 61.88C270.515 61.992 270.697 62.062 270.949 62.062H271.873V63H270.781C270.193 63 269.759 62.846 269.507 62.538C269.269 62.258 269.157 61.852 269.157 61.306V56.7H267.701V55.762H269.157V53.886L270.263 53.424ZM277.927 51.52H278.921L273.965 64.4H272.957L277.927 51.52ZM283.429 55.566C284.325 55.566 285.039 55.776 285.585 56.196C286.145 56.63 286.481 57.288 286.607 58.17H285.501C285.403 57.61 285.179 57.19 284.829 56.91C284.465 56.63 284.003 56.504 283.429 56.504C282.729 56.504 282.169 56.77 281.763 57.302C281.371 57.82 281.175 58.52 281.175 59.402C281.175 60.284 281.357 60.984 281.749 61.488C282.127 61.992 282.687 62.258 283.415 62.258C284.647 62.258 285.361 61.628 285.529 60.382H286.649C286.481 61.306 286.131 62.02 285.571 62.496C285.025 62.958 284.311 63.196 283.415 63.196C282.323 63.196 281.483 62.832 280.881 62.104C280.307 61.418 280.027 60.522 280.027 59.416C280.027 58.31 280.307 57.414 280.881 56.714C281.497 55.944 282.351 55.566 283.429 55.566ZM287.964 52.808H289.084V56.952C289.336 56.49 289.672 56.14 290.092 55.902C290.484 55.678 290.918 55.566 291.408 55.566C292.248 55.566 292.906 55.804 293.354 56.308C293.802 56.798 294.026 57.512 294.026 58.436V63H292.906V58.604C292.906 57.932 292.738 57.414 292.43 57.05C292.094 56.686 291.632 56.504 291.03 56.504C290.47 56.504 290.008 56.728 289.644 57.176C289.266 57.624 289.084 58.198 289.084 58.87V63H287.964V52.808ZM298.893 55.566C299.929 55.566 300.685 55.832 301.189 56.378C301.609 56.854 301.833 57.512 301.833 58.352V63H300.783V61.782C300.503 62.174 300.125 62.496 299.677 62.748C299.145 63.042 298.543 63.196 297.871 63.196C297.143 63.196 296.569 63.014 296.135 62.65C295.687 62.272 295.463 61.782 295.463 61.194C295.463 60.368 295.785 59.752 296.457 59.332C297.045 58.94 297.885 58.73 298.977 58.716L300.713 58.688V58.31C300.713 57.092 300.083 56.49 298.823 56.49C298.291 56.49 297.857 56.588 297.521 56.812C297.143 57.036 296.905 57.386 296.793 57.848L295.687 57.764C295.841 57.008 296.219 56.434 296.807 56.07C297.339 55.734 298.025 55.566 298.893 55.566ZM300.713 59.528L299.047 59.556C297.423 59.584 296.611 60.116 296.611 61.166C296.611 61.502 296.737 61.768 297.017 61.992C297.297 62.202 297.661 62.314 298.109 62.314C298.795 62.314 299.397 62.09 299.929 61.642C300.447 61.208 300.713 60.704 300.713 60.144V59.528ZM306.741 55.566C307.133 55.566 307.469 55.622 307.735 55.734V56.854C307.371 56.742 307.007 56.7 306.657 56.7C306.097 56.7 305.621 56.938 305.243 57.442C304.851 57.918 304.669 58.492 304.669 59.164V63H303.563V55.762H304.669V57.022C304.865 56.602 305.117 56.266 305.425 56.028C305.803 55.72 306.237 55.566 306.741 55.566ZM311.659 55.566C312.751 55.566 313.563 56.042 314.095 57.008V55.762H315.215V62.496C315.215 64.806 314.109 65.968 311.911 65.968C310.931 65.968 310.175 65.772 309.671 65.38C309.153 64.988 308.831 64.4 308.705 63.616H309.825C309.909 64.106 310.119 64.47 310.441 64.694C310.763 64.932 311.253 65.058 311.911 65.058C313.367 65.058 314.095 64.246 314.095 62.65V61.376C313.563 62.342 312.751 62.832 311.659 62.832C310.651 62.832 309.853 62.482 309.265 61.796C308.677 61.124 308.397 60.27 308.397 59.22C308.397 58.156 308.677 57.302 309.265 56.63C309.853 55.916 310.651 55.566 311.659 55.566ZM311.827 56.49C311.099 56.49 310.539 56.742 310.133 57.274C309.741 57.75 309.545 58.408 309.545 59.22C309.545 59.976 309.713 60.606 310.063 61.082C310.455 61.614 311.029 61.894 311.813 61.894C312.541 61.894 313.101 61.642 313.521 61.138C313.913 60.648 314.109 60.004 314.109 59.22C314.109 58.408 313.913 57.75 313.521 57.274C313.101 56.742 312.541 56.49 311.827 56.49ZM317.872 53.032C318.11 53.032 318.306 53.102 318.474 53.27C318.642 53.41 318.726 53.606 318.726 53.858C318.726 54.096 318.642 54.292 318.474 54.46C318.306 54.614 318.11 54.698 317.872 54.698C317.634 54.698 317.438 54.614 317.27 54.46C317.102 54.292 317.032 54.096 317.032 53.858C317.032 53.606 317.102 53.41 317.27 53.27C317.438 53.102 317.634 53.032 317.872 53.032ZM317.312 55.762H318.432V63H317.312V55.762ZM323.918 55.566C325.71 55.566 326.62 56.56 326.62 58.548V63H325.5V58.632C325.5 57.218 324.856 56.518 323.596 56.518C323.092 56.518 322.658 56.7 322.294 57.064C321.902 57.456 321.692 57.974 321.65 58.632V63H320.53V55.762H321.65V56.826C321.902 56.42 322.224 56.112 322.616 55.902C323.008 55.678 323.442 55.566 323.918 55.566ZM331.332 55.566C332.424 55.566 333.236 56.042 333.768 57.008V55.762H334.888V62.496C334.888 64.806 333.782 65.968 331.584 65.968C330.604 65.968 329.848 65.772 329.344 65.38C328.826 64.988 328.504 64.4 328.378 63.616H329.498C329.582 64.106 329.792 64.47 330.114 64.694C330.436 64.932 330.926 65.058 331.584 65.058C333.04 65.058 333.768 64.246 333.768 62.65V61.376C333.236 62.342 332.424 62.832 331.332 62.832C330.324 62.832 329.526 62.482 328.938 61.796C328.35 61.124 328.07 60.27 328.07 59.22C328.07 58.156 328.35 57.302 328.938 56.63C329.526 55.916 330.324 55.566 331.332 55.566ZM331.5 56.49C330.772 56.49 330.212 56.742 329.806 57.274C329.414 57.75 329.218 58.408 329.218 59.22C329.218 59.976 329.386 60.606 329.736 61.082C330.128 61.614 330.702 61.894 331.486 61.894C332.214 61.894 332.774 61.642 333.194 61.138C333.586 60.648 333.782 60.004 333.782 59.22C333.782 58.408 333.586 57.75 333.194 57.274C332.774 56.742 332.214 56.49 331.5 56.49ZM342.208 53.032C342.446 53.032 342.642 53.102 342.81 53.27C342.978 53.41 343.062 53.606 343.062 53.858C343.062 54.096 342.978 54.292 342.81 54.46C342.642 54.614 342.446 54.698 342.208 54.698C341.97 54.698 341.774 54.614 341.606 54.46C341.438 54.292 341.368 54.096 341.368 53.858C341.368 53.606 341.438 53.41 341.606 53.27C341.774 53.102 341.97 53.032 342.208 53.032ZM341.648 55.762H342.768V63H341.648V55.762ZM348.254 55.566C350.046 55.566 350.956 56.56 350.956 58.548V63H349.836V58.632C349.836 57.218 349.192 56.518 347.932 56.518C347.428 56.518 346.994 56.7 346.63 57.064C346.238 57.456 346.028 57.974 345.986 58.632V63H344.866V55.762H345.986V56.826C346.238 56.42 346.56 56.112 346.952 55.902C347.344 55.678 347.778 55.566 348.254 55.566ZM358.034 52.808H359.154V63H358.104V61.81C357.6 62.734 356.788 63.196 355.696 63.196C354.632 63.196 353.806 62.804 353.218 62.048C352.672 61.348 352.406 60.452 352.406 59.36C352.406 58.296 352.672 57.428 353.218 56.728C353.806 55.944 354.604 55.566 355.64 55.566C356.676 55.566 357.474 56.07 358.034 57.092V52.808ZM355.878 56.49C355.08 56.49 354.478 56.77 354.086 57.33C353.722 57.82 353.554 58.492 353.554 59.36C353.554 60.228 353.722 60.914 354.072 61.418C354.464 61.978 355.052 62.272 355.836 62.272C356.564 62.272 357.124 61.992 357.53 61.432C357.88 60.928 358.062 60.27 358.062 59.458V59.318C358.062 58.478 357.852 57.792 357.46 57.274C357.054 56.742 356.522 56.49 355.878 56.49ZM361.813 53.032C362.051 53.032 362.247 53.102 362.415 53.27C362.583 53.41 362.667 53.606 362.667 53.858C362.667 54.096 362.583 54.292 362.415 54.46C362.247 54.614 362.051 54.698 361.813 54.698C361.575 54.698 361.379 54.614 361.211 54.46C361.043 54.292 360.973 54.096 360.973 53.858C360.973 53.606 361.043 53.41 361.211 53.27C361.379 53.102 361.575 53.032 361.813 53.032ZM361.253 55.762H362.373V63H361.253V55.762ZM367.594 55.566C368.49 55.566 369.204 55.776 369.75 56.196C370.31 56.63 370.646 57.288 370.772 58.17H369.666C369.568 57.61 369.344 57.19 368.994 56.91C368.63 56.63 368.168 56.504 367.594 56.504C366.894 56.504 366.334 56.77 365.928 57.302C365.536 57.82 365.34 58.52 365.34 59.402C365.34 60.284 365.522 60.984 365.914 61.488C366.292 61.992 366.852 62.258 367.58 62.258C368.812 62.258 369.526 61.628 369.694 60.382H370.814C370.646 61.306 370.296 62.02 369.736 62.496C369.19 62.958 368.476 63.196 367.58 63.196C366.488 63.196 365.648 62.832 365.046 62.104C364.472 61.418 364.192 60.522 364.192 59.416C364.192 58.31 364.472 57.414 365.046 56.714C365.662 55.944 366.516 55.566 367.594 55.566ZM375.278 55.566C376.314 55.566 377.07 55.832 377.574 56.378C377.994 56.854 378.218 57.512 378.218 58.352V63H377.168V61.782C376.888 62.174 376.51 62.496 376.062 62.748C375.53 63.042 374.928 63.196 374.256 63.196C373.528 63.196 372.954 63.014 372.52 62.65C372.072 62.272 371.848 61.782 371.848 61.194C371.848 60.368 372.17 59.752 372.842 59.332C373.43 58.94 374.27 58.73 375.362 58.716L377.098 58.688V58.31C377.098 57.092 376.468 56.49 375.208 56.49C374.676 56.49 374.242 56.588 373.906 56.812C373.528 57.036 373.29 57.386 373.178 57.848L372.072 57.764C372.226 57.008 372.604 56.434 373.192 56.07C373.724 55.734 374.41 55.566 375.278 55.566ZM377.098 59.528L375.432 59.556C373.808 59.584 372.996 60.116 372.996 61.166C372.996 61.502 373.122 61.768 373.402 61.992C373.682 62.202 374.046 62.314 374.494 62.314C375.18 62.314 375.782 62.09 376.314 61.642C376.832 61.208 377.098 60.704 377.098 60.144V59.528ZM381.88 53.424V55.762H383.672V56.7H381.88V61.306C381.88 61.572 381.922 61.768 382.034 61.88C382.132 61.992 382.314 62.062 382.566 62.062H383.49V63H382.398C381.81 63 381.376 62.846 381.124 62.538C380.886 62.258 380.774 61.852 380.774 61.306V56.7H379.318V55.762H380.774V53.886L381.88 53.424ZM388.159 55.566C389.237 55.566 390.105 55.93 390.749 56.686C391.365 57.4 391.673 58.296 391.673 59.388C391.673 60.466 391.365 61.362 390.763 62.062C390.105 62.818 389.237 63.196 388.159 63.196C387.067 63.196 386.213 62.818 385.569 62.062C384.953 61.362 384.645 60.466 384.645 59.388C384.645 58.296 384.953 57.4 385.569 56.686C386.213 55.93 387.067 55.566 388.159 55.566ZM388.159 56.504C387.389 56.504 386.787 56.798 386.367 57.386C385.975 57.918 385.793 58.576 385.793 59.388C385.793 60.186 385.975 60.844 386.367 61.376C386.787 61.964 387.389 62.258 388.159 62.258C388.915 62.258 389.517 61.964 389.965 61.376C390.343 60.844 390.539 60.172 390.539 59.388C390.539 58.576 390.343 57.918 389.965 57.386C389.517 56.798 388.915 56.504 388.159 56.504ZM396.306 55.566C396.698 55.566 397.034 55.622 397.3 55.734V56.854C396.936 56.742 396.572 56.7 396.222 56.7C395.662 56.7 395.186 56.938 394.808 57.442C394.416 57.918 394.234 58.492 394.234 59.164V63H393.128V55.762H394.234V57.022C394.43 56.602 394.682 56.266 394.99 56.028C395.368 55.72 395.802 55.566 396.306 55.566ZM403.127 52.808H404.233V63H403.127V52.808ZM407.122 53.032C407.36 53.032 407.556 53.102 407.724 53.27C407.892 53.41 407.976 53.606 407.976 53.858C407.976 54.096 407.892 54.292 407.724 54.46C407.556 54.614 407.36 54.698 407.122 54.698C406.884 54.698 406.688 54.614 406.52 54.46C406.352 54.292 406.282 54.096 406.282 53.858C406.282 53.606 406.352 53.41 406.52 53.27C406.688 53.102 406.884 53.032 407.122 53.032ZM406.562 55.762H407.682V63H406.562V55.762ZM412.762 55.566C413.854 55.566 414.666 56.042 415.198 57.008V55.762H416.318V62.496C416.318 64.806 415.212 65.968 413.014 65.968C412.034 65.968 411.278 65.772 410.774 65.38C410.256 64.988 409.934 64.4 409.808 63.616H410.928C411.012 64.106 411.222 64.47 411.544 64.694C411.866 64.932 412.356 65.058 413.014 65.058C414.47 65.058 415.198 64.246 415.198 62.65V61.376C414.666 62.342 413.854 62.832 412.762 62.832C411.754 62.832 410.956 62.482 410.368 61.796C409.78 61.124 409.5 60.27 409.5 59.22C409.5 58.156 409.78 57.302 410.368 56.63C410.956 55.916 411.754 55.566 412.762 55.566ZM412.93 56.49C412.202 56.49 411.642 56.742 411.236 57.274C410.844 57.75 410.648 58.408 410.648 59.22C410.648 59.976 410.816 60.606 411.166 61.082C411.558 61.614 412.132 61.894 412.916 61.894C413.644 61.894 414.204 61.642 414.624 61.138C415.016 60.648 415.212 60.004 415.212 59.22C415.212 58.408 415.016 57.75 414.624 57.274C414.204 56.742 413.644 56.49 412.93 56.49ZM418.052 52.808H419.172V56.952C419.424 56.49 419.76 56.14 420.18 55.902C420.572 55.678 421.006 55.566 421.496 55.566C422.336 55.566 422.994 55.804 423.442 56.308C423.89 56.798 424.114 57.512 424.114 58.436V63H422.994V58.604C422.994 57.932 422.826 57.414 422.518 57.05C422.182 56.686 421.72 56.504 421.118 56.504C420.558 56.504 420.096 56.728 419.732 57.176C419.354 57.624 419.172 58.198 419.172 58.87V63H418.052V52.808ZM427.763 53.424V55.762H429.555V56.7H427.763V61.306C427.763 61.572 427.805 61.768 427.917 61.88C428.015 61.992 428.197 62.062 428.449 62.062H429.373V63H428.281C427.693 63 427.259 62.846 427.007 62.538C426.769 62.258 426.657 61.852 426.657 61.306V56.7H425.201V55.762H426.657V53.886L427.763 53.424Z" fill="white"/>
<path d="M535.808 172.152C536.896 172.936 537.824 173.72 538.576 174.488L537.792 175.288C537.12 174.536 536.192 173.736 535.008 172.904L535.808 172.152ZM535.568 175.96C536.656 176.792 537.584 177.608 538.336 178.424L537.536 179.208C536.864 178.44 535.952 177.608 534.768 176.712L535.568 175.96ZM543.872 179.96H543.792C543.36 180.76 542.816 181.512 542.16 182.184V185.176C542.992 184.92 543.792 184.632 544.528 184.312L544.72 185.304C543.664 185.72 542.416 186.104 540.96 186.472L540.72 185.528C541.008 185.4 541.168 185.208 541.168 184.952V183.096C540.448 183.672 539.648 184.184 538.752 184.648L538.176 183.72C540.224 182.76 541.728 181.544 542.656 180.072C541.776 180.152 540.88 180.216 539.968 180.28L539.744 179.336C539.872 179.304 540.016 179.256 540.144 179.224C540.944 178.776 542 177.688 543.328 175.928L544.32 176.328C543.28 177.64 542.368 178.632 541.584 179.304C543.024 179.176 544.416 179.016 545.776 178.84C545.392 178.36 544.96 177.864 544.496 177.368L545.296 176.888C546.432 178.104 547.312 179.16 547.92 180.056L547.104 180.632C546.896 180.312 546.672 179.976 546.416 179.64C545.872 179.72 545.344 179.784 544.832 179.848C545.04 180.824 545.408 181.704 545.936 182.488C546.64 182.072 547.328 181.48 547.984 180.728L548.736 181.464C548.064 182.232 547.328 182.824 546.512 183.24C547.264 184.136 548.24 184.904 549.424 185.544L548.816 186.52C546.096 184.936 544.448 182.744 543.872 179.96ZM537.456 180.12L538.464 180.52C537.728 182.616 536.928 184.584 536.048 186.424L534.928 185.944C535.904 184.04 536.752 182.104 537.456 180.12ZM539.216 173.208H543.408C543.2 172.76 542.976 172.344 542.736 171.96L543.904 171.768C544.128 172.2 544.336 172.68 544.544 173.208H548.56V174.264H539.216V173.208ZM545.552 174.312C546.864 175.304 547.984 176.28 548.88 177.272L548.112 178.04C547.312 177.096 546.208 176.088 544.816 175.016L545.552 174.312ZM541.808 174.36L542.56 175.032C541.696 176.184 540.624 177.176 539.344 178.04L538.688 177.176C539.904 176.376 540.944 175.448 541.808 174.36ZM553.984 176.328H555.104V178.76H556.896V179.8H555.104V181.976C555.888 181.816 556.624 181.656 557.328 181.48V182.568C556.608 182.76 555.872 182.936 555.104 183.096V186.584H553.984V183.304C552.992 183.464 551.952 183.624 550.864 183.768L550.72 182.648C551.872 182.52 552.96 182.36 553.984 182.184V179.8H551.296L551.056 178.776C551.504 177.816 551.936 176.616 552.32 175.144H550.736V174.024H552.608C552.768 173.352 552.912 172.632 553.056 171.896L554.144 172.072C554 172.76 553.856 173.416 553.712 174.024H556.96V175.144H553.44C553.056 176.52 552.656 177.72 552.224 178.76H553.984V176.328ZM560.416 171.976H561.44C562.208 173.928 563.536 175.64 565.424 177.112L564.768 178.088C563.056 176.744 561.776 175.064 560.928 173.064C559.888 175.256 558.576 176.936 556.992 178.12L556.368 177.16C558.112 175.832 559.456 174.104 560.416 171.976ZM562.896 186.36H559.936C558.912 186.36 558.4 185.8 558.4 184.68V177.832H559.52V180.632C560.8 180.072 562.048 179.304 563.264 178.312L563.952 179.256C562.4 180.376 560.928 181.208 559.52 181.768V184.456C559.52 185.016 559.76 185.304 560.272 185.304H562.672C563.072 185.304 563.344 185.176 563.504 184.952C563.728 184.664 563.872 183.832 563.952 182.456L565.008 182.808C564.896 184.488 564.656 185.512 564.304 185.88C564.016 186.2 563.536 186.36 562.896 186.36ZM567.552 177.672C567.52 177.752 567.472 177.832 567.44 177.912L566.544 177.336C567.296 175.672 567.84 173.832 568.192 171.816L569.28 172.04C569.152 172.632 569.04 173.192 568.912 173.736H571.344V174.84H568.608C568.384 175.608 568.128 176.312 567.856 176.984H571.296V178.008H569.888V179.976H571.536V181.032H569.888V184.712C570.416 184.424 570.96 184.072 571.504 183.624L571.696 184.616C570.88 185.224 569.936 185.736 568.88 186.136L568.416 185.176C568.704 185.064 568.848 184.904 568.848 184.68V181.032H567.056V179.976H568.848V178.008H567.552V177.672ZM580.4 178.648H578.176V179.88H580.576V180.792H578.176V182.056H580.976V183.016H578.176V184.584H577.136V183.016H574.992V182.056H577.136V180.792H575.392V179.88H577.136V178.648H575.552V177.72H577.136V176.424H575.008V175.496H577.136V174.136H575.552V173.208H577.136V172.024H578.176V173.208H580.4V175.496H581.152V176.424H580.4V178.648ZM578.176 174.136V175.496H579.424V174.136H578.176ZM578.176 176.424V177.72H579.424V176.424H578.176ZM578.848 185.288C579.904 185.288 580.752 185.256 581.376 185.224L581.168 186.328H579.424C577.056 186.296 575.44 186.008 574.608 185.464C574.224 185.224 573.888 184.936 573.6 184.6C573.248 185.336 572.816 185.96 572.32 186.504L571.536 185.736C572.08 185.16 572.544 184.472 572.896 183.672C572.336 182.776 571.888 181.656 571.568 180.312L572.432 179.992C572.64 180.936 572.944 181.768 573.328 182.504C573.648 181.416 573.84 180.168 573.904 178.76H572V177.96C572.64 176.872 573.232 175.688 573.744 174.424H571.888V173.432H574.784V174.376C574.24 175.72 573.712 176.856 573.184 177.816H574.832V178.44C574.8 180.44 574.528 182.152 574.032 183.56C574.448 184.072 574.928 184.44 575.44 184.68C576.16 185.032 577.296 185.224 578.848 185.288Z" fill="white"/>
<path d="M523.496 301.576H525.016L529.512 313H528.088L526.872 309.8H521.624L520.408 313H519L523.496 301.576ZM522.04 308.696H526.456L524.296 302.984H524.232L522.04 308.696ZM530.764 301.576H532.06V313H530.764V301.576ZM534.865 305.672C534.833 305.752 534.785 305.832 534.753 305.912L533.857 305.336C534.609 303.672 535.153 301.832 535.505 299.816L536.593 300.04C536.465 300.632 536.353 301.192 536.225 301.736H538.657V302.84H535.921C535.697 303.608 535.441 304.312 535.169 304.984H538.609V306.008H537.201V307.976H538.849V309.032H537.201V312.712C537.729 312.424 538.273 312.072 538.817 311.624L539.009 312.616C538.193 313.224 537.249 313.736 536.193 314.136L535.729 313.176C536.017 313.064 536.161 312.904 536.161 312.68V309.032H534.368V307.976H536.161V306.008H534.865V305.672ZM547.713 306.648H545.489V307.88H547.889V308.792H545.489V310.056H548.289V311.016H545.489V312.584H544.449V311.016H542.305V310.056H544.449V308.792H542.705V307.88H544.449V306.648H542.865V305.72H544.449V304.424H542.321V303.496H544.449V302.136H542.865V301.208H544.449V300.024H545.489V301.208H547.713V303.496H548.465V304.424H547.713V306.648ZM545.489 302.136V303.496H546.737V302.136H545.489ZM545.489 304.424V305.72H546.737V304.424H545.489ZM546.161 313.288C547.217 313.288 548.065 313.256 548.689 313.224L548.481 314.328H546.737C544.369 314.296 542.753 314.008 541.921 313.464C541.536 313.224 541.201 312.936 540.913 312.6C540.561 313.336 540.129 313.96 539.633 314.504L538.849 313.736C539.393 313.16 539.857 312.472 540.209 311.672C539.649 310.776 539.201 309.656 538.881 308.312L539.745 307.992C539.953 308.936 540.257 309.768 540.641 310.504C540.961 309.416 541.153 308.168 541.217 306.76H539.313V305.96C539.953 304.872 540.545 303.688 541.057 302.424H539.201V301.432H542.097V302.376C541.553 303.72 541.025 304.856 540.497 305.816H542.145V306.44C542.113 308.44 541.841 310.152 541.345 311.56C541.76 312.072 542.241 312.44 542.753 312.68C543.473 313.032 544.609 313.224 546.161 313.288Z" fill="white"/>
<path d="M443.992 197.352C445.272 197.352 446.296 197.64 447.032 198.232C447.8 198.84 448.232 199.752 448.344 200.952H447.048C446.904 200.12 446.584 199.512 446.088 199.112C445.576 198.696 444.856 198.504 443.928 198.504C443.08 198.504 442.424 198.632 441.944 198.92C441.4 199.24 441.128 199.72 441.128 200.376C441.128 200.952 441.448 201.416 442.104 201.768C442.392 201.928 443.096 202.168 444.2 202.488C445.704 202.936 446.696 203.304 447.176 203.592C448.12 204.168 448.6 204.968 448.6 206.008C448.6 207 448.2 207.8 447.4 208.376C446.6 208.936 445.528 209.224 444.168 209.224C442.824 209.224 441.768 208.936 441 208.36C440.104 207.672 439.608 206.632 439.512 205.224H440.808C440.92 206.216 441.272 206.952 441.848 207.416C442.376 207.832 443.144 208.056 444.168 208.056C445.096 208.056 445.864 207.88 446.44 207.528C447.016 207.176 447.304 206.696 447.304 206.088C447.304 205.368 446.92 204.808 446.168 204.408C445.848 204.216 445.032 203.944 443.752 203.576C442.376 203.16 441.496 202.84 441.128 202.648C440.248 202.136 439.816 201.4 439.816 200.44C439.816 199.448 440.232 198.664 441.08 198.12C441.832 197.608 442.808 197.352 443.992 197.352ZM453.669 200.504C454.693 200.504 455.509 200.744 456.133 201.224C456.773 201.72 457.157 202.472 457.301 203.48H456.037C455.925 202.84 455.669 202.36 455.269 202.04C454.853 201.72 454.325 201.576 453.669 201.576C452.869 201.576 452.229 201.88 451.765 202.488C451.317 203.08 451.093 203.88 451.093 204.888C451.093 205.896 451.301 206.696 451.749 207.272C452.181 207.848 452.821 208.152 453.653 208.152C455.061 208.152 455.877 207.432 456.069 206.008H457.349C457.157 207.064 456.757 207.88 456.117 208.424C455.493 208.952 454.677 209.224 453.653 209.224C452.405 209.224 451.445 208.808 450.757 207.976C450.101 207.192 449.781 206.168 449.781 204.904C449.781 203.64 450.101 202.616 450.757 201.816C451.461 200.936 452.437 200.504 453.669 200.504ZM462.483 200.504C462.931 200.504 463.315 200.568 463.619 200.696V201.976C463.203 201.848 462.787 201.8 462.387 201.8C461.747 201.8 461.203 202.072 460.771 202.648C460.323 203.192 460.115 203.848 460.115 204.616V209H458.851V200.728H460.115V202.168C460.339 201.688 460.627 201.304 460.979 201.032C461.411 200.68 461.907 200.504 462.483 200.504ZM468.391 200.504C469.623 200.504 470.615 200.92 471.351 201.784C472.055 202.6 472.407 203.624 472.407 204.872C472.407 206.104 472.055 207.128 471.367 207.928C470.615 208.792 469.623 209.224 468.391 209.224C467.143 209.224 466.167 208.792 465.431 207.928C464.727 207.128 464.375 206.104 464.375 204.872C464.375 203.624 464.727 202.6 465.431 201.784C466.167 200.92 467.143 200.504 468.391 200.504ZM468.391 201.576C467.511 201.576 466.823 201.912 466.343 202.584C465.895 203.192 465.687 203.944 465.687 204.872C465.687 205.784 465.895 206.536 466.343 207.144C466.823 207.816 467.511 208.152 468.391 208.152C469.255 208.152 469.943 207.816 470.455 207.144C470.887 206.536 471.111 205.768 471.111 204.872C471.111 203.944 470.887 203.192 470.455 202.584C469.943 201.912 469.255 201.576 468.391 201.576ZM474.326 197.352H475.59V209H474.326V197.352ZM478.092 197.352H479.356V209H478.092V197.352ZM486.018 200.728H487.426L489.458 207.432L491.378 200.728H492.578L494.498 207.432L496.53 200.728H497.938L495.122 209H493.906L491.986 202.344L490.034 209H488.834L486.018 200.728ZM499.008 197.352H500.288V202.088C500.576 201.56 500.96 201.16 501.44 200.888C501.888 200.632 502.384 200.504 502.944 200.504C503.904 200.504 504.656 200.776 505.168 201.352C505.68 201.912 505.936 202.728 505.936 203.784V209H504.656V203.976C504.656 203.208 504.464 202.616 504.112 202.2C503.728 201.784 503.2 201.576 502.512 201.576C501.872 201.576 501.344 201.832 500.928 202.344C500.496 202.856 500.288 203.512 500.288 204.28V209H499.008V197.352ZM511.306 200.504C512.634 200.504 513.642 200.952 514.314 201.848C514.922 202.648 515.242 203.784 515.274 205.224H508.746C508.81 206.152 509.05 206.872 509.498 207.384C509.946 207.896 510.57 208.152 511.354 208.152C512.026 208.152 512.586 207.976 513.002 207.64C513.354 207.352 513.626 206.92 513.834 206.344H515.114C514.922 207.144 514.554 207.784 513.994 208.296C513.306 208.904 512.426 209.224 511.354 209.224C510.17 209.224 509.21 208.824 508.506 208.056C507.77 207.256 507.418 206.2 507.418 204.856C507.418 203.64 507.754 202.616 508.458 201.8C509.162 200.936 510.106 200.504 511.306 200.504ZM511.338 201.576C510.602 201.576 510.01 201.816 509.562 202.296C509.114 202.776 508.858 203.416 508.778 204.232H513.946C513.786 202.456 512.906 201.576 511.338 201.576ZM520.181 200.504C521.509 200.504 522.517 200.952 523.189 201.848C523.797 202.648 524.117 203.784 524.149 205.224H517.621C517.685 206.152 517.925 206.872 518.373 207.384C518.821 207.896 519.445 208.152 520.229 208.152C520.901 208.152 521.461 207.976 521.877 207.64C522.229 207.352 522.501 206.92 522.709 206.344H523.989C523.797 207.144 523.429 207.784 522.869 208.296C522.181 208.904 521.301 209.224 520.229 209.224C519.045 209.224 518.085 208.824 517.381 208.056C516.645 207.256 516.293 206.2 516.293 204.856C516.293 203.64 516.629 202.616 517.333 201.8C518.037 200.936 518.981 200.504 520.181 200.504ZM520.213 201.576C519.477 201.576 518.885 201.816 518.437 202.296C517.989 202.776 517.733 203.416 517.653 204.232H522.821C522.661 202.456 521.781 201.576 520.213 201.576ZM525.904 197.352H527.168V209H525.904V197.352ZM534.742 197.352H536.022V202.248C536.662 201.08 537.574 200.504 538.758 200.504C539.926 200.504 540.854 200.936 541.526 201.832C542.134 202.632 542.454 203.624 542.454 204.84C542.454 206.088 542.134 207.112 541.526 207.912C540.838 208.776 539.894 209.224 538.694 209.224C537.414 209.224 536.502 208.696 535.942 207.64V209H534.742V197.352ZM538.486 201.56C537.734 201.56 537.126 201.848 536.678 202.456C536.198 203.048 535.974 203.832 535.974 204.792V204.952C535.974 205.88 536.182 206.632 536.598 207.208C537.046 207.848 537.702 208.168 538.534 208.168C539.43 208.168 540.102 207.832 540.55 207.192C540.934 206.616 541.142 205.832 541.142 204.84C541.142 203.848 540.934 203.08 540.518 202.52C540.054 201.88 539.382 201.56 538.486 201.56ZM544.117 200.728H545.397V205.784C545.397 206.568 545.557 207.16 545.893 207.544C546.229 207.928 546.773 208.136 547.525 208.136C548.069 208.136 548.565 207.912 548.997 207.496C549.445 207.048 549.717 206.472 549.813 205.768V200.728H551.093V209H549.813V207.72C549.141 208.712 548.245 209.224 547.125 209.224C545.109 209.224 544.117 208.088 544.117 205.848V200.728ZM555.278 198.056V200.728H557.326V201.8H555.278V207.064C555.278 207.368 555.326 207.592 555.454 207.72C555.566 207.848 555.774 207.928 556.062 207.928H557.118V209H555.87C555.198 209 554.702 208.824 554.414 208.472C554.142 208.152 554.014 207.688 554.014 207.064V201.8H552.35V200.728H554.014V198.584L555.278 198.056ZM560.966 198.056V200.728H563.014V201.8H560.966V207.064C560.966 207.368 561.014 207.592 561.142 207.72C561.254 207.848 561.462 207.928 561.75 207.928H562.806V209H561.558C560.886 209 560.39 208.824 560.102 208.472C559.83 208.152 559.702 207.688 559.702 207.064V201.8H558.038V200.728H559.702V198.584L560.966 198.056ZM568.141 200.504C569.373 200.504 570.365 200.92 571.101 201.784C571.805 202.6 572.157 203.624 572.157 204.872C572.157 206.104 571.805 207.128 571.117 207.928C570.365 208.792 569.373 209.224 568.141 209.224C566.893 209.224 565.917 208.792 565.181 207.928C564.477 207.128 564.125 206.104 564.125 204.872C564.125 203.624 564.477 202.6 565.181 201.784C565.917 200.92 566.893 200.504 568.141 200.504ZM568.141 201.576C567.261 201.576 566.573 201.912 566.093 202.584C565.645 203.192 565.437 203.944 565.437 204.872C565.437 205.784 565.645 206.536 566.093 207.144C566.573 207.816 567.261 208.152 568.141 208.152C569.005 208.152 569.693 207.816 570.205 207.144C570.637 206.536 570.861 205.768 570.861 204.872C570.861 203.944 570.637 203.192 570.205 202.584C569.693 201.912 569.005 201.576 568.141 201.576ZM577.692 200.504C579.74 200.504 580.78 201.64 580.78 203.912V209H579.5V204.008C579.5 202.392 578.764 201.592 577.324 201.592C576.748 201.592 576.252 201.8 575.836 202.216C575.388 202.664 575.148 203.256 575.1 204.008V209H573.82V200.728H575.1V201.944C575.388 201.48 575.756 201.128 576.204 200.888C576.652 200.632 577.148 200.504 577.692 200.504Z" fill="white"/>
<path d="M509.496 325.576H511.016L515.512 337H514.088L512.872 333.8H507.624L506.408 337H505L509.496 325.576ZM508.04 332.696H512.456L510.296 326.984H510.232L508.04 332.696ZM516.764 325.576H518.06V337H516.764V325.576ZM525.633 325.352H526.913V332.568L531.057 328.728H532.753L529.105 332.056L533.105 337H531.457L528.225 332.888L526.913 334.072V337H525.633V325.352ZM537.509 328.504C538.837 328.504 539.845 328.952 540.517 329.848C541.125 330.648 541.445 331.784 541.477 333.224H534.949C535.013 334.152 535.253 334.872 535.701 335.384C536.149 335.896 536.773 336.152 537.557 336.152C538.229 336.152 538.789 335.976 539.205 335.64C539.557 335.352 539.829 334.92 540.037 334.344H541.317C541.125 335.144 540.757 335.784 540.197 336.296C539.509 336.904 538.629 337.224 537.557 337.224C536.373 337.224 535.413 336.824 534.709 336.056C533.973 335.256 533.621 334.2 533.621 332.856C533.621 331.64 533.957 330.616 534.661 329.8C535.365 328.936 536.309 328.504 537.509 328.504ZM537.541 329.576C536.805 329.576 536.213 329.816 535.765 330.296C535.317 330.776 535.061 331.416 534.981 332.232H540.149C539.989 330.456 539.109 329.576 537.541 329.576ZM542.064 328.728H543.456L545.984 335.256L548.432 328.728H549.84L545.312 340.168H543.92L545.344 336.808L542.064 328.728Z" fill="white"/>
<path d="M24.128 242.584H32.88V243.64H28.416L28.032 245.416H31.872V248.568H33.376V249.64H23.712V248.568H26.208L26.656 246.456H24.512V245.416H26.88L27.264 243.64H24.128V242.584ZM27.36 248.568H30.72V246.456H27.808L27.36 248.568ZM32.32 251.096V256.632H31.184V255.864H26.064V256.632H24.928V251.096H32.32ZM26.064 254.776H31.184V252.152H26.064V254.776ZM20.656 242.152C21.68 242.92 22.56 243.704 23.264 244.488L22.464 245.272C21.824 244.536 20.96 243.768 19.856 242.936L20.656 242.152ZM18.672 246.824H22.128V253.912C22.64 253.464 23.184 252.936 23.776 252.344L24.08 253.56C23.152 254.488 22.176 255.304 21.12 256.024L20.672 255C20.896 254.792 21.024 254.568 21.024 254.312V247.928H18.672V246.824ZM46.992 249.464V256.6H45.824V255.864H38.24V256.6H37.072V249.464H46.992ZM38.24 254.84H45.824V253.176H38.24V254.84ZM38.24 252.184H45.824V250.488H38.24V252.184ZM35.696 243.496H41.504C41.264 242.952 41.008 242.44 40.736 241.992L41.952 241.8C42.208 242.296 42.448 242.856 42.672 243.496H48.32V244.552H45.776C45.536 245.448 45.216 246.296 44.8 247.112H49.056V248.184H34.944V247.112H39.072C38.816 246.184 38.512 245.336 38.192 244.552H35.696V243.496ZM39.408 244.552C39.696 245.32 39.968 246.184 40.224 247.112H43.68C44.112 246.296 44.432 245.448 44.624 244.552H39.408ZM51.552 247.672C51.52 247.752 51.472 247.832 51.44 247.912L50.544 247.336C51.296 245.672 51.84 243.832 52.192 241.816L53.28 242.04C53.152 242.632 53.04 243.192 52.912 243.736H55.344V244.84H52.608C52.384 245.608 52.128 246.312 51.856 246.984H55.296V248.008H53.888V249.976H55.536V251.032H53.888V254.712C54.416 254.424 54.96 254.072 55.504 253.624L55.696 254.616C54.88 255.224 53.936 255.736 52.88 256.136L52.416 255.176C52.704 255.064 52.848 254.904 52.848 254.68V251.032H51.056V249.976H52.848V248.008H51.552V247.672ZM64.4 248.648H62.176V249.88H64.576V250.792H62.176V252.056H64.976V253.016H62.176V254.584H61.136V253.016H58.992V252.056H61.136V250.792H59.392V249.88H61.136V248.648H59.552V247.72H61.136V246.424H59.008V245.496H61.136V244.136H59.552V243.208H61.136V242.024H62.176V243.208H64.4V245.496H65.152V246.424H64.4V248.648ZM62.176 244.136V245.496H63.424V244.136H62.176ZM62.176 246.424V247.72H63.424V246.424H62.176ZM62.848 255.288C63.904 255.288 64.752 255.256 65.376 255.224L65.168 256.328H63.424C61.056 256.296 59.44 256.008 58.608 255.464C58.224 255.224 57.888 254.936 57.6 254.6C57.248 255.336 56.816 255.96 56.32 256.504L55.536 255.736C56.08 255.16 56.544 254.472 56.896 253.672C56.336 252.776 55.888 251.656 55.568 250.312L56.432 249.992C56.64 250.936 56.944 251.768 57.328 252.504C57.648 251.416 57.84 250.168 57.904 248.76H56V247.96C56.64 246.872 57.232 245.688 57.744 244.424H55.888V243.432H58.784V244.376C58.24 245.72 57.712 246.856 57.184 247.816H58.832V248.44C58.8 250.44 58.528 252.152 58.032 253.56C58.448 254.072 58.928 254.44 59.44 254.68C60.16 255.032 61.296 255.224 62.848 255.288Z" fill="white"/>
<path d="M18.08 267.576H19.52L23.088 277.576H23.136L26.704 267.576H28.144L23.92 279H22.304L18.08 267.576ZM32.9068 270.504C34.1388 270.504 35.1308 270.92 35.8668 271.784C36.5708 272.6 36.9228 273.624 36.9228 274.872C36.9228 276.104 36.5708 277.128 35.8828 277.928C35.1308 278.792 34.1388 279.224 32.9068 279.224C31.6588 279.224 30.6828 278.792 29.9468 277.928C29.2428 277.128 28.8908 276.104 28.8908 274.872C28.8908 273.624 29.2428 272.6 29.9468 271.784C30.6828 270.92 31.6588 270.504 32.9068 270.504ZM32.9068 271.576C32.0268 271.576 31.3388 271.912 30.8588 272.584C30.4108 273.192 30.2028 273.944 30.2028 274.872C30.2028 275.784 30.4108 276.536 30.8588 277.144C31.3388 277.816 32.0268 278.152 32.9068 278.152C33.7708 278.152 34.4588 277.816 34.9708 277.144C35.4028 276.536 35.6268 275.768 35.6268 274.872C35.6268 273.944 35.4028 273.192 34.9708 272.584C34.4588 271.912 33.7708 271.576 32.9068 271.576ZM39.6418 267.608C39.9138 267.608 40.1378 267.688 40.3298 267.88C40.5218 268.04 40.6178 268.264 40.6178 268.552C40.6178 268.824 40.5218 269.048 40.3298 269.24C40.1378 269.416 39.9138 269.512 39.6418 269.512C39.3698 269.512 39.1458 269.416 38.9538 269.24C38.7618 269.048 38.6818 268.824 38.6818 268.552C38.6818 268.264 38.7618 268.04 38.9538 267.88C39.1458 267.688 39.3698 267.608 39.6418 267.608ZM39.0018 270.728H40.2818V279H39.0018V270.728ZM46.2475 270.504C47.2715 270.504 48.0875 270.744 48.7115 271.224C49.3515 271.72 49.7355 272.472 49.8795 273.48H48.6155C48.5035 272.84 48.2475 272.36 47.8475 272.04C47.4315 271.72 46.9035 271.576 46.2475 271.576C45.4475 271.576 44.8075 271.88 44.3435 272.488C43.8955 273.08 43.6715 273.88 43.6715 274.888C43.6715 275.896 43.8795 276.696 44.3275 277.272C44.7595 277.848 45.3995 278.152 46.2315 278.152C47.6395 278.152 48.4555 277.432 48.6475 276.008H49.9275C49.7355 277.064 49.3355 277.88 48.6955 278.424C48.0715 278.952 47.2555 279.224 46.2315 279.224C44.9835 279.224 44.0235 278.808 43.3355 277.976C42.6795 277.192 42.3595 276.168 42.3595 274.904C42.3595 273.64 42.6795 272.616 43.3355 271.816C44.0395 270.936 45.0155 270.504 46.2475 270.504ZM54.8375 270.504C56.1655 270.504 57.1735 270.952 57.8455 271.848C58.4535 272.648 58.7735 273.784 58.8055 275.224H52.2775C52.3415 276.152 52.5815 276.872 53.0295 277.384C53.4775 277.896 54.1015 278.152 54.8855 278.152C55.5575 278.152 56.1175 277.976 56.5335 277.64C56.8855 277.352 57.1575 276.92 57.3655 276.344H58.6455C58.4535 277.144 58.0855 277.784 57.5255 278.296C56.8375 278.904 55.9575 279.224 54.8855 279.224C53.7015 279.224 52.7415 278.824 52.0375 278.056C51.3015 277.256 50.9495 276.2 50.9495 274.856C50.9495 273.64 51.2855 272.616 51.9895 271.8C52.6935 270.936 53.6375 270.504 54.8375 270.504ZM54.8695 271.576C54.1335 271.576 53.5415 271.816 53.0935 272.296C52.6455 272.776 52.3895 273.416 52.3095 274.232H57.4775C57.3175 272.456 56.4375 271.576 54.8695 271.576ZM65.6326 267.352H66.9126V272.248C67.5526 271.08 68.4646 270.504 69.6486 270.504C70.8166 270.504 71.7446 270.936 72.4166 271.832C73.0246 272.632 73.3446 273.624 73.3446 274.84C73.3446 276.088 73.0246 277.112 72.4166 277.912C71.7286 278.776 70.7846 279.224 69.5846 279.224C68.3046 279.224 67.3926 278.696 66.8326 277.64V279H65.6326V267.352ZM69.3766 271.56C68.6246 271.56 68.0166 271.848 67.5686 272.456C67.0886 273.048 66.8646 273.832 66.8646 274.792V274.952C66.8646 275.88 67.0726 276.632 67.4886 277.208C67.9366 277.848 68.5926 278.168 69.4246 278.168C70.3206 278.168 70.9926 277.832 71.4406 277.192C71.8246 276.616 72.0326 275.832 72.0326 274.84C72.0326 273.848 71.8246 273.08 71.4086 272.52C70.9446 271.88 70.2726 271.56 69.3766 271.56ZM75.0076 270.728H76.2876V275.784C76.2876 276.568 76.4476 277.16 76.7836 277.544C77.1196 277.928 77.6636 278.136 78.4156 278.136C78.9596 278.136 79.4556 277.912 79.8876 277.496C80.3356 277.048 80.6076 276.472 80.7036 275.768V270.728H81.9836V279H80.7036V277.72C80.0316 278.712 79.1356 279.224 78.0156 279.224C75.9996 279.224 75.0076 278.088 75.0076 275.848V270.728ZM86.1688 268.056V270.728H88.2168V271.8H86.1688V277.064C86.1688 277.368 86.2168 277.592 86.3448 277.72C86.4568 277.848 86.6648 277.928 86.9528 277.928H88.0088V279H86.7608C86.0888 279 85.5928 278.824 85.3048 278.472C85.0328 278.152 84.9048 277.688 84.9048 277.064V271.8H83.2408V270.728H84.9048V268.584L86.1688 268.056ZM91.8563 268.056V270.728H93.9043V271.8H91.8563V277.064C91.8563 277.368 91.9043 277.592 92.0323 277.72C92.1443 277.848 92.3523 277.928 92.6403 277.928H93.6963V279H92.4483C91.7763 279 91.2803 278.824 90.9923 278.472C90.7203 278.152 90.5923 277.688 90.5923 277.064V271.8H88.9283V270.728H90.5923V268.584L91.8563 268.056ZM99.0318 270.504C100.264 270.504 101.256 270.92 101.992 271.784C102.696 272.6 103.048 273.624 103.048 274.872C103.048 276.104 102.696 277.128 102.008 277.928C101.256 278.792 100.264 279.224 99.0318 279.224C97.7838 279.224 96.8078 278.792 96.0718 277.928C95.3678 277.128 95.0158 276.104 95.0158 274.872C95.0158 273.624 95.3678 272.6 96.0718 271.784C96.8078 270.92 97.7838 270.504 99.0318 270.504ZM99.0318 271.576C98.1518 271.576 97.4638 271.912 96.9838 272.584C96.5358 273.192 96.3278 273.944 96.3278 274.872C96.3278 275.784 96.5358 276.536 96.9838 277.144C97.4638 277.816 98.1518 278.152 99.0318 278.152C99.8958 278.152 100.584 277.816 101.096 277.144C101.528 276.536 101.752 275.768 101.752 274.872C101.752 273.944 101.528 273.192 101.096 272.584C100.584 271.912 99.8958 271.576 99.0318 271.576ZM108.583 270.504C110.631 270.504 111.671 271.64 111.671 273.912V279H110.391V274.008C110.391 272.392 109.655 271.592 108.215 271.592C107.639 271.592 107.143 271.8 106.727 272.216C106.279 272.664 106.039 273.256 105.991 274.008V279H104.711V270.728H105.991V271.944C106.279 271.48 106.647 271.128 107.095 270.888C107.543 270.632 108.039 270.504 108.583 270.504Z" fill="white"/>
<path d="M18 293L261 293" stroke="#606C80" stroke-width="2" stroke-dasharray="2 2"/>
<defs>
<filter id="filter0_d_266_398" x="265.663" y="177" width="29.6735" height="67.6735" filterUnits="userSpaceOnUse" color-interpolation-filters="sRGB">
<feFlood flood-opacity="0" result="BackgroundImageFix"/>
<feColorMatrix in="SourceAlpha" type="matrix" values="0 0 0 0 0 0 0 0 0 0 0 0 0 0 0 0 0 0 127 0" result="hardAlpha"/>
<feOffset dy="3.33673"/>
<feGaussianBlur stdDeviation="1.66837"/>
<feComposite in2="hardAlpha" operator="out"/>
<feColorMatrix type="matrix" values="0 0 0 0 0 0 0 0 0 0 0 0 0 0 0 0 0 0 0.25 0"/>
<feBlend mode="normal" in2="BackgroundImageFix" result="effect1_dropShadow_266_398"/>
<feBlend mode="normal" in="SourceGraphic" in2="effect1_dropShadow_266_398" result="shape"/>
</filter>
</defs>
</svg>
