<svg width="200" height="200" viewBox="0 0 200 200" fill="none" xmlns="http://www.w3.org/2000/svg">
<path d="M98.8694 25.2318C100.373 24.5694 104.498 23.8678 108.107 25.2589" stroke="currentColor" stroke-width="0.527062" stroke-linecap="round"/>
<path d="M108.107 47.7779C106.603 48.4403 102.479 49.1418 98.8694 47.7508" stroke="currentColor" stroke-width="0.527062" stroke-linecap="round"/>
<path d="M98.8694 27.6415C100.373 26.9792 104.498 26.2776 108.107 27.6686" stroke="currentColor" stroke-width="0.527062" stroke-linecap="round"/>
<path d="M108.107 45.635C106.603 46.0696 102.479 46.5299 98.8694 45.6172" stroke="currentColor" stroke-width="0.527062" stroke-linecap="round"/>
<path d="M98.8694 29.6634C100.373 29.3322 104.498 28.9814 108.107 29.6769" stroke="currentColor" stroke-width="0.527062" stroke-linecap="round"/>
<path d="M98.8694 31.6715C100.373 31.3403 104.498 30.9896 108.107 31.6851" stroke="currentColor" stroke-width="0.527062" stroke-linecap="round"/>
<path d="M98.8694 33.6798C100.373 33.3486 104.498 32.9978 108.107 33.6933" stroke="currentColor" stroke-width="0.527062" stroke-linecap="round"/>
<path d="M108.107 39.2087C106.603 39.6433 102.479 40.1036 98.8694 39.1909" stroke="currentColor" stroke-width="0.527062" stroke-linecap="round"/>
<path d="M108.107 41.2169C106.603 41.6515 102.479 42.1118 98.8694 41.1991" stroke="currentColor" stroke-width="0.527062" stroke-linecap="round"/>
<path d="M108.107 43.2251C106.603 43.6597 102.479 44.12 98.8694 43.2073" stroke="currentColor" stroke-width="0.527062" stroke-linecap="round"/>
<path d="M141.431 142.038C145.007 138.461 152.729 125.097 154.095 103.78C159.718 77.4724 155.697 50.5256 150.654 33.2372C145.572 19.6842 133.148 7.44883 103.595 10.4606C80.442 12.8202 66.1361 23.0724 61.5167 29.4761C52.7713 40.3902 50.4715 51.5263 48.0617 71.4478C46.3309 85.7551 46.936 114.367 57.6654 132.626C62.5595 143.167 71.5949 153.52 82.1361 163.685" stroke="currentColor" stroke-width="0.752945" stroke-linecap="round"/>
<rect x="92.1126" y="17.2008" width="22.5423" height="87.6085" rx="11.2712" stroke="currentColor" stroke-width="0.752945"/>
<g filter="url(#filter0_d_169_45)">
<rect x="97.3457" y="59.7409" width="12.5766" height="21.8144" rx="6.28828" stroke="currentColor" stroke-width="0.677651" shape-rendering="crispEdges"/>
</g>
<g filter="url(#filter1_d_169_45)">
<rect x="98.7762" y="61.5479" width="9.6377" height="18.2966" rx="4.81885" stroke="currentColor" stroke-width="0.527062" shape-rendering="crispEdges"/>
</g>
<g filter="url(#filter2_d_169_45)">
<circle cx="103.482" cy="87.3365" r="1.05434" stroke="currentColor" stroke-width="0.301178" shape-rendering="crispEdges"/>
</g>
<g filter="url(#filter3_d_169_45)">
<circle cx="103.482" cy="92.8569" r="1.05434" stroke="currentColor" stroke-width="0.301178" shape-rendering="crispEdges"/>
</g>
<g filter="url(#filter4_d_169_45)">
<circle cx="103.482" cy="98.1275" r="1.05434" stroke="currentColor" stroke-width="0.301178" shape-rendering="crispEdges"/>
</g>
<rect x="96.0327" y="22.6646" width="14.9111" height="27.7637" rx="4.89414" stroke="currentColor" stroke-width="0.752945"/>
<path d="M98.8694 23.2506V49.9599M108.107 23.2506V49.9599" stroke="currentColor" stroke-width="0.752945" stroke-linecap="round"/>
<rect x="99.0012" y="35.4316" width="8.97426" height="0.263531" fill="currentColor" stroke="currentColor" stroke-width="0.263531"/>
<rect x="99.0012" y="37.4399" width="8.97426" height="0.263531" fill="currentColor" stroke="currentColor" stroke-width="0.263531"/>
<path d="M151.679 52.2409C153.553 65.0265 155.615 95.2167 148.867 113.692C140.433 136.787 116.133 140.803 91.633 134.979C62.3131 125.942 52.272 113.692 50.4646 95.0159C49.6361 89.8402 50.746 66.1717 55.3026 51.1648C57.3454 42.3287 63.4818 32.6724 65.0065 30.9783C70.0889 25.3312 74.7948 22.1312 80.7886 19.3062C91.1714 14.9782 98.2601 13.4594 102.678 12.973" stroke="currentColor" stroke-width="0.752945"/>
<path d="M104.546 10.3765L104.546 17.153" stroke="currentColor" stroke-width="0.752945" stroke-linecap="round"/>
<path d="M102.654 17.153L102.654 10.7529" stroke="currentColor" stroke-width="0.752945" stroke-linecap="round"/>
<path d="M104.492 12.8079C114.801 12.3393 131.603 11.2013 142.247 25.4597C148.874 34.8982 150.815 48.0855 151.685 52.3697" stroke="currentColor" stroke-width="0.752945"/>
<path d="M50.1075 57.4138L49.4719 57.5398C47.8952 57.8521 46.6907 59.1311 46.4734 60.7238L44.8244 72.8091C44.5921 74.5119 45.6623 76.1217 47.3223 76.5665" stroke="currentColor" stroke-width="0.752945" stroke-linecap="round"/>
<path d="M46.9477 83.0944L46.1332 83.4176C44.6305 84.0139 43.6763 85.5029 43.7624 87.1172L44.4772 100.532C44.5632 102.146 45.6702 103.526 47.2277 103.959L48.072 104.194" stroke="currentColor" stroke-width="0.752945" stroke-linecap="round"/>
<path d="M47.8869 104.391C42.2399 112.108 41.4869 129.238 45.628 143.544C47.3221 150.885 55.5739 168.579 80.9858 184.767C91.9035 191.722 119.793 193.774 138.805 177.991C149.346 168.203 158.57 149.191 155.746 120.955C155.056 116.187 153.789 106.009 154.24 103.449" stroke="currentColor" stroke-width="0.752945"/>
<defs>
<filter id="filter0_d_169_45" x="95.5009" y="59.402" width="16.2659" height="25.5038" filterUnits="userSpaceOnUse" color-interpolation-filters="sRGB">
<feFlood flood-opacity="0" result="BackgroundImageFix"/>
<feColorMatrix in="SourceAlpha" type="matrix" values="0 0 0 0 0 0 0 0 0 0 0 0 0 0 0 0 0 0 127 0" result="hardAlpha"/>
<feOffset dy="1.50589"/>
<feGaussianBlur stdDeviation="0.752945"/>
<feComposite in2="hardAlpha" operator="out"/>
<feColorMatrix type="matrix" values="0 0 0 0 0 0 0 0 0 0 0 0 0 0 0 0 0 0 0.25 0"/>
<feBlend mode="normal" in2="BackgroundImageFix" result="effect1_dropShadow_169_45"/>
<feBlend mode="normal" in="SourceGraphic" in2="effect1_dropShadow_169_45" result="shape"/>
</filter>
<filter id="filter1_d_169_45" x="97.0068" y="61.2844" width="13.1766" height="21.8354" filterUnits="userSpaceOnUse" color-interpolation-filters="sRGB">
<feFlood flood-opacity="0" result="BackgroundImageFix"/>
<feColorMatrix in="SourceAlpha" type="matrix" values="0 0 0 0 0 0 0 0 0 0 0 0 0 0 0 0 0 0 127 0" result="hardAlpha"/>
<feOffset dy="1.50589"/>
<feGaussianBlur stdDeviation="0.752945"/>
<feComposite in2="hardAlpha" operator="out"/>
<feColorMatrix type="matrix" values="0 0 0 0 0 0 0 0 0 0 0 0 0 0 0 0 0 0 0.25 0"/>
<feBlend mode="normal" in2="BackgroundImageFix" result="effect1_dropShadow_169_45"/>
<feBlend mode="normal" in="SourceGraphic" in2="effect1_dropShadow_169_45" result="shape"/>
</filter>
<filter id="filter2_d_169_45" x="100.771" y="86.1316" width="5.42169" height="5.42163" filterUnits="userSpaceOnUse" color-interpolation-filters="sRGB">
<feFlood flood-opacity="0" result="BackgroundImageFix"/>
<feColorMatrix in="SourceAlpha" type="matrix" values="0 0 0 0 0 0 0 0 0 0 0 0 0 0 0 0 0 0 127 0" result="hardAlpha"/>
<feOffset dy="1.50589"/>
<feGaussianBlur stdDeviation="0.752945"/>
<feComposite in2="hardAlpha" operator="out"/>
<feColorMatrix type="matrix" values="0 0 0 0 0 0 0 0 0 0 0 0 0 0 0 0 0 0 0.25 0"/>
<feBlend mode="normal" in2="BackgroundImageFix" result="effect1_dropShadow_169_45"/>
<feBlend mode="normal" in="SourceGraphic" in2="effect1_dropShadow_169_45" result="shape"/>
</filter>
<filter id="filter3_d_169_45" x="100.771" y="91.652" width="5.42169" height="5.42163" filterUnits="userSpaceOnUse" color-interpolation-filters="sRGB">
<feFlood flood-opacity="0" result="BackgroundImageFix"/>
<feColorMatrix in="SourceAlpha" type="matrix" values="0 0 0 0 0 0 0 0 0 0 0 0 0 0 0 0 0 0 127 0" result="hardAlpha"/>
<feOffset dy="1.50589"/>
<feGaussianBlur stdDeviation="0.752945"/>
<feComposite in2="hardAlpha" operator="out"/>
<feColorMatrix type="matrix" values="0 0 0 0 0 0 0 0 0 0 0 0 0 0 0 0 0 0 0.25 0"/>
<feBlend mode="normal" in2="BackgroundImageFix" result="effect1_dropShadow_169_45"/>
<feBlend mode="normal" in="SourceGraphic" in2="effect1_dropShadow_169_45" result="shape"/>
</filter>
<filter id="filter4_d_169_45" x="100.771" y="96.9226" width="5.42169" height="5.42163" filterUnits="userSpaceOnUse" color-interpolation-filters="sRGB">
<feFlood flood-opacity="0" result="BackgroundImageFix"/>
<feColorMatrix in="SourceAlpha" type="matrix" values="0 0 0 0 0 0 0 0 0 0 0 0 0 0 0 0 0 0 127 0" result="hardAlpha"/>
<feOffset dy="1.50589"/>
<feGaussianBlur stdDeviation="0.752945"/>
<feComposite in2="hardAlpha" operator="out"/>
<feColorMatrix type="matrix" values="0 0 0 0 0 0 0 0 0 0 0 0 0 0 0 0 0 0 0.25 0"/>
<feBlend mode="normal" in2="BackgroundImageFix" result="effect1_dropShadow_169_45"/>
<feBlend mode="normal" in="SourceGraphic" in2="effect1_dropShadow_169_45" result="shape"/>
</filter>
</defs>
</svg>
