<svg width="600" height="600" viewBox="0 0 600 600" fill="none" xmlns="http://www.w3.org/2000/svg">
<path d="M426.193 254.106C421.205 146.563 352.525 122.644 309.905 124.35C309.389 124.37 308.999 124.777 309.01 125.294C310.824 207.913 314.328 373.848 313.996 383.821C313.664 393.768 305.893 396.851 301.975 397.163C301.924 397.167 301.877 397.166 301.826 397.162C289.422 396.045 263.182 393.243 256.854 390.912C250.515 388.576 248.652 382.709 248.513 380.068L250.174 126.24C250.178 125.69 249.691 125.252 249.142 125.286C147.106 131.659 139.216 219.532 133.813 248.215C128.39 276.994 126.722 418.44 135.064 464.767C142.572 512.286 171.094 579.02 288.97 578.186C401.5 577.39 424.459 485.438 426.662 461.817C427.161 456.467 432.566 391.494 426.193 254.106Z" stroke="#606C80" stroke-width="2.28899"/>
<path d="M302.189 123.27C303.857 123.244 305.231 124.572 305.263 126.24L310.092 384.399C310.173 388.781 306.352 392.219 302.003 391.675L260.322 386.464C255.864 385.907 252.527 382.104 252.556 377.611L254.159 127.798C254.173 125.7 255.86 123.996 257.959 123.963L302.189 123.27Z" stroke="#606C80" stroke-width="2.28899" stroke-linejoin="round"/>
<rect x="279.686" y="132.906" width="1.66837" height="15.8495" rx="0.834184" stroke="#8BE6B0" stroke-width="1.66837"/>
<rect x="279.686" y="156.263" width="1.66837" height="7.50765" rx="0.834184" stroke="#8BE6B0" stroke-width="1.66837"/>
<rect x="290.177" y="144.584" width="1.66837" height="11.6786" rx="0.834184" stroke="#8BE6B0" stroke-width="1.66837"/>
<rect x="268.402" y="155.428" width="1.66837" height="7.50765" rx="0.834184" stroke="#8BE6B0" stroke-width="1.66837"/>
<rect x="268.402" y="139.579" width="1.66837" height="7.50765" rx="0.834184" stroke="#8BE6B0" stroke-width="1.66837"/>
<rect x="264.144" y="174.144" width="32.711" height="67.711" rx="10.8555" stroke="#606C80" stroke-width="2.28899"/>
<g filter="url(#filter0_d_302_84)">
<rect x="270.2" y="178.2" width="20.6" height="58.6" rx="10.3" stroke="#8BE6B0" stroke-width="2.4" shape-rendering="crispEdges"/>
</g>
<path d="M268.005 277H292.995C295.207 277 297 278.793 297 281.005V316.406C297 318.794 294.925 320.651 292.552 320.387L267.562 317.604C265.534 317.378 264 315.663 264 313.623V281.005C264 278.793 265.793 277 268.005 277Z" stroke="#8BE6B0" stroke-width="2"/>
<path d="M264 330.723C264 328.299 266.137 326.431 268.539 326.754L293.528 330.112C295.516 330.38 297 332.076 297 334.082V367.277C297 369.701 294.863 371.569 292.461 371.246L267.472 367.888C265.484 367.62 264 365.924 264 363.918V330.723Z" stroke="#8BE6B0" stroke-width="2"/>
<path d="M280 70L280 120" stroke="#606C80" stroke-width="2" stroke-dasharray="2 2"/>
<path d="M299 209L582 209" stroke="#606C80" stroke-width="2" stroke-dasharray="2 2"/>
<path d="M299 351L550 351" stroke="#606C80" stroke-width="2" stroke-dasharray="2 2"/>
<path d="M193.49 29.004H201.68V29.998H198.152V39H197.018V29.998H193.49V29.004ZM201.99 29.004H203.376L206.554 33.876L209.732 29.004H211.118L207.128 34.94V39H205.98V34.94L201.99 29.004ZM212.197 29.004H216.285C218.581 29.004 219.729 29.984 219.729 31.944C219.729 33.918 218.567 34.912 216.271 34.912H213.345V39H212.197V29.004ZM213.345 29.998V33.918H216.215C217.027 33.918 217.615 33.75 218.007 33.428C218.385 33.106 218.581 32.616 218.581 31.944C218.581 31.272 218.385 30.782 217.993 30.488C217.601 30.152 217.013 29.998 216.215 29.998H213.345ZM221.18 29.004H228.264V29.998H222.328V33.344H227.928V34.338H222.328V38.006H228.502V39H221.18V29.004ZM229.786 34.898H236.856V35.85H229.786V34.898ZM242.883 28.808C243.989 28.808 244.927 29.102 245.683 29.69C246.439 30.278 246.887 31.076 247.027 32.07H245.921C245.781 31.342 245.417 30.782 244.857 30.39C244.311 30.012 243.653 29.83 242.869 29.83C241.707 29.83 240.811 30.236 240.181 31.048C239.593 31.804 239.299 32.798 239.299 34.044C239.299 35.29 239.579 36.284 240.167 37.012C240.783 37.782 241.665 38.174 242.841 38.174C243.639 38.174 244.311 37.964 244.871 37.544C245.459 37.096 245.865 36.438 246.061 35.57H247.167C246.943 36.732 246.425 37.642 245.599 38.286C244.829 38.888 243.905 39.196 242.841 39.196C241.287 39.196 240.097 38.678 239.271 37.656C238.515 36.732 238.151 35.528 238.151 34.044C238.151 32.56 238.529 31.342 239.299 30.39C240.139 29.326 241.343 28.808 242.883 28.808ZM254.734 27.506C254.972 28.01 255.196 28.584 255.42 29.228H260.516V30.166H254.048C253.11 31.664 252.284 32.728 251.584 33.358C253.642 33.246 255.686 33.064 257.73 32.84C257.366 32.35 256.988 31.86 256.582 31.356L257.366 30.866C258.57 32.294 259.494 33.526 260.138 34.59L259.298 35.178C259.004 34.674 258.682 34.17 258.318 33.652C255.84 33.918 253.152 34.128 250.254 34.282L250.016 33.372C250.114 33.344 250.184 33.316 250.24 33.288C250.94 32.896 251.864 31.86 252.998 30.166H248.98V29.228H254.412C254.188 28.668 253.936 28.15 253.656 27.674L254.734 27.506ZM252.326 34.8H253.306C253.208 36.424 252.886 37.6 252.326 38.342C251.71 39.126 250.702 39.812 249.288 40.386L248.658 39.588C249.946 39.112 250.856 38.552 251.402 37.908C251.934 37.264 252.242 36.228 252.326 34.8ZM259.158 40.176H256.974C256.008 40.176 255.532 39.7 255.532 38.748V34.618H256.526V38.58C256.526 39 256.764 39.224 257.254 39.224H258.892C259.158 39.224 259.382 39.154 259.564 39.014C259.788 38.818 259.942 38.132 260.012 36.956L260.936 37.236C260.81 38.65 260.6 39.504 260.32 39.798C260.04 40.036 259.662 40.162 259.158 40.176ZM264.562 33.442V35.542H268.006V33.442H264.562ZM268.006 36.48H264.562V37.67H263.554V29.508H268.006V27.59H269.028V29.508H273.564V36.48H269.028V38.202C269.028 38.888 269.336 39.238 269.952 39.238H273.144C273.494 39.238 273.746 39.154 273.914 39C274.054 38.832 274.152 38.286 274.208 37.334L275.16 37.656C275.076 38.846 274.922 39.574 274.67 39.826C274.418 40.064 273.97 40.19 273.312 40.19H269.714C268.566 40.19 268.006 39.574 268.006 38.356V36.48ZM269.028 35.542H272.57V33.442H269.028V35.542ZM272.57 32.518V30.46H269.028V32.518H272.57ZM268.006 30.46H264.562V32.518H268.006V30.46ZM287.83 29.228V40.176H286.808V39.28H278.688V40.176H277.68V29.228H287.83ZM278.688 38.3H286.808V30.208H278.688V38.3ZM295.236 27.52H296.23L291.274 40.4H290.266L295.236 27.52ZM303.734 27.506C303.972 28.01 304.196 28.584 304.42 29.228H309.516V30.166H303.048C302.11 31.664 301.284 32.728 300.584 33.358C302.642 33.246 304.686 33.064 306.73 32.84C306.366 32.35 305.988 31.86 305.582 31.356L306.366 30.866C307.57 32.294 308.494 33.526 309.138 34.59L308.298 35.178C308.004 34.674 307.682 34.17 307.318 33.652C304.84 33.918 302.152 34.128 299.254 34.282L299.016 33.372C299.114 33.344 299.184 33.316 299.24 33.288C299.94 32.896 300.864 31.86 301.998 30.166H297.98V29.228H303.412C303.188 28.668 302.936 28.15 302.656 27.674L303.734 27.506ZM301.326 34.8H302.306C302.208 36.424 301.886 37.6 301.326 38.342C300.71 39.126 299.702 39.812 298.288 40.386L297.658 39.588C298.946 39.112 299.856 38.552 300.402 37.908C300.934 37.264 301.242 36.228 301.326 34.8ZM308.158 40.176H305.974C305.008 40.176 304.532 39.7 304.532 38.748V34.618H305.526V38.58C305.526 39 305.764 39.224 306.254 39.224H307.892C308.158 39.224 308.382 39.154 308.564 39.014C308.788 38.818 308.942 38.132 309.012 36.956L309.936 37.236C309.81 38.65 309.6 39.504 309.32 39.798C309.04 40.036 308.662 40.162 308.158 40.176ZM313.562 33.442V35.542H317.006V33.442H313.562ZM317.006 36.48H313.562V37.67H312.554V29.508H317.006V27.59H318.028V29.508H322.564V36.48H318.028V38.202C318.028 38.888 318.336 39.238 318.952 39.238H322.144C322.494 39.238 322.746 39.154 322.914 39C323.054 38.832 323.152 38.286 323.208 37.334L324.16 37.656C324.076 38.846 323.922 39.574 323.67 39.826C323.418 40.064 322.97 40.19 322.312 40.19H318.714C317.566 40.19 317.006 39.574 317.006 38.356V36.48ZM318.028 35.542H321.57V33.442H318.028V35.542ZM321.57 32.518V30.46H318.028V32.518H321.57ZM317.006 30.46H313.562V32.518H317.006V30.46ZM331.86 30.46V31.328C331.86 31.664 332.042 31.832 332.406 31.832H335.948C336.256 31.832 336.48 31.762 336.62 31.622C336.788 31.44 336.914 30.908 336.97 30.012L337.894 30.306C337.796 31.482 337.6 32.182 337.32 32.434C337.068 32.658 336.662 32.77 336.13 32.77H332.112C331.3 32.77 330.894 32.35 330.894 31.538V27.646H331.86V29.564C333.554 29.228 335.206 28.724 336.83 28.052L337.39 28.85C335.458 29.578 333.61 30.11 331.86 30.46ZM327.282 40.274H325.798L325.588 39.308C326.064 39.35 326.512 39.378 326.932 39.378C327.296 39.378 327.478 39.168 327.478 38.776V35.43C326.862 35.64 326.232 35.836 325.602 36.004L325.364 34.996C326.078 34.842 326.778 34.646 327.478 34.422V31.216H325.588V30.25H327.478V27.618H328.444V30.25H329.998V31.216H328.444V34.086C329.032 33.848 329.592 33.596 330.152 33.33V34.352C329.592 34.604 329.018 34.856 328.444 35.08V39.028C328.444 39.854 328.052 40.274 327.282 40.274ZM337.39 33.848V40.4H336.382V39.686H332V40.4H331.006V33.848H337.39ZM332 38.79H336.382V37.194H332V38.79ZM332 36.298H336.382V34.73H332V36.298ZM345.006 40.232H343.2L342.99 39.252C343.578 39.28 344.124 39.308 344.656 39.308C345.076 39.308 345.286 39.098 345.286 38.706V32.882H339.784V31.888H351.712V32.882H346.308V38.958C346.308 39.798 345.874 40.232 345.006 40.232ZM341.94 34.422L342.934 34.632C342.346 36.564 341.534 38.23 340.47 39.63L339.588 39.084C340.666 37.684 341.45 36.13 341.94 34.422ZM349.332 34.282C350.284 35.794 351.124 37.39 351.824 39.098L350.9 39.518C350.144 37.656 349.318 36.018 348.422 34.59L349.332 34.282ZM341.072 28.332H350.466V29.312H341.072V28.332ZM353.98 30.054L354.862 30.124C354.806 31.51 354.61 32.84 354.246 34.1L353.392 33.848C353.742 32.644 353.938 31.384 353.98 30.054ZM358.404 29.536L358.978 30.278C358.39 31.09 357.62 31.874 356.668 32.63V32.882C356.654 33.666 356.598 34.394 356.514 35.08C357.284 35.892 358.068 36.83 358.852 37.88L358.264 38.762C357.508 37.6 356.864 36.704 356.346 36.088C355.968 37.894 355.268 39.308 354.232 40.344L353.476 39.686C354.932 38.272 355.66 36.004 355.688 32.882V27.702H356.668V31.566C357.354 30.922 357.928 30.25 358.404 29.536ZM358.95 28.43H366.104V29.396H363.556V39.042C363.556 39.868 363.136 40.288 362.31 40.288H360.378L360.154 39.322C360.784 39.364 361.386 39.392 361.96 39.392C362.352 39.392 362.562 39.182 362.562 38.79V29.396H358.95V28.43Z" fill="white"/>
<path d="M130.299 53.004H138.489V53.998H134.961V63H133.827V53.998H130.299V53.004ZM138.799 55.762H140.017L142.229 61.474L144.371 55.762H145.603L141.641 65.772H140.423L141.669 62.832L138.799 55.762ZM150 55.566C151.036 55.566 151.862 55.944 152.464 56.728C153.01 57.428 153.29 58.31 153.29 59.402C153.29 60.466 153.01 61.348 152.478 62.048C151.89 62.804 151.092 63.196 150.056 63.196C149.02 63.196 148.222 62.692 147.662 61.684V65.772H146.542V55.762H147.592V56.952C148.11 56.028 148.908 55.566 150 55.566ZM149.86 56.49C149.132 56.49 148.558 56.77 148.166 57.344C147.802 57.848 147.62 58.52 147.62 59.332V59.472C147.62 60.312 147.816 60.984 148.236 61.502C148.628 62.006 149.146 62.272 149.818 62.272C150.602 62.272 151.19 61.992 151.596 61.46C151.96 60.956 152.142 60.27 152.142 59.402C152.142 58.548 151.96 57.862 151.624 57.358C151.218 56.77 150.63 56.49 149.86 56.49ZM157.727 55.566C158.889 55.566 159.771 55.958 160.359 56.742C160.891 57.442 161.171 58.436 161.199 59.696H155.487C155.543 60.508 155.753 61.138 156.145 61.586C156.537 62.034 157.083 62.258 157.769 62.258C158.357 62.258 158.847 62.104 159.211 61.81C159.519 61.558 159.757 61.18 159.939 60.676H161.059C160.891 61.376 160.569 61.936 160.079 62.384C159.477 62.916 158.707 63.196 157.769 63.196C156.733 63.196 155.893 62.846 155.277 62.174C154.633 61.474 154.325 60.55 154.325 59.374C154.325 58.31 154.619 57.414 155.235 56.7C155.851 55.944 156.677 55.566 157.727 55.566ZM157.755 56.504C157.111 56.504 156.593 56.714 156.201 57.134C155.809 57.554 155.585 58.114 155.515 58.828H160.037C159.897 57.274 159.127 56.504 157.755 56.504ZM162.343 58.898H169.413V59.85H162.343V58.898ZM175.439 52.808C176.545 52.808 177.483 53.102 178.239 53.69C178.995 54.278 179.443 55.076 179.583 56.07H178.477C178.337 55.342 177.973 54.782 177.413 54.39C176.867 54.012 176.209 53.83 175.425 53.83C174.263 53.83 173.367 54.236 172.737 55.048C172.149 55.804 171.855 56.798 171.855 58.044C171.855 59.29 172.135 60.284 172.723 61.012C173.339 61.782 174.221 62.174 175.397 62.174C176.195 62.174 176.867 61.964 177.427 61.544C178.015 61.096 178.421 60.438 178.617 59.57H179.723C179.499 60.732 178.981 61.642 178.155 62.286C177.385 62.888 176.461 63.196 175.397 63.196C173.843 63.196 172.653 62.678 171.827 61.656C171.071 60.732 170.707 59.528 170.707 58.044C170.707 56.56 171.085 55.342 171.855 54.39C172.695 53.326 173.899 52.808 175.439 52.808ZM188.957 55.566C189.853 55.566 190.567 55.776 191.113 56.196C191.673 56.63 192.009 57.288 192.135 58.17H191.029C190.931 57.61 190.707 57.19 190.357 56.91C189.993 56.63 189.531 56.504 188.957 56.504C188.257 56.504 187.697 56.77 187.291 57.302C186.899 57.82 186.703 58.52 186.703 59.402C186.703 60.284 186.885 60.984 187.277 61.488C187.655 61.992 188.215 62.258 188.943 62.258C190.175 62.258 190.889 61.628 191.057 60.382H192.177C192.009 61.306 191.659 62.02 191.099 62.496C190.553 62.958 189.839 63.196 188.943 63.196C187.851 63.196 187.011 62.832 186.409 62.104C185.835 61.418 185.555 60.522 185.555 59.416C185.555 58.31 185.835 57.414 186.409 56.714C187.025 55.944 187.879 55.566 188.957 55.566ZM193.491 52.808H194.611V56.952C194.863 56.49 195.199 56.14 195.619 55.902C196.011 55.678 196.445 55.566 196.935 55.566C197.775 55.566 198.433 55.804 198.881 56.308C199.329 56.798 199.553 57.512 199.553 58.436V63H198.433V58.604C198.433 57.932 198.265 57.414 197.957 57.05C197.621 56.686 197.159 56.504 196.557 56.504C195.997 56.504 195.535 56.728 195.171 57.176C194.793 57.624 194.611 58.198 194.611 58.87V63H193.491V52.808ZM204.42 55.566C205.456 55.566 206.212 55.832 206.716 56.378C207.136 56.854 207.36 57.512 207.36 58.352V63H206.31V61.782C206.03 62.174 205.652 62.496 205.204 62.748C204.672 63.042 204.07 63.196 203.398 63.196C202.67 63.196 202.096 63.014 201.662 62.65C201.214 62.272 200.99 61.782 200.99 61.194C200.99 60.368 201.312 59.752 201.984 59.332C202.572 58.94 203.412 58.73 204.504 58.716L206.24 58.688V58.31C206.24 57.092 205.61 56.49 204.35 56.49C203.818 56.49 203.384 56.588 203.048 56.812C202.67 57.036 202.432 57.386 202.32 57.848L201.214 57.764C201.368 57.008 201.746 56.434 202.334 56.07C202.866 55.734 203.552 55.566 204.42 55.566ZM206.24 59.528L204.574 59.556C202.95 59.584 202.138 60.116 202.138 61.166C202.138 61.502 202.264 61.768 202.544 61.992C202.824 62.202 203.188 62.314 203.636 62.314C204.322 62.314 204.924 62.09 205.456 61.642C205.974 61.208 206.24 60.704 206.24 60.144V59.528ZM212.269 55.566C212.661 55.566 212.997 55.622 213.263 55.734V56.854C212.899 56.742 212.535 56.7 212.185 56.7C211.625 56.7 211.149 56.938 210.771 57.442C210.379 57.918 210.197 58.492 210.197 59.164V63H209.091V55.762H210.197V57.022C210.393 56.602 210.645 56.266 210.953 56.028C211.331 55.72 211.765 55.566 212.269 55.566ZM217.186 55.566C218.278 55.566 219.09 56.042 219.622 57.008V55.762H220.742V62.496C220.742 64.806 219.636 65.968 217.438 65.968C216.458 65.968 215.702 65.772 215.198 65.38C214.68 64.988 214.358 64.4 214.232 63.616H215.352C215.436 64.106 215.646 64.47 215.968 64.694C216.29 64.932 216.78 65.058 217.438 65.058C218.894 65.058 219.622 64.246 219.622 62.65V61.376C219.09 62.342 218.278 62.832 217.186 62.832C216.178 62.832 215.38 62.482 214.792 61.796C214.204 61.124 213.924 60.27 213.924 59.22C213.924 58.156 214.204 57.302 214.792 56.63C215.38 55.916 216.178 55.566 217.186 55.566ZM217.354 56.49C216.626 56.49 216.066 56.742 215.66 57.274C215.268 57.75 215.072 58.408 215.072 59.22C215.072 59.976 215.24 60.606 215.59 61.082C215.982 61.614 216.556 61.894 217.34 61.894C218.068 61.894 218.628 61.642 219.048 61.138C219.44 60.648 219.636 60.004 219.636 59.22C219.636 58.408 219.44 57.75 219.048 57.274C218.628 56.742 218.068 56.49 217.354 56.49ZM223.399 53.032C223.637 53.032 223.833 53.102 224.001 53.27C224.169 53.41 224.253 53.606 224.253 53.858C224.253 54.096 224.169 54.292 224.001 54.46C223.833 54.614 223.637 54.698 223.399 54.698C223.161 54.698 222.965 54.614 222.797 54.46C222.629 54.292 222.559 54.096 222.559 53.858C222.559 53.606 222.629 53.41 222.797 53.27C222.965 53.102 223.161 53.032 223.399 53.032ZM222.839 55.762H223.959V63H222.839V55.762ZM229.445 55.566C231.237 55.566 232.147 56.56 232.147 58.548V63H231.027V58.632C231.027 57.218 230.383 56.518 229.123 56.518C228.619 56.518 228.185 56.7 227.821 57.064C227.429 57.456 227.219 57.974 227.177 58.632V63H226.057V55.762H227.177V56.826C227.429 56.42 227.751 56.112 228.143 55.902C228.535 55.678 228.969 55.566 229.445 55.566ZM236.86 55.566C237.952 55.566 238.764 56.042 239.296 57.008V55.762H240.416V62.496C240.416 64.806 239.31 65.968 237.112 65.968C236.132 65.968 235.376 65.772 234.872 65.38C234.354 64.988 234.032 64.4 233.906 63.616H235.026C235.11 64.106 235.32 64.47 235.642 64.694C235.964 64.932 236.454 65.058 237.112 65.058C238.568 65.058 239.296 64.246 239.296 62.65V61.376C238.764 62.342 237.952 62.832 236.86 62.832C235.852 62.832 235.054 62.482 234.466 61.796C233.878 61.124 233.598 60.27 233.598 59.22C233.598 58.156 233.878 57.302 234.466 56.63C235.054 55.916 235.852 55.566 236.86 55.566ZM237.028 56.49C236.3 56.49 235.74 56.742 235.334 57.274C234.942 57.75 234.746 58.408 234.746 59.22C234.746 59.976 234.914 60.606 235.264 61.082C235.656 61.614 236.23 61.894 237.014 61.894C237.742 61.894 238.302 61.642 238.722 61.138C239.114 60.648 239.31 60.004 239.31 59.22C239.31 58.408 239.114 57.75 238.722 57.274C238.302 56.742 237.742 56.49 237.028 56.49ZM250.269 55.566C251.305 55.566 252.131 55.944 252.733 56.728C253.279 57.428 253.559 58.31 253.559 59.402C253.559 60.466 253.279 61.348 252.747 62.048C252.159 62.804 251.361 63.196 250.325 63.196C249.289 63.196 248.491 62.692 247.931 61.684V65.772H246.811V55.762H247.861V56.952C248.379 56.028 249.177 55.566 250.269 55.566ZM250.129 56.49C249.401 56.49 248.827 56.77 248.435 57.344C248.071 57.848 247.889 58.52 247.889 59.332V59.472C247.889 60.312 248.085 60.984 248.505 61.502C248.897 62.006 249.415 62.272 250.087 62.272C250.871 62.272 251.459 61.992 251.865 61.46C252.229 60.956 252.411 60.27 252.411 59.402C252.411 58.548 252.229 57.862 251.893 57.358C251.487 56.77 250.899 56.49 250.129 56.49ZM258.248 55.566C259.326 55.566 260.194 55.93 260.838 56.686C261.454 57.4 261.762 58.296 261.762 59.388C261.762 60.466 261.454 61.362 260.852 62.062C260.194 62.818 259.326 63.196 258.248 63.196C257.156 63.196 256.302 62.818 255.658 62.062C255.042 61.362 254.734 60.466 254.734 59.388C254.734 58.296 255.042 57.4 255.658 56.686C256.302 55.93 257.156 55.566 258.248 55.566ZM258.248 56.504C257.478 56.504 256.876 56.798 256.456 57.386C256.064 57.918 255.882 58.576 255.882 59.388C255.882 60.186 256.064 60.844 256.456 61.376C256.876 61.964 257.478 62.258 258.248 62.258C259.004 62.258 259.606 61.964 260.054 61.376C260.432 60.844 260.628 60.172 260.628 59.388C260.628 58.576 260.432 57.918 260.054 57.386C259.606 56.798 259.004 56.504 258.248 56.504ZM266.396 55.566C266.788 55.566 267.124 55.622 267.39 55.734V56.854C267.026 56.742 266.662 56.7 266.312 56.7C265.752 56.7 265.276 56.938 264.898 57.442C264.506 57.918 264.324 58.492 264.324 59.164V63H263.218V55.762H264.324V57.022C264.52 56.602 264.772 56.266 265.08 56.028C265.458 55.72 265.892 55.566 266.396 55.566ZM270.263 53.424V55.762H272.055V56.7H270.263V61.306C270.263 61.572 270.305 61.768 270.417 61.88C270.515 61.992 270.697 62.062 270.949 62.062H271.873V63H270.781C270.193 63 269.759 62.846 269.507 62.538C269.269 62.258 269.157 61.852 269.157 61.306V56.7H267.701V55.762H269.157V53.886L270.263 53.424ZM277.927 51.52H278.921L273.965 64.4H272.957L277.927 51.52ZM283.429 55.566C284.325 55.566 285.039 55.776 285.585 56.196C286.145 56.63 286.481 57.288 286.607 58.17H285.501C285.403 57.61 285.179 57.19 284.829 56.91C284.465 56.63 284.003 56.504 283.429 56.504C282.729 56.504 282.169 56.77 281.763 57.302C281.371 57.82 281.175 58.52 281.175 59.402C281.175 60.284 281.357 60.984 281.749 61.488C282.127 61.992 282.687 62.258 283.415 62.258C284.647 62.258 285.361 61.628 285.529 60.382H286.649C286.481 61.306 286.131 62.02 285.571 62.496C285.025 62.958 284.311 63.196 283.415 63.196C282.323 63.196 281.483 62.832 280.881 62.104C280.307 61.418 280.027 60.522 280.027 59.416C280.027 58.31 280.307 57.414 280.881 56.714C281.497 55.944 282.351 55.566 283.429 55.566ZM287.964 52.808H289.084V56.952C289.336 56.49 289.672 56.14 290.092 55.902C290.484 55.678 290.918 55.566 291.408 55.566C292.248 55.566 292.906 55.804 293.354 56.308C293.802 56.798 294.026 57.512 294.026 58.436V63H292.906V58.604C292.906 57.932 292.738 57.414 292.43 57.05C292.094 56.686 291.632 56.504 291.03 56.504C290.47 56.504 290.008 56.728 289.644 57.176C289.266 57.624 289.084 58.198 289.084 58.87V63H287.964V52.808ZM298.893 55.566C299.929 55.566 300.685 55.832 301.189 56.378C301.609 56.854 301.833 57.512 301.833 58.352V63H300.783V61.782C300.503 62.174 300.125 62.496 299.677 62.748C299.145 63.042 298.543 63.196 297.871 63.196C297.143 63.196 296.569 63.014 296.135 62.65C295.687 62.272 295.463 61.782 295.463 61.194C295.463 60.368 295.785 59.752 296.457 59.332C297.045 58.94 297.885 58.73 298.977 58.716L300.713 58.688V58.31C300.713 57.092 300.083 56.49 298.823 56.49C298.291 56.49 297.857 56.588 297.521 56.812C297.143 57.036 296.905 57.386 296.793 57.848L295.687 57.764C295.841 57.008 296.219 56.434 296.807 56.07C297.339 55.734 298.025 55.566 298.893 55.566ZM300.713 59.528L299.047 59.556C297.423 59.584 296.611 60.116 296.611 61.166C296.611 61.502 296.737 61.768 297.017 61.992C297.297 62.202 297.661 62.314 298.109 62.314C298.795 62.314 299.397 62.09 299.929 61.642C300.447 61.208 300.713 60.704 300.713 60.144V59.528ZM306.741 55.566C307.133 55.566 307.469 55.622 307.735 55.734V56.854C307.371 56.742 307.007 56.7 306.657 56.7C306.097 56.7 305.621 56.938 305.243 57.442C304.851 57.918 304.669 58.492 304.669 59.164V63H303.563V55.762H304.669V57.022C304.865 56.602 305.117 56.266 305.425 56.028C305.803 55.72 306.237 55.566 306.741 55.566ZM311.659 55.566C312.751 55.566 313.563 56.042 314.095 57.008V55.762H315.215V62.496C315.215 64.806 314.109 65.968 311.911 65.968C310.931 65.968 310.175 65.772 309.671 65.38C309.153 64.988 308.831 64.4 308.705 63.616H309.825C309.909 64.106 310.119 64.47 310.441 64.694C310.763 64.932 311.253 65.058 311.911 65.058C313.367 65.058 314.095 64.246 314.095 62.65V61.376C313.563 62.342 312.751 62.832 311.659 62.832C310.651 62.832 309.853 62.482 309.265 61.796C308.677 61.124 308.397 60.27 308.397 59.22C308.397 58.156 308.677 57.302 309.265 56.63C309.853 55.916 310.651 55.566 311.659 55.566ZM311.827 56.49C311.099 56.49 310.539 56.742 310.133 57.274C309.741 57.75 309.545 58.408 309.545 59.22C309.545 59.976 309.713 60.606 310.063 61.082C310.455 61.614 311.029 61.894 311.813 61.894C312.541 61.894 313.101 61.642 313.521 61.138C313.913 60.648 314.109 60.004 314.109 59.22C314.109 58.408 313.913 57.75 313.521 57.274C313.101 56.742 312.541 56.49 311.827 56.49ZM317.872 53.032C318.11 53.032 318.306 53.102 318.474 53.27C318.642 53.41 318.726 53.606 318.726 53.858C318.726 54.096 318.642 54.292 318.474 54.46C318.306 54.614 318.11 54.698 317.872 54.698C317.634 54.698 317.438 54.614 317.27 54.46C317.102 54.292 317.032 54.096 317.032 53.858C317.032 53.606 317.102 53.41 317.27 53.27C317.438 53.102 317.634 53.032 317.872 53.032ZM317.312 55.762H318.432V63H317.312V55.762ZM323.918 55.566C325.71 55.566 326.62 56.56 326.62 58.548V63H325.5V58.632C325.5 57.218 324.856 56.518 323.596 56.518C323.092 56.518 322.658 56.7 322.294 57.064C321.902 57.456 321.692 57.974 321.65 58.632V63H320.53V55.762H321.65V56.826C321.902 56.42 322.224 56.112 322.616 55.902C323.008 55.678 323.442 55.566 323.918 55.566ZM331.332 55.566C332.424 55.566 333.236 56.042 333.768 57.008V55.762H334.888V62.496C334.888 64.806 333.782 65.968 331.584 65.968C330.604 65.968 329.848 65.772 329.344 65.38C328.826 64.988 328.504 64.4 328.378 63.616H329.498C329.582 64.106 329.792 64.47 330.114 64.694C330.436 64.932 330.926 65.058 331.584 65.058C333.04 65.058 333.768 64.246 333.768 62.65V61.376C333.236 62.342 332.424 62.832 331.332 62.832C330.324 62.832 329.526 62.482 328.938 61.796C328.35 61.124 328.07 60.27 328.07 59.22C328.07 58.156 328.35 57.302 328.938 56.63C329.526 55.916 330.324 55.566 331.332 55.566ZM331.5 56.49C330.772 56.49 330.212 56.742 329.806 57.274C329.414 57.75 329.218 58.408 329.218 59.22C329.218 59.976 329.386 60.606 329.736 61.082C330.128 61.614 330.702 61.894 331.486 61.894C332.214 61.894 332.774 61.642 333.194 61.138C333.586 60.648 333.782 60.004 333.782 59.22C333.782 58.408 333.586 57.75 333.194 57.274C332.774 56.742 332.214 56.49 331.5 56.49ZM342.208 53.032C342.446 53.032 342.642 53.102 342.81 53.27C342.978 53.41 343.062 53.606 343.062 53.858C343.062 54.096 342.978 54.292 342.81 54.46C342.642 54.614 342.446 54.698 342.208 54.698C341.97 54.698 341.774 54.614 341.606 54.46C341.438 54.292 341.368 54.096 341.368 53.858C341.368 53.606 341.438 53.41 341.606 53.27C341.774 53.102 341.97 53.032 342.208 53.032ZM341.648 55.762H342.768V63H341.648V55.762ZM348.254 55.566C350.046 55.566 350.956 56.56 350.956 58.548V63H349.836V58.632C349.836 57.218 349.192 56.518 347.932 56.518C347.428 56.518 346.994 56.7 346.63 57.064C346.238 57.456 346.028 57.974 345.986 58.632V63H344.866V55.762H345.986V56.826C346.238 56.42 346.56 56.112 346.952 55.902C347.344 55.678 347.778 55.566 348.254 55.566ZM358.034 52.808H359.154V63H358.104V61.81C357.6 62.734 356.788 63.196 355.696 63.196C354.632 63.196 353.806 62.804 353.218 62.048C352.672 61.348 352.406 60.452 352.406 59.36C352.406 58.296 352.672 57.428 353.218 56.728C353.806 55.944 354.604 55.566 355.64 55.566C356.676 55.566 357.474 56.07 358.034 57.092V52.808ZM355.878 56.49C355.08 56.49 354.478 56.77 354.086 57.33C353.722 57.82 353.554 58.492 353.554 59.36C353.554 60.228 353.722 60.914 354.072 61.418C354.464 61.978 355.052 62.272 355.836 62.272C356.564 62.272 357.124 61.992 357.53 61.432C357.88 60.928 358.062 60.27 358.062 59.458V59.318C358.062 58.478 357.852 57.792 357.46 57.274C357.054 56.742 356.522 56.49 355.878 56.49ZM361.813 53.032C362.051 53.032 362.247 53.102 362.415 53.27C362.583 53.41 362.667 53.606 362.667 53.858C362.667 54.096 362.583 54.292 362.415 54.46C362.247 54.614 362.051 54.698 361.813 54.698C361.575 54.698 361.379 54.614 361.211 54.46C361.043 54.292 360.973 54.096 360.973 53.858C360.973 53.606 361.043 53.41 361.211 53.27C361.379 53.102 361.575 53.032 361.813 53.032ZM361.253 55.762H362.373V63H361.253V55.762ZM367.594 55.566C368.49 55.566 369.204 55.776 369.75 56.196C370.31 56.63 370.646 57.288 370.772 58.17H369.666C369.568 57.61 369.344 57.19 368.994 56.91C368.63 56.63 368.168 56.504 367.594 56.504C366.894 56.504 366.334 56.77 365.928 57.302C365.536 57.82 365.34 58.52 365.34 59.402C365.34 60.284 365.522 60.984 365.914 61.488C366.292 61.992 366.852 62.258 367.58 62.258C368.812 62.258 369.526 61.628 369.694 60.382H370.814C370.646 61.306 370.296 62.02 369.736 62.496C369.19 62.958 368.476 63.196 367.58 63.196C366.488 63.196 365.648 62.832 365.046 62.104C364.472 61.418 364.192 60.522 364.192 59.416C364.192 58.31 364.472 57.414 365.046 56.714C365.662 55.944 366.516 55.566 367.594 55.566ZM375.278 55.566C376.314 55.566 377.07 55.832 377.574 56.378C377.994 56.854 378.218 57.512 378.218 58.352V63H377.168V61.782C376.888 62.174 376.51 62.496 376.062 62.748C375.53 63.042 374.928 63.196 374.256 63.196C373.528 63.196 372.954 63.014 372.52 62.65C372.072 62.272 371.848 61.782 371.848 61.194C371.848 60.368 372.17 59.752 372.842 59.332C373.43 58.94 374.27 58.73 375.362 58.716L377.098 58.688V58.31C377.098 57.092 376.468 56.49 375.208 56.49C374.676 56.49 374.242 56.588 373.906 56.812C373.528 57.036 373.29 57.386 373.178 57.848L372.072 57.764C372.226 57.008 372.604 56.434 373.192 56.07C373.724 55.734 374.41 55.566 375.278 55.566ZM377.098 59.528L375.432 59.556C373.808 59.584 372.996 60.116 372.996 61.166C372.996 61.502 373.122 61.768 373.402 61.992C373.682 62.202 374.046 62.314 374.494 62.314C375.18 62.314 375.782 62.09 376.314 61.642C376.832 61.208 377.098 60.704 377.098 60.144V59.528ZM381.88 53.424V55.762H383.672V56.7H381.88V61.306C381.88 61.572 381.922 61.768 382.034 61.88C382.132 61.992 382.314 62.062 382.566 62.062H383.49V63H382.398C381.81 63 381.376 62.846 381.124 62.538C380.886 62.258 380.774 61.852 380.774 61.306V56.7H379.318V55.762H380.774V53.886L381.88 53.424ZM388.159 55.566C389.237 55.566 390.105 55.93 390.749 56.686C391.365 57.4 391.673 58.296 391.673 59.388C391.673 60.466 391.365 61.362 390.763 62.062C390.105 62.818 389.237 63.196 388.159 63.196C387.067 63.196 386.213 62.818 385.569 62.062C384.953 61.362 384.645 60.466 384.645 59.388C384.645 58.296 384.953 57.4 385.569 56.686C386.213 55.93 387.067 55.566 388.159 55.566ZM388.159 56.504C387.389 56.504 386.787 56.798 386.367 57.386C385.975 57.918 385.793 58.576 385.793 59.388C385.793 60.186 385.975 60.844 386.367 61.376C386.787 61.964 387.389 62.258 388.159 62.258C388.915 62.258 389.517 61.964 389.965 61.376C390.343 60.844 390.539 60.172 390.539 59.388C390.539 58.576 390.343 57.918 389.965 57.386C389.517 56.798 388.915 56.504 388.159 56.504ZM396.306 55.566C396.698 55.566 397.034 55.622 397.3 55.734V56.854C396.936 56.742 396.572 56.7 396.222 56.7C395.662 56.7 395.186 56.938 394.808 57.442C394.416 57.918 394.234 58.492 394.234 59.164V63H393.128V55.762H394.234V57.022C394.43 56.602 394.682 56.266 394.99 56.028C395.368 55.72 395.802 55.566 396.306 55.566ZM403.127 52.808H404.233V63H403.127V52.808ZM407.122 53.032C407.36 53.032 407.556 53.102 407.724 53.27C407.892 53.41 407.976 53.606 407.976 53.858C407.976 54.096 407.892 54.292 407.724 54.46C407.556 54.614 407.36 54.698 407.122 54.698C406.884 54.698 406.688 54.614 406.52 54.46C406.352 54.292 406.282 54.096 406.282 53.858C406.282 53.606 406.352 53.41 406.52 53.27C406.688 53.102 406.884 53.032 407.122 53.032ZM406.562 55.762H407.682V63H406.562V55.762ZM412.762 55.566C413.854 55.566 414.666 56.042 415.198 57.008V55.762H416.318V62.496C416.318 64.806 415.212 65.968 413.014 65.968C412.034 65.968 411.278 65.772 410.774 65.38C410.256 64.988 409.934 64.4 409.808 63.616H410.928C411.012 64.106 411.222 64.47 411.544 64.694C411.866 64.932 412.356 65.058 413.014 65.058C414.47 65.058 415.198 64.246 415.198 62.65V61.376C414.666 62.342 413.854 62.832 412.762 62.832C411.754 62.832 410.956 62.482 410.368 61.796C409.78 61.124 409.5 60.27 409.5 59.22C409.5 58.156 409.78 57.302 410.368 56.63C410.956 55.916 411.754 55.566 412.762 55.566ZM412.93 56.49C412.202 56.49 411.642 56.742 411.236 57.274C410.844 57.75 410.648 58.408 410.648 59.22C410.648 59.976 410.816 60.606 411.166 61.082C411.558 61.614 412.132 61.894 412.916 61.894C413.644 61.894 414.204 61.642 414.624 61.138C415.016 60.648 415.212 60.004 415.212 59.22C415.212 58.408 415.016 57.75 414.624 57.274C414.204 56.742 413.644 56.49 412.93 56.49ZM418.052 52.808H419.172V56.952C419.424 56.49 419.76 56.14 420.18 55.902C420.572 55.678 421.006 55.566 421.496 55.566C422.336 55.566 422.994 55.804 423.442 56.308C423.89 56.798 424.114 57.512 424.114 58.436V63H422.994V58.604C422.994 57.932 422.826 57.414 422.518 57.05C422.182 56.686 421.72 56.504 421.118 56.504C420.558 56.504 420.096 56.728 419.732 57.176C419.354 57.624 419.172 58.198 419.172 58.87V63H418.052V52.808ZM427.763 53.424V55.762H429.555V56.7H427.763V61.306C427.763 61.572 427.805 61.768 427.917 61.88C428.015 61.992 428.197 62.062 428.449 62.062H429.373V63H428.281C427.693 63 427.259 62.846 427.007 62.538C426.769 62.258 426.657 61.852 426.657 61.306V56.7H425.201V55.762H426.657V53.886L427.763 53.424Z" fill="white"/>
<path d="M535.808 158.152C536.896 158.936 537.824 159.72 538.576 160.488L537.792 161.288C537.12 160.536 536.192 159.736 535.008 158.904L535.808 158.152ZM535.568 161.96C536.656 162.792 537.584 163.608 538.336 164.424L537.536 165.208C536.864 164.44 535.952 163.608 534.768 162.712L535.568 161.96ZM543.872 165.96H543.792C543.36 166.76 542.816 167.512 542.16 168.184V171.176C542.992 170.92 543.792 170.632 544.528 170.312L544.72 171.304C543.664 171.72 542.416 172.104 540.96 172.472L540.72 171.528C541.008 171.4 541.168 171.208 541.168 170.952V169.096C540.448 169.672 539.648 170.184 538.752 170.648L538.176 169.72C540.224 168.76 541.728 167.544 542.656 166.072C541.776 166.152 540.88 166.216 539.968 166.28L539.744 165.336C539.872 165.304 540.016 165.256 540.144 165.224C540.944 164.776 542 163.688 543.328 161.928L544.32 162.328C543.28 163.64 542.368 164.632 541.584 165.304C543.024 165.176 544.416 165.016 545.776 164.84C545.392 164.36 544.96 163.864 544.496 163.368L545.296 162.888C546.432 164.104 547.312 165.16 547.92 166.056L547.104 166.632C546.896 166.312 546.672 165.976 546.416 165.64C545.872 165.72 545.344 165.784 544.832 165.848C545.04 166.824 545.408 167.704 545.936 168.488C546.64 168.072 547.328 167.48 547.984 166.728L548.736 167.464C548.064 168.232 547.328 168.824 546.512 169.24C547.264 170.136 548.24 170.904 549.424 171.544L548.816 172.52C546.096 170.936 544.448 168.744 543.872 165.96ZM537.456 166.12L538.464 166.52C537.728 168.616 536.928 170.584 536.048 172.424L534.928 171.944C535.904 170.04 536.752 168.104 537.456 166.12ZM539.216 159.208H543.408C543.2 158.76 542.976 158.344 542.736 157.96L543.904 157.768C544.128 158.2 544.336 158.68 544.544 159.208H548.56V160.264H539.216V159.208ZM545.552 160.312C546.864 161.304 547.984 162.28 548.88 163.272L548.112 164.04C547.312 163.096 546.208 162.088 544.816 161.016L545.552 160.312ZM541.808 160.36L542.56 161.032C541.696 162.184 540.624 163.176 539.344 164.04L538.688 163.176C539.904 162.376 540.944 161.448 541.808 160.36ZM553.984 162.328H555.104V164.76H556.896V165.8H555.104V167.976C555.888 167.816 556.624 167.656 557.328 167.48V168.568C556.608 168.76 555.872 168.936 555.104 169.096V172.584H553.984V169.304C552.992 169.464 551.952 169.624 550.864 169.768L550.72 168.648C551.872 168.52 552.96 168.36 553.984 168.184V165.8H551.296L551.056 164.776C551.504 163.816 551.936 162.616 552.32 161.144H550.736V160.024H552.608C552.768 159.352 552.912 158.632 553.056 157.896L554.144 158.072C554 158.76 553.856 159.416 553.712 160.024H556.96V161.144H553.44C553.056 162.52 552.656 163.72 552.224 164.76H553.984V162.328ZM560.416 157.976H561.44C562.208 159.928 563.536 161.64 565.424 163.112L564.768 164.088C563.056 162.744 561.776 161.064 560.928 159.064C559.888 161.256 558.576 162.936 556.992 164.12L556.368 163.16C558.112 161.832 559.456 160.104 560.416 157.976ZM562.896 172.36H559.936C558.912 172.36 558.4 171.8 558.4 170.68V163.832H559.52V166.632C560.8 166.072 562.048 165.304 563.264 164.312L563.952 165.256C562.4 166.376 560.928 167.208 559.52 167.768V170.456C559.52 171.016 559.76 171.304 560.272 171.304H562.672C563.072 171.304 563.344 171.176 563.504 170.952C563.728 170.664 563.872 169.832 563.952 168.456L565.008 168.808C564.896 170.488 564.656 171.512 564.304 171.88C564.016 172.2 563.536 172.36 562.896 172.36ZM567.552 163.672C567.52 163.752 567.472 163.832 567.44 163.912L566.544 163.336C567.296 161.672 567.84 159.832 568.192 157.816L569.28 158.04C569.152 158.632 569.04 159.192 568.912 159.736H571.344V160.84H568.608C568.384 161.608 568.128 162.312 567.856 162.984H571.296V164.008H569.888V165.976H571.536V167.032H569.888V170.712C570.416 170.424 570.96 170.072 571.504 169.624L571.696 170.616C570.88 171.224 569.936 171.736 568.88 172.136L568.416 171.176C568.704 171.064 568.848 170.904 568.848 170.68V167.032H567.056V165.976H568.848V164.008H567.552V163.672ZM580.4 164.648H578.176V165.88H580.576V166.792H578.176V168.056H580.976V169.016H578.176V170.584H577.136V169.016H574.992V168.056H577.136V166.792H575.392V165.88H577.136V164.648H575.552V163.72H577.136V162.424H575.008V161.496H577.136V160.136H575.552V159.208H577.136V158.024H578.176V159.208H580.4V161.496H581.152V162.424H580.4V164.648ZM578.176 160.136V161.496H579.424V160.136H578.176ZM578.176 162.424V163.72H579.424V162.424H578.176ZM578.848 171.288C579.904 171.288 580.752 171.256 581.376 171.224L581.168 172.328H579.424C577.056 172.296 575.44 172.008 574.608 171.464C574.224 171.224 573.888 170.936 573.6 170.6C573.248 171.336 572.816 171.96 572.32 172.504L571.536 171.736C572.08 171.16 572.544 170.472 572.896 169.672C572.336 168.776 571.888 167.656 571.568 166.312L572.432 165.992C572.64 166.936 572.944 167.768 573.328 168.504C573.648 167.416 573.84 166.168 573.904 164.76H572V163.96C572.64 162.872 573.232 161.688 573.744 160.424H571.888V159.432H574.784V160.376C574.24 161.72 573.712 162.856 573.184 163.816H574.832V164.44C574.8 166.44 574.528 168.152 574.032 169.56C574.448 170.072 574.928 170.44 575.44 170.68C576.16 171.032 577.296 171.224 578.848 171.288Z" fill="white"/>
<path d="M523.496 301.576H525.016L529.512 313H528.088L526.872 309.8H521.624L520.408 313H519L523.496 301.576ZM522.04 308.696H526.456L524.296 302.984H524.232L522.04 308.696ZM530.764 301.576H532.06V313H530.764V301.576ZM534.865 305.672C534.833 305.752 534.785 305.832 534.753 305.912L533.857 305.336C534.609 303.672 535.153 301.832 535.505 299.816L536.593 300.04C536.465 300.632 536.353 301.192 536.225 301.736H538.657V302.84H535.921C535.697 303.608 535.441 304.312 535.169 304.984H538.609V306.008H537.201V307.976H538.849V309.032H537.201V312.712C537.729 312.424 538.273 312.072 538.817 311.624L539.009 312.616C538.193 313.224 537.249 313.736 536.193 314.136L535.729 313.176C536.017 313.064 536.161 312.904 536.161 312.68V309.032H534.368V307.976H536.161V306.008H534.865V305.672ZM547.713 306.648H545.489V307.88H547.889V308.792H545.489V310.056H548.289V311.016H545.489V312.584H544.449V311.016H542.305V310.056H544.449V308.792H542.705V307.88H544.449V306.648H542.865V305.72H544.449V304.424H542.321V303.496H544.449V302.136H542.865V301.208H544.449V300.024H545.489V301.208H547.713V303.496H548.465V304.424H547.713V306.648ZM545.489 302.136V303.496H546.737V302.136H545.489ZM545.489 304.424V305.72H546.737V304.424H545.489ZM546.161 313.288C547.217 313.288 548.065 313.256 548.689 313.224L548.481 314.328H546.737C544.369 314.296 542.753 314.008 541.921 313.464C541.536 313.224 541.201 312.936 540.913 312.6C540.561 313.336 540.129 313.96 539.633 314.504L538.849 313.736C539.393 313.16 539.857 312.472 540.209 311.672C539.649 310.776 539.201 309.656 538.881 308.312L539.745 307.992C539.953 308.936 540.257 309.768 540.641 310.504C540.961 309.416 541.153 308.168 541.217 306.76H539.313V305.96C539.953 304.872 540.545 303.688 541.057 302.424H539.201V301.432H542.097V302.376C541.553 303.72 541.025 304.856 540.497 305.816H542.145V306.44C542.113 308.44 541.841 310.152 541.345 311.56C541.76 312.072 542.241 312.44 542.753 312.68C543.473 313.032 544.609 313.224 546.161 313.288Z" fill="white"/>
<path d="M443.992 183.352C445.272 183.352 446.296 183.64 447.032 184.232C447.8 184.84 448.232 185.752 448.344 186.952H447.048C446.904 186.12 446.584 185.512 446.088 185.112C445.576 184.696 444.856 184.504 443.928 184.504C443.08 184.504 442.424 184.632 441.944 184.92C441.4 185.24 441.128 185.72 441.128 186.376C441.128 186.952 441.448 187.416 442.104 187.768C442.392 187.928 443.096 188.168 444.2 188.488C445.704 188.936 446.696 189.304 447.176 189.592C448.12 190.168 448.6 190.968 448.6 192.008C448.6 193 448.2 193.8 447.4 194.376C446.6 194.936 445.528 195.224 444.168 195.224C442.824 195.224 441.768 194.936 441 194.36C440.104 193.672 439.608 192.632 439.512 191.224H440.808C440.92 192.216 441.272 192.952 441.848 193.416C442.376 193.832 443.144 194.056 444.168 194.056C445.096 194.056 445.864 193.88 446.44 193.528C447.016 193.176 447.304 192.696 447.304 192.088C447.304 191.368 446.92 190.808 446.168 190.408C445.848 190.216 445.032 189.944 443.752 189.576C442.376 189.16 441.496 188.84 441.128 188.648C440.248 188.136 439.816 187.4 439.816 186.44C439.816 185.448 440.232 184.664 441.08 184.12C441.832 183.608 442.808 183.352 443.992 183.352ZM453.669 186.504C454.693 186.504 455.509 186.744 456.133 187.224C456.773 187.72 457.157 188.472 457.301 189.48H456.037C455.925 188.84 455.669 188.36 455.269 188.04C454.853 187.72 454.325 187.576 453.669 187.576C452.869 187.576 452.229 187.88 451.765 188.488C451.317 189.08 451.093 189.88 451.093 190.888C451.093 191.896 451.301 192.696 451.749 193.272C452.181 193.848 452.821 194.152 453.653 194.152C455.061 194.152 455.877 193.432 456.069 192.008H457.349C457.157 193.064 456.757 193.88 456.117 194.424C455.493 194.952 454.677 195.224 453.653 195.224C452.405 195.224 451.445 194.808 450.757 193.976C450.101 193.192 449.781 192.168 449.781 190.904C449.781 189.64 450.101 188.616 450.757 187.816C451.461 186.936 452.437 186.504 453.669 186.504ZM462.483 186.504C462.931 186.504 463.315 186.568 463.619 186.696V187.976C463.203 187.848 462.787 187.8 462.387 187.8C461.747 187.8 461.203 188.072 460.771 188.648C460.323 189.192 460.115 189.848 460.115 190.616V195H458.851V186.728H460.115V188.168C460.339 187.688 460.627 187.304 460.979 187.032C461.411 186.68 461.907 186.504 462.483 186.504ZM468.391 186.504C469.623 186.504 470.615 186.92 471.351 187.784C472.055 188.6 472.407 189.624 472.407 190.872C472.407 192.104 472.055 193.128 471.367 193.928C470.615 194.792 469.623 195.224 468.391 195.224C467.143 195.224 466.167 194.792 465.431 193.928C464.727 193.128 464.375 192.104 464.375 190.872C464.375 189.624 464.727 188.6 465.431 187.784C466.167 186.92 467.143 186.504 468.391 186.504ZM468.391 187.576C467.511 187.576 466.823 187.912 466.343 188.584C465.895 189.192 465.687 189.944 465.687 190.872C465.687 191.784 465.895 192.536 466.343 193.144C466.823 193.816 467.511 194.152 468.391 194.152C469.255 194.152 469.943 193.816 470.455 193.144C470.887 192.536 471.111 191.768 471.111 190.872C471.111 189.944 470.887 189.192 470.455 188.584C469.943 187.912 469.255 187.576 468.391 187.576ZM474.326 183.352H475.59V195H474.326V183.352ZM478.092 183.352H479.356V195H478.092V183.352ZM486.018 186.728H487.426L489.458 193.432L491.378 186.728H492.578L494.498 193.432L496.53 186.728H497.938L495.122 195H493.906L491.986 188.344L490.034 195H488.834L486.018 186.728ZM499.008 183.352H500.288V188.088C500.576 187.56 500.96 187.16 501.44 186.888C501.888 186.632 502.384 186.504 502.944 186.504C503.904 186.504 504.656 186.776 505.168 187.352C505.68 187.912 505.936 188.728 505.936 189.784V195H504.656V189.976C504.656 189.208 504.464 188.616 504.112 188.2C503.728 187.784 503.2 187.576 502.512 187.576C501.872 187.576 501.344 187.832 500.928 188.344C500.496 188.856 500.288 189.512 500.288 190.28V195H499.008V183.352ZM511.306 186.504C512.634 186.504 513.642 186.952 514.314 187.848C514.922 188.648 515.242 189.784 515.274 191.224H508.746C508.81 192.152 509.05 192.872 509.498 193.384C509.946 193.896 510.57 194.152 511.354 194.152C512.026 194.152 512.586 193.976 513.002 193.64C513.354 193.352 513.626 192.92 513.834 192.344H515.114C514.922 193.144 514.554 193.784 513.994 194.296C513.306 194.904 512.426 195.224 511.354 195.224C510.17 195.224 509.21 194.824 508.506 194.056C507.77 193.256 507.418 192.2 507.418 190.856C507.418 189.64 507.754 188.616 508.458 187.8C509.162 186.936 510.106 186.504 511.306 186.504ZM511.338 187.576C510.602 187.576 510.01 187.816 509.562 188.296C509.114 188.776 508.858 189.416 508.778 190.232H513.946C513.786 188.456 512.906 187.576 511.338 187.576ZM520.181 186.504C521.509 186.504 522.517 186.952 523.189 187.848C523.797 188.648 524.117 189.784 524.149 191.224H517.621C517.685 192.152 517.925 192.872 518.373 193.384C518.821 193.896 519.445 194.152 520.229 194.152C520.901 194.152 521.461 193.976 521.877 193.64C522.229 193.352 522.501 192.92 522.709 192.344H523.989C523.797 193.144 523.429 193.784 522.869 194.296C522.181 194.904 521.301 195.224 520.229 195.224C519.045 195.224 518.085 194.824 517.381 194.056C516.645 193.256 516.293 192.2 516.293 190.856C516.293 189.64 516.629 188.616 517.333 187.8C518.037 186.936 518.981 186.504 520.181 186.504ZM520.213 187.576C519.477 187.576 518.885 187.816 518.437 188.296C517.989 188.776 517.733 189.416 517.653 190.232H522.821C522.661 188.456 521.781 187.576 520.213 187.576ZM525.904 183.352H527.168V195H525.904V183.352ZM534.742 183.352H536.022V188.248C536.662 187.08 537.574 186.504 538.758 186.504C539.926 186.504 540.854 186.936 541.526 187.832C542.134 188.632 542.454 189.624 542.454 190.84C542.454 192.088 542.134 193.112 541.526 193.912C540.838 194.776 539.894 195.224 538.694 195.224C537.414 195.224 536.502 194.696 535.942 193.64V195H534.742V183.352ZM538.486 187.56C537.734 187.56 537.126 187.848 536.678 188.456C536.198 189.048 535.974 189.832 535.974 190.792V190.952C535.974 191.88 536.182 192.632 536.598 193.208C537.046 193.848 537.702 194.168 538.534 194.168C539.43 194.168 540.102 193.832 540.55 193.192C540.934 192.616 541.142 191.832 541.142 190.84C541.142 189.848 540.934 189.08 540.518 188.52C540.054 187.88 539.382 187.56 538.486 187.56ZM544.117 186.728H545.397V191.784C545.397 192.568 545.557 193.16 545.893 193.544C546.229 193.928 546.773 194.136 547.525 194.136C548.069 194.136 548.565 193.912 548.997 193.496C549.445 193.048 549.717 192.472 549.813 191.768V186.728H551.093V195H549.813V193.72C549.141 194.712 548.245 195.224 547.125 195.224C545.109 195.224 544.117 194.088 544.117 191.848V186.728ZM555.278 184.056V186.728H557.326V187.8H555.278V193.064C555.278 193.368 555.326 193.592 555.454 193.72C555.566 193.848 555.774 193.928 556.062 193.928H557.118V195H555.87C555.198 195 554.702 194.824 554.414 194.472C554.142 194.152 554.014 193.688 554.014 193.064V187.8H552.35V186.728H554.014V184.584L555.278 184.056ZM560.966 184.056V186.728H563.014V187.8H560.966V193.064C560.966 193.368 561.014 193.592 561.142 193.72C561.254 193.848 561.462 193.928 561.75 193.928H562.806V195H561.558C560.886 195 560.39 194.824 560.102 194.472C559.83 194.152 559.702 193.688 559.702 193.064V187.8H558.038V186.728H559.702V184.584L560.966 184.056ZM568.141 186.504C569.373 186.504 570.365 186.92 571.101 187.784C571.805 188.6 572.157 189.624 572.157 190.872C572.157 192.104 571.805 193.128 571.117 193.928C570.365 194.792 569.373 195.224 568.141 195.224C566.893 195.224 565.917 194.792 565.181 193.928C564.477 193.128 564.125 192.104 564.125 190.872C564.125 189.624 564.477 188.6 565.181 187.784C565.917 186.92 566.893 186.504 568.141 186.504ZM568.141 187.576C567.261 187.576 566.573 187.912 566.093 188.584C565.645 189.192 565.437 189.944 565.437 190.872C565.437 191.784 565.645 192.536 566.093 193.144C566.573 193.816 567.261 194.152 568.141 194.152C569.005 194.152 569.693 193.816 570.205 193.144C570.637 192.536 570.861 191.768 570.861 190.872C570.861 189.944 570.637 189.192 570.205 188.584C569.693 187.912 569.005 187.576 568.141 187.576ZM577.692 186.504C579.74 186.504 580.78 187.64 580.78 189.912V195H579.5V190.008C579.5 188.392 578.764 187.592 577.324 187.592C576.748 187.592 576.252 187.8 575.836 188.216C575.388 188.664 575.148 189.256 575.1 190.008V195H573.82V186.728H575.1V187.944C575.388 187.48 575.756 187.128 576.204 186.888C576.652 186.632 577.148 186.504 577.692 186.504Z" fill="white"/>
<path d="M509.496 325.576H511.016L515.512 337H514.088L512.872 333.8H507.624L506.408 337H505L509.496 325.576ZM508.04 332.696H512.456L510.296 326.984H510.232L508.04 332.696ZM516.764 325.576H518.06V337H516.764V325.576ZM525.633 325.352H526.913V332.568L531.057 328.728H532.753L529.105 332.056L533.105 337H531.457L528.225 332.888L526.913 334.072V337H525.633V325.352ZM537.509 328.504C538.837 328.504 539.845 328.952 540.517 329.848C541.125 330.648 541.445 331.784 541.477 333.224H534.949C535.013 334.152 535.253 334.872 535.701 335.384C536.149 335.896 536.773 336.152 537.557 336.152C538.229 336.152 538.789 335.976 539.205 335.64C539.557 335.352 539.829 334.92 540.037 334.344H541.317C541.125 335.144 540.757 335.784 540.197 336.296C539.509 336.904 538.629 337.224 537.557 337.224C536.373 337.224 535.413 336.824 534.709 336.056C533.973 335.256 533.621 334.2 533.621 332.856C533.621 331.64 533.957 330.616 534.661 329.8C535.365 328.936 536.309 328.504 537.509 328.504ZM537.541 329.576C536.805 329.576 536.213 329.816 535.765 330.296C535.317 330.776 535.061 331.416 534.981 332.232H540.149C539.989 330.456 539.109 329.576 537.541 329.576ZM542.064 328.728H543.456L545.984 335.256L548.432 328.728H549.84L545.312 340.168H543.92L545.344 336.808L542.064 328.728Z" fill="white"/>
<path d="M24.128 246.584H32.88V247.64H28.416L28.032 249.416H31.872V252.568H33.376V253.64H23.712V252.568H26.208L26.656 250.456H24.512V249.416H26.88L27.264 247.64H24.128V246.584ZM27.36 252.568H30.72V250.456H27.808L27.36 252.568ZM32.32 255.096V260.632H31.184V259.864H26.064V260.632H24.928V255.096H32.32ZM26.064 258.776H31.184V256.152H26.064V258.776ZM20.656 246.152C21.68 246.92 22.56 247.704 23.264 248.488L22.464 249.272C21.824 248.536 20.96 247.768 19.856 246.936L20.656 246.152ZM18.672 250.824H22.128V257.912C22.64 257.464 23.184 256.936 23.776 256.344L24.08 257.56C23.152 258.488 22.176 259.304 21.12 260.024L20.672 259C20.896 258.792 21.024 258.568 21.024 258.312V251.928H18.672V250.824ZM46.992 253.464V260.6H45.824V259.864H38.24V260.6H37.072V253.464H46.992ZM38.24 258.84H45.824V257.176H38.24V258.84ZM38.24 256.184H45.824V254.488H38.24V256.184ZM35.696 247.496H41.504C41.264 246.952 41.008 246.44 40.736 245.992L41.952 245.8C42.208 246.296 42.448 246.856 42.672 247.496H48.32V248.552H45.776C45.536 249.448 45.216 250.296 44.8 251.112H49.056V252.184H34.944V251.112H39.072C38.816 250.184 38.512 249.336 38.192 248.552H35.696V247.496ZM39.408 248.552C39.696 249.32 39.968 250.184 40.224 251.112H43.68C44.112 250.296 44.432 249.448 44.624 248.552H39.408ZM51.552 251.672C51.52 251.752 51.472 251.832 51.44 251.912L50.544 251.336C51.296 249.672 51.84 247.832 52.192 245.816L53.28 246.04C53.152 246.632 53.04 247.192 52.912 247.736H55.344V248.84H52.608C52.384 249.608 52.128 250.312 51.856 250.984H55.296V252.008H53.888V253.976H55.536V255.032H53.888V258.712C54.416 258.424 54.96 258.072 55.504 257.624L55.696 258.616C54.88 259.224 53.936 259.736 52.88 260.136L52.416 259.176C52.704 259.064 52.848 258.904 52.848 258.68V255.032H51.056V253.976H52.848V252.008H51.552V251.672ZM64.4 252.648H62.176V253.88H64.576V254.792H62.176V256.056H64.976V257.016H62.176V258.584H61.136V257.016H58.992V256.056H61.136V254.792H59.392V253.88H61.136V252.648H59.552V251.72H61.136V250.424H59.008V249.496H61.136V248.136H59.552V247.208H61.136V246.024H62.176V247.208H64.4V249.496H65.152V250.424H64.4V252.648ZM62.176 248.136V249.496H63.424V248.136H62.176ZM62.176 250.424V251.72H63.424V250.424H62.176ZM62.848 259.288C63.904 259.288 64.752 259.256 65.376 259.224L65.168 260.328H63.424C61.056 260.296 59.44 260.008 58.608 259.464C58.224 259.224 57.888 258.936 57.6 258.6C57.248 259.336 56.816 259.96 56.32 260.504L55.536 259.736C56.08 259.16 56.544 258.472 56.896 257.672C56.336 256.776 55.888 255.656 55.568 254.312L56.432 253.992C56.64 254.936 56.944 255.768 57.328 256.504C57.648 255.416 57.84 254.168 57.904 252.76H56V251.96C56.64 250.872 57.232 249.688 57.744 248.424H55.888V247.432H58.784V248.376C58.24 249.72 57.712 250.856 57.184 251.816H58.832V252.44C58.8 254.44 58.528 256.152 58.032 257.56C58.448 258.072 58.928 258.44 59.44 258.68C60.16 259.032 61.296 259.224 62.848 259.288Z" fill="white"/>
<path d="M18.08 271.576H19.52L23.088 281.576H23.136L26.704 271.576H28.144L23.92 283H22.304L18.08 271.576ZM32.9068 274.504C34.1388 274.504 35.1308 274.92 35.8668 275.784C36.5708 276.6 36.9228 277.624 36.9228 278.872C36.9228 280.104 36.5708 281.128 35.8828 281.928C35.1308 282.792 34.1388 283.224 32.9068 283.224C31.6588 283.224 30.6828 282.792 29.9468 281.928C29.2428 281.128 28.8908 280.104 28.8908 278.872C28.8908 277.624 29.2428 276.6 29.9468 275.784C30.6828 274.92 31.6588 274.504 32.9068 274.504ZM32.9068 275.576C32.0268 275.576 31.3388 275.912 30.8588 276.584C30.4108 277.192 30.2028 277.944 30.2028 278.872C30.2028 279.784 30.4108 280.536 30.8588 281.144C31.3388 281.816 32.0268 282.152 32.9068 282.152C33.7708 282.152 34.4588 281.816 34.9708 281.144C35.4028 280.536 35.6268 279.768 35.6268 278.872C35.6268 277.944 35.4028 277.192 34.9708 276.584C34.4588 275.912 33.7708 275.576 32.9068 275.576ZM39.6418 271.608C39.9138 271.608 40.1378 271.688 40.3298 271.88C40.5218 272.04 40.6178 272.264 40.6178 272.552C40.6178 272.824 40.5218 273.048 40.3298 273.24C40.1378 273.416 39.9138 273.512 39.6418 273.512C39.3698 273.512 39.1458 273.416 38.9538 273.24C38.7618 273.048 38.6818 272.824 38.6818 272.552C38.6818 272.264 38.7618 272.04 38.9538 271.88C39.1458 271.688 39.3698 271.608 39.6418 271.608ZM39.0018 274.728H40.2818V283H39.0018V274.728ZM46.2475 274.504C47.2715 274.504 48.0875 274.744 48.7115 275.224C49.3515 275.72 49.7355 276.472 49.8795 277.48H48.6155C48.5035 276.84 48.2475 276.36 47.8475 276.04C47.4315 275.72 46.9035 275.576 46.2475 275.576C45.4475 275.576 44.8075 275.88 44.3435 276.488C43.8955 277.08 43.6715 277.88 43.6715 278.888C43.6715 279.896 43.8795 280.696 44.3275 281.272C44.7595 281.848 45.3995 282.152 46.2315 282.152C47.6395 282.152 48.4555 281.432 48.6475 280.008H49.9275C49.7355 281.064 49.3355 281.88 48.6955 282.424C48.0715 282.952 47.2555 283.224 46.2315 283.224C44.9835 283.224 44.0235 282.808 43.3355 281.976C42.6795 281.192 42.3595 280.168 42.3595 278.904C42.3595 277.64 42.6795 276.616 43.3355 275.816C44.0395 274.936 45.0155 274.504 46.2475 274.504ZM54.8375 274.504C56.1655 274.504 57.1735 274.952 57.8455 275.848C58.4535 276.648 58.7735 277.784 58.8055 279.224H52.2775C52.3415 280.152 52.5815 280.872 53.0295 281.384C53.4775 281.896 54.1015 282.152 54.8855 282.152C55.5575 282.152 56.1175 281.976 56.5335 281.64C56.8855 281.352 57.1575 280.92 57.3655 280.344H58.6455C58.4535 281.144 58.0855 281.784 57.5255 282.296C56.8375 282.904 55.9575 283.224 54.8855 283.224C53.7015 283.224 52.7415 282.824 52.0375 282.056C51.3015 281.256 50.9495 280.2 50.9495 278.856C50.9495 277.64 51.2855 276.616 51.9895 275.8C52.6935 274.936 53.6375 274.504 54.8375 274.504ZM54.8695 275.576C54.1335 275.576 53.5415 275.816 53.0935 276.296C52.6455 276.776 52.3895 277.416 52.3095 278.232H57.4775C57.3175 276.456 56.4375 275.576 54.8695 275.576ZM65.6326 271.352H66.9126V276.248C67.5526 275.08 68.4646 274.504 69.6486 274.504C70.8166 274.504 71.7446 274.936 72.4166 275.832C73.0246 276.632 73.3446 277.624 73.3446 278.84C73.3446 280.088 73.0246 281.112 72.4166 281.912C71.7286 282.776 70.7846 283.224 69.5846 283.224C68.3046 283.224 67.3926 282.696 66.8326 281.64V283H65.6326V271.352ZM69.3766 275.56C68.6246 275.56 68.0166 275.848 67.5686 276.456C67.0886 277.048 66.8646 277.832 66.8646 278.792V278.952C66.8646 279.88 67.0726 280.632 67.4886 281.208C67.9366 281.848 68.5926 282.168 69.4246 282.168C70.3206 282.168 70.9926 281.832 71.4406 281.192C71.8246 280.616 72.0326 279.832 72.0326 278.84C72.0326 277.848 71.8246 277.08 71.4086 276.52C70.9446 275.88 70.2726 275.56 69.3766 275.56ZM75.0076 274.728H76.2876V279.784C76.2876 280.568 76.4476 281.16 76.7836 281.544C77.1196 281.928 77.6636 282.136 78.4156 282.136C78.9596 282.136 79.4556 281.912 79.8876 281.496C80.3356 281.048 80.6076 280.472 80.7036 279.768V274.728H81.9836V283H80.7036V281.72C80.0316 282.712 79.1356 283.224 78.0156 283.224C75.9996 283.224 75.0076 282.088 75.0076 279.848V274.728ZM86.1688 272.056V274.728H88.2168V275.8H86.1688V281.064C86.1688 281.368 86.2168 281.592 86.3448 281.72C86.4568 281.848 86.6648 281.928 86.9528 281.928H88.0088V283H86.7608C86.0888 283 85.5928 282.824 85.3048 282.472C85.0328 282.152 84.9048 281.688 84.9048 281.064V275.8H83.2408V274.728H84.9048V272.584L86.1688 272.056ZM91.8563 272.056V274.728H93.9043V275.8H91.8563V281.064C91.8563 281.368 91.9043 281.592 92.0323 281.72C92.1443 281.848 92.3523 281.928 92.6403 281.928H93.6963V283H92.4483C91.7763 283 91.2803 282.824 90.9923 282.472C90.7203 282.152 90.5923 281.688 90.5923 281.064V275.8H88.9283V274.728H90.5923V272.584L91.8563 272.056ZM99.0318 274.504C100.264 274.504 101.256 274.92 101.992 275.784C102.696 276.6 103.048 277.624 103.048 278.872C103.048 280.104 102.696 281.128 102.008 281.928C101.256 282.792 100.264 283.224 99.0318 283.224C97.7838 283.224 96.8078 282.792 96.0718 281.928C95.3678 281.128 95.0158 280.104 95.0158 278.872C95.0158 277.624 95.3678 276.6 96.0718 275.784C96.8078 274.92 97.7838 274.504 99.0318 274.504ZM99.0318 275.576C98.1518 275.576 97.4638 275.912 96.9838 276.584C96.5358 277.192 96.3278 277.944 96.3278 278.872C96.3278 279.784 96.5358 280.536 96.9838 281.144C97.4638 281.816 98.1518 282.152 99.0318 282.152C99.8958 282.152 100.584 281.816 101.096 281.144C101.528 280.536 101.752 279.768 101.752 278.872C101.752 277.944 101.528 277.192 101.096 276.584C100.584 275.912 99.8958 275.576 99.0318 275.576ZM108.583 274.504C110.631 274.504 111.671 275.64 111.671 277.912V283H110.391V278.008C110.391 276.392 109.655 275.592 108.215 275.592C107.639 275.592 107.143 275.8 106.727 276.216C106.279 276.664 106.039 277.256 105.991 278.008V283H104.711V274.728H105.991V275.944C106.279 275.48 106.647 275.128 107.095 274.888C107.543 274.632 108.039 274.504 108.583 274.504Z" fill="white"/>
<path d="M18 297L261 297" stroke="#606C80" stroke-width="2" stroke-dasharray="2 2"/>
<defs>
<filter id="filter0_d_302_84" x="265.663" y="177" width="29.6735" height="67.6735" filterUnits="userSpaceOnUse" color-interpolation-filters="sRGB">
<feFlood flood-opacity="0" result="BackgroundImageFix"/>
<feColorMatrix in="SourceAlpha" type="matrix" values="0 0 0 0 0 0 0 0 0 0 0 0 0 0 0 0 0 0 127 0" result="hardAlpha"/>
<feOffset dy="3.33673"/>
<feGaussianBlur stdDeviation="1.66837"/>
<feComposite in2="hardAlpha" operator="out"/>
<feColorMatrix type="matrix" values="0 0 0 0 0 0 0 0 0 0 0 0 0 0 0 0 0 0 0.25 0"/>
<feBlend mode="normal" in2="BackgroundImageFix" result="effect1_dropShadow_302_84"/>
<feBlend mode="normal" in="SourceGraphic" in2="effect1_dropShadow_302_84" result="shape"/>
</filter>
</defs>
</svg>
