<svg width="200" height="200" viewBox="0 0 200 200" fill="none" xmlns="http://www.w3.org/2000/svg">
<path d="M158.767 61.6179C156.772 18.6009 129.3 9.03329 112.252 9.71543C112.045 9.72369 111.89 9.88641 111.894 10.093C112.619 43.1406 114.021 109.515 113.888 113.504C113.756 117.483 110.647 118.716 109.08 118.841C109.059 118.842 109.041 118.842 109.02 118.84C104.058 118.394 93.5624 117.273 91.0316 116.34C88.4957 115.406 87.7505 113.059 87.6949 112.003L88.3595 10.4718C88.361 10.2516 88.1664 10.0764 87.9466 10.0901C47.1322 12.6392 43.9764 47.7885 41.8149 59.2614C39.646 70.7731 38.9785 127.352 42.3156 145.882C45.3187 164.89 56.7274 191.584 103.878 191.25C148.89 190.932 158.073 154.151 158.955 144.702C159.154 142.562 161.316 116.573 158.767 61.6179Z" stroke="currentColor" stroke-width="0.915594"/>
<path d="M109.166 9.28339C109.833 9.27294 110.383 9.80484 110.395 10.4719L112.327 113.735C112.359 115.488 110.83 116.863 109.09 116.646L92.4185 114.562C90.6352 114.339 89.3005 112.817 89.312 111.02L89.9536 11.0949C89.959 10.2554 90.6338 9.57402 91.4731 9.56073L109.166 9.28339Z" stroke="currentColor" stroke-width="0.915594" stroke-linejoin="round"/>
<rect x="100.164" y="13.1378" width="0.667347" height="6.3398" rx="0.333673" stroke="currentColor" stroke-width="0.667347"/>
<rect x="100.164" y="22.4806" width="0.667347" height="3.00306" rx="0.333673" stroke="currentColor" stroke-width="0.667347"/>
<rect x="104.361" y="17.8092" width="0.667347" height="4.67143" rx="0.333673" stroke="currentColor" stroke-width="0.667347"/>
<rect x="95.6506" y="22.1469" width="0.667347" height="3.00306" rx="0.333673" stroke="currentColor" stroke-width="0.667347"/>
<rect x="95.6506" y="15.8071" width="0.667347" height="3.00306" rx="0.333673" stroke="currentColor" stroke-width="0.667347"/>
<rect x="93.9475" y="29.6333" width="13.0844" height="27.0844" rx="4.3422" stroke="currentColor" stroke-width="0.915594"/>
<g filter="url(#filter0_d_291_30)">
<rect x="96.3696" y="31.2555" width="8.24" height="23.44" rx="4.12" stroke="currentColor" stroke-width="0.96" shape-rendering="crispEdges"/>
</g>
<path d="M95.4917 70.7759H105.488C106.373 70.776 107.089 71.4928 107.089 72.3775V86.5377C107.089 87.4927 106.259 88.2361 105.31 88.1304L95.314 87.0172C94.5031 86.9266 93.8901 86.2404 93.8901 85.4244V72.3775C93.8902 71.4928 94.607 70.776 95.4917 70.7759Z" stroke="currentColor" stroke-width="0.8"/>
<path d="M95.7056 90.6767L105.701 92.0204C106.496 92.1273 107.089 92.806 107.089 93.6083V106.887C107.089 107.856 106.235 108.604 105.274 108.475L95.2788 107.131C94.4837 107.024 93.8902 106.345 93.8901 105.543V92.2646C93.8902 91.2951 94.7447 90.5475 95.7056 90.6767Z" stroke="currentColor" stroke-width="0.8"/>
<defs>
<filter id="filter0_d_291_30" x="94.555" y="30.7755" width="11.8696" height="27.0694" filterUnits="userSpaceOnUse" color-interpolation-filters="sRGB">
<feFlood flood-opacity="0" result="BackgroundImageFix"/>
<feColorMatrix in="SourceAlpha" type="matrix" values="0 0 0 0 0 0 0 0 0 0 0 0 0 0 0 0 0 0 127 0" result="hardAlpha"/>
<feOffset dy="1.33469"/>
<feGaussianBlur stdDeviation="0.667347"/>
<feComposite in2="hardAlpha" operator="out"/>
<feColorMatrix type="matrix" values="0 0 0 0 0 0 0 0 0 0 0 0 0 0 0 0 0 0 0.25 0"/>
<feBlend mode="normal" in2="BackgroundImageFix" result="effect1_dropShadow_291_30"/>
<feBlend mode="normal" in="SourceGraphic" in2="effect1_dropShadow_291_30" result="shape"/>
</filter>
</defs>
</svg>
