<svg width="32" height="32" viewBox="0 0 32 32" fill="none" xmlns="http://www.w3.org/2000/svg">
<g clip-path="url(#clip0_288_1026)">
<path d="M16 0C18.16 0 20.2545 0.421818 22.2255 1.25818C24.1309 2.06545 25.84 3.21455 27.3091 4.69091C28.7782 6.16 29.9345 7.86909 30.7418 9.77455C31.5782 11.7455 32 13.84 32 16C32 18.16 31.5782 20.2545 30.7418 22.2255C29.9345 24.1309 28.7855 25.84 27.3091 27.3091C25.84 28.7782 24.1309 29.9345 22.2255 30.7418C20.2545 31.5782 18.16 32 16 32C13.84 32 11.7455 31.5782 9.77455 30.7418C7.86909 29.9345 6.16 28.7855 4.69091 27.3091C3.22182 25.84 2.06545 24.1309 1.25818 22.2255C0.421818 20.2545 0 18.16 0 16C0 13.84 0.421818 11.7455 1.25818 9.77455C2.06545 7.86909 3.21455 6.16 4.69091 4.69091C6.16727 3.22182 7.86909 2.06545 9.77455 1.25818C11.7455 0.421818 13.84 0 16 0ZM23.3996 17.8513H8.60598C7.7838 17.8513 7.36992 18.8469 7.9516 19.4285L11.6486 23.1256C12.0122 23.4779 12.5882 23.4723 12.9462 23.1144C13.3041 22.7564 13.3097 22.1803 12.9574 21.8168L10.8376 19.697H23.3996C23.9086 19.697 24.3225 19.2831 24.3225 18.7742C24.3225 18.2652 23.9086 17.8513 23.3996 17.8513ZM20.3514 8.87445C19.9878 8.52209 19.4118 8.52768 19.0538 8.88564C18.6959 9.24359 18.6903 9.81968 19.0426 10.1832L21.1624 12.303H8.60039C8.09142 12.303 7.67754 12.7169 7.67754 13.2258C7.67754 13.7348 8.09142 14.1487 8.60039 14.1487H23.394C24.2162 14.1487 24.6301 13.1531 24.0484 12.5715L20.3514 8.87445Z" fill="white"/>
</g>
<defs>
<clipPath id="clip0_288_1026">
<rect width="32" height="32" fill="white"/>
</clipPath>
</defs>
</svg>
